<svg xmlns="http://www.w3.org/2000/svg" viewBox="0 0 45.31 52.2"><defs><style>.cls-1{fill:#231f20;fill-rule:evenodd;}</style></defs><title>chat-favicon</title><g id="Layer_2" data-name="Layer 2"><g id="Layer_1-2" data-name="Layer 1"><path class="cls-1" d="M45.18,37.47a11.23,11.23,0,0,0-4.31-6.91.05.05,0,0,1,0,0s0,0,0,0h0a14.15,14.15,0,0,1-3.47,4.55c-1.6,1.42-1.26,3-1.2,4.74a7.9,7.9,0,0,1-.06,1.53,11.45,11.45,0,0,0-.74-.94c-1.79-2-3.6-2-6.49-1.62a17.93,17.93,0,0,1-2.76.2c-.36,0-.71,0-1.06,0h-.19a18.5,18.5,0,0,1-2.84-.4l-.39-.09C15.12,37,10.39,32,10.39,26.09c0-7.17,7-13,15.72-13a16.81,16.81,0,0,1,13,5.65,12.11,12.11,0,0,1,1.81,2.9,11.71,11.71,0,0,0,3.93-5.37,10.26,10.26,0,0,0,.41-1.7,10.52,10.52,0,0,0-3.86-9.5,13.36,13.36,0,0,0-2.24-1.58A25.83,25.83,0,0,0,26.11,0a26.1,26.1,0,1,0,0,52.2h.29l.67,0,.4,0h.21a25.74,25.74,0,0,0,11.43-3.43c4.55-2.61,6.71-6.91,6.1-11.08Z"/><path class="cls-1" d="M16,24.79a2.85,2.85,0,1,0,5,2.1,2.53,2.53,0,0,0,0-.28,2.85,2.85,0,0,0-5-1.82Z"/><path class="cls-1" d="M23.76,24.79a2.85,2.85,0,1,0,5,2.1,2.46,2.46,0,0,0,0-.28,2.85,2.85,0,0,0-5-1.82Z"/><path class="cls-1" d="M31.51,24.79a2.79,2.79,0,0,0-.67,1.82,2.86,2.86,0,0,0,5.7.28,2.53,2.53,0,0,0,0-.28,2.85,2.85,0,0,0-5-1.82Z"/></g></g></svg>