<?xml version="1.0" encoding="UTF-8"?>
<svg id="Layer_2" data-name="Layer 2" xmlns="http://www.w3.org/2000/svg" viewBox="0 0 129.53 129.53">
  <defs>
    <style>
      .cls-1 {
        fill: #fff;
      }

      .cls-2 {
        fill: #bcbec0;
      }
    </style>
  </defs>
  <g id="OBJECTS">
    <g>
      <circle class="cls-1" cx="64.76" cy="64.76" r="64.76" transform="translate(-26.83 64.76) rotate(-45)"/>
      <ellipse class="cls-2" cx="64.76" cy="54.16" rx="25.19" ry="32.57"/>
      <path class="cls-2" d="m64.76,89.14c-21.07,0-39.62,6.44-50.46,16.2,11.87,14.74,30.06,24.18,50.46,24.18s38.59-9.44,50.46-24.18c-10.83-9.76-29.38-16.2-50.46-16.2Z"/>
      <rect class="cls-2" x="52.33" y="64.76" width="24.88" height="41.13" rx="9.62" ry="9.62"/>
      <path class="cls-2" d="m43.05,55.67c1.47,4.22.88,8.26-1.3,9.02s-5.14-2.05-6.61-6.27c-1.47-4.22-.88-8.26,1.3-9.02s5.14,2.05,6.61,6.27Z"/>
      <path class="cls-2" d="m86.48,55.67c-1.47,4.22-.88,8.26,1.3,9.02s5.14-2.05,6.61-6.27c1.47-4.22.88-8.26-1.3-9.02s-5.14,2.05-6.61,6.27Z"/>
      <path class="cls-2" d="m42.71,55.53c-3.27-5.95-6.64-12.27-6.47-19.07.17-6.79,5.34-13.96,12.13-13.72,1.18.04,2.37.3,3.55.14,2.35-.33,4.09-2.25,5.99-3.67,4.3-3.19,10.28-3.94,15.24-1.93,3.06,1.25,5.65,3.43,8.64,4.85,5.56,2.64,12.42,2.37,17.75-.72-1.11,2.09-2.99,3.76-5.2,4.62,2.04.65,4.29.59,6.29-.17-1.2,2.18-3.2,3.92-5.52,4.81,1.72.12,3.45.24,5.17.36-1.47,2.08-3.57,3.71-5.96,4.62,1.35.04,2.7.09,4.05.13-1.01,2.98-3.62,5.37-6.68,6.1.87.01,1.74.02,2.61.04-2.85,4.12-5.71,8.24-8.56,12.36-.82,1.18-1.66,2.38-2.87,3.16-1,.64-2.18.94-3.34,1.2-8.46,1.9-17.21,2.47-25.84,1.68-2.95-.27-6.04-.75-8.39-2.57s-3.6-5.36-1.99-7.84"/>
      <path class="cls-2" d="m48.52,95.3c.19-3.42.61-6.82,1.27-10.18,1.69,1.93,4.56,2.17,7.12,2.28,3.88.16,7.76.32,11.65.47.45,2.65.77,5.76-1.15,7.65-.89.87-2.11,1.31-3.31,1.64-2.62.73-5.33,1.11-8.04,1.12-3.22.02-7.06-.95-8.09-4,.35-.29.7-.57,1.05-.86"/>
      <path class="cls-2" d="m81,95.3c-.19-3.42-.61-6.82-1.27-10.18-1.69,1.93-4.56,2.17-7.12,2.28-3.88.16-7.76.32-11.65.47-.45,2.65-.77,5.76,1.15,7.65.89.87,2.11,1.31,3.31,1.64,2.62.73,5.33,1.11,8.04,1.12,3.22.02,7.06-.95,8.09-4-.35-.29-.7-.57-1.05-.86"/>
    </g>
  </g>
</svg>