<svg id="Avatars" xmlns="http://www.w3.org/2000/svg" xmlns:xlink="http://www.w3.org/1999/xlink" viewBox="0 0 120 120"><defs><clipPath id="clip-path"><circle cx="60" cy="-74.67" r="60" style="fill:none"/></clipPath><clipPath id="clip-path-2"><circle cx="60" cy="60" r="60" transform="translate(-12.4 104.25) rotate(-76.43)" style="fill:none"/></clipPath></defs><title>avatar</title><g style="clip-path:url(#clip-path)"><path d="M20.6,3.46c2-12.82,5.75-22.57,10.2-29.71a43.92,43.92,0,0,1,8.92-10.52,31.74,31.74,0,0,1,4-2.89,19.6,19.6,0,0,1,8.47-3l-.59-13.18v-.39a18.58,18.58,0,0,0-1.92.23,28.7,28.7,0,0,0-6,1.57,36.83,36.83,0,0,0-4,1.77c-13.39,7-27.52,24.38-32.15,55Q14.13,2.69,20.6,3.46Z" style="fill:#1e633b"/><path d="M80.8-35.17A49.12,49.12,0,0,1,90.12-22.4s0,0,0,0C94.79-13.44,98.38-1.19,99.35,15c4.36-.15,8.72-.37,13.08-.58C110.2-22.42,95.33-43.06,80.8-51.39a36.67,36.67,0,0,0-4-2c-.21-.1-.43-.18-.64-.26,0,0,0,0,0,0A29.85,29.85,0,0,0,69-55.57c-.49-.08-1-.13-1.46-.16l-1,13.08a21.05,21.05,0,0,1,10.26,4.17A37,37,0,0,1,80.8-35.17Z" style="fill:#1e633b"/><path d="M76.15,13.61A28.28,28.28,0,0,0,55.62,9.44C62.46,10.84,69.29,12.28,76.15,13.61Z" style="fill:#6d4c2b"/><path d="M83.77,15c1.89.08,3.78.12,5.68.13l.69-37.54.11-6.27a29.1,29.1,0,0,0-5.44-17,29,29,0,0,0-8.62-8s0,0,0,0a28.81,28.81,0,0,0-7.37-3.19,28.93,28.93,0,0,0-7.78-1H60A29.26,29.26,0,0,0,30.74-28.64L31.61,5C49.08,7.73,66.32,11.93,83.77,15Z" style="fill:#1e633b"/><path d="M43.69,7.08v-61.5a37,37,0,0,0-4,1.77v59Z" style="fill:#fff"/><path d="M80.8,14.49V-51.39a36.55,36.55,0,0,0-4-2V13.74Q78.82,14.13,80.8,14.49Z" style="fill:#fff"/><path d="M66.06,11.59V-50.86H54.93V9.3Z" style="fill:#184c2d"/><circle cx="60.55" cy="1.25" r="1.3" style="fill:#ddd6d0"/><g style="opacity:0.34"><path d="M9.93,2.49c3.2-22,11.26-37.14,20.51-46.5.9-.94,1.84-1.81,2.77-2.63A50.08,50.08,0,0,1,37.5-50a36.54,36.54,0,0,1,11.13-5.28l0,0L50-55.57h0c.13,0,.85-.15,1.54-.25v-.39a18.58,18.58,0,0,0-1.92.23,28.7,28.7,0,0,0-6,1.57,36.83,36.83,0,0,0-4,1.77c-13.39,7-27.52,24.38-32.15,55Z" style="fill:#d8d8d8"/></g><g style="opacity:0.32"><path d="M73.34-53.83a.42.42,0,0,1,.13.07h0a44.33,44.33,0,0,1,11.32,8.13c.13.11.26.25.39.38,11.14,11.05,20.65,30.4,22.16,60l5.07-.25C110.2-22.42,95.33-43.06,80.8-51.39a36.67,36.67,0,0,0-4-2c-.21-.1-.43-.18-.64-.26,0,0,0,0,0,0a28.81,28.81,0,0,0-7.37-3.19c-.28,0-.54-.07-.82-.09l-.08,1c.37.1.73.21,1.11.34A31.16,31.16,0,0,1,73.34-53.83Z" style="fill:#111"/></g></g><g style="clip-path:url(#clip-path-2)"><circle cx="60" cy="60" r="60" transform="translate(-12.4 104.25) rotate(-76.43)" style="fill:none"/><path d="M60.37,88h0Z" style="fill:#50891f"/><path d="M78.45,78v6.49H74.26a15.25,15.25,0,0,0-2.64.22h0a16.37,16.37,0,0,0-8,3.78H57.2a16.37,16.37,0,0,0-8-3.78h0a15.42,15.42,0,0,0-2.64-.22H42.32V78c.09-.1.19-.21.3-.31a.91.91,0,0,1,.24-.24,6,6,0,0,1,.43-.44,17.52,17.52,0,0,1,1.43-1.29c.56-.45,1.13-.88,1.72-1.3l0,0h0l.56-.1c.37-.07.64-.35,1-.42a3.13,3.13,0,0,1,.51,0h0l.3,0c1.2-.09,3.3-.14,3.95-.16h.26v.05l.21.51,1,2.33,6.11.21h0l6.1-.21.77-1.79h0l.22-.54.21-.51v-.05H68c.7,0,3.11.09,4.24.18h0a3.13,3.13,0,0,1,.51,0c.34.07.62.35,1,.42l.55.1h0l0,0c.59.42,1.16.85,1.72,1.3a18.83,18.83,0,0,1,1.48,1.34c.12.12.26.25.38.39a1.09,1.09,0,0,1,.24.24C78.26,77.83,78.36,77.94,78.45,78Z" style="fill:#e8e9ea"/><path d="M70.75,84.14s0,0,0,0c.25.16.51.35.79.54,0,0,0,0,0,0h0a45.16,45.16,0,0,1,7.89,7.39,55.45,55.45,0,0,1,4.12,5.58l.07.12c4.48,6.94,8.76,16.74,11,30.33,4.2.63,8.39,1.34,12.58,2.08-2.55-19.44-8.86-32.89-15.4-41.92-.26-.38-.54-.74-.82-1.11A60,60,0,0,0,86,81.28c-.33-.35-.66-.68-1-1s-.71-.73-1.08-1.06a1,1,0,0,1-.17-.18,26.68,26.68,0,0,0-5.78-3.23,25.8,25.8,0,0,0-5.19-1.88,3.13,3.13,0,0,0-.51,0l-.64,1.46-.82,1.8-.21.47v0l-.91,2-1.41,3.07a.07.07,0,0,1,.05,0A21.9,21.9,0,0,1,70.75,84.14Z" style="fill:#e8e9ea"/><path d="M25.49,132.28c2-15.75,6.66-26.83,11.58-34.44l.07-.12a55.45,55.45,0,0,1,4.12-5.58,45.16,45.16,0,0,1,7.89-7.39h0l0,0,.78-.54s0,0,0,0a23.23,23.23,0,0,1,2.45-1.42s0,0,.06,0l-1.41-3.07-.91-2v0L50,77.15,48.72,74.3l-.19-.41a3.13,3.13,0,0,0-.51,0,11.83,11.83,0,0,0-2.19.64l-.15.06a4,4,0,0,1-.44.17.73.73,0,0,1-.19.07l-2.23.94c-.88.4-1.77.82-2.6,1.25-.28.14-.54.28-.8.44s-.53.27-.75.41-.52.33-.75.49a2.86,2.86,0,0,0-.4.28c-.21.15-.4.31-.56.45l-.05,0,0,0C27.54,88,15.11,105.5,12.73,137.8A99.44,99.44,0,0,1,25.49,132.28Z" style="fill:#e8e9ea"/><path d="M36.93,87.2v8.59c0,.66.09,1.36.14,2,.09,1.47.19,3,.31,4.53.89,11.57,2.28,24.35,2.28,24.35l-.07.35a6.15,6.15,0,0,1,1.7-.22l1.64.81a125.72,125.72,0,0,1,25.4-2c4.29.1,8.55.4,12.81.81.18-1.75,1.43-13.43,2.25-24.11.12-1.55.22-3.06.31-4.53,0-.69.1-1.39.14-2V87.2l0-2.71,0-5.28,0,0-.06,0A10.46,10.46,0,0,0,82.2,78a40.11,40.11,0,0,0-4.26-2.17c0,.47,0,1,0,1.67,0,2.73.26,6.36.26,6.36H74a14.84,14.84,0,0,0-1.53.07l-.85.11h-.07l-.21,0-.3,0c-.08,0-.19,0-.28,0a1.27,1.27,0,0,0-.26,0h-.08a2.63,2.63,0,0,0-.3.09,16.41,16.41,0,0,0-6.92,3.53H57.57a16.54,16.54,0,0,0-5-2.9,3.8,3.8,0,0,0-.47-.18s0,0-.08,0a.8.8,0,0,0-.2-.07,4.47,4.47,0,0,0-.81-.25,3.89,3.89,0,0,1-.4-.1c-.11,0-.21-.07-.32-.09h-.06a1.26,1.26,0,0,0-.27,0,2.56,2.56,0,0,0-.27,0l-.3,0-.21,0h-.07l-.85-.11a12.55,12.55,0,0,0-1.41-.07H42.6s.21-3.2.26-5.86v-.48c0-.63,0-1.22,0-1.69A25.66,25.66,0,0,0,37,79.12l-.05,0,0,0,0,5.28Z" style="fill:#af36b2"/><g style="opacity:0.46"><path d="M15.64,136.35c2.41-28.22,12.55-44.93,21.26-54.22.93-1,1.86-1.93,2.74-2.77l0,0,0,0a14.68,14.68,0,0,1,3.13-2,3.55,3.55,0,0,1,.43-.23c.73-.38,1.53-.75,2.3-1.09,1.09-.47,3.13-1.66,3.13-1.66l.12-.43-.3,0h0a3.13,3.13,0,0,0-.51,0,11.83,11.83,0,0,0-2.19.64l-.15.06a4,4,0,0,1-.44.17.73.73,0,0,1-.19.07c-.77.28-1.62.63-2.49,1a33.71,33.71,0,0,0-3.89,2c-.28.16-.52.33-.75.49a2.86,2.86,0,0,0-.4.28c-.21.15-.4.31-.56.45l-.05,0,0,0C27.54,88,15.11,105.5,12.73,137.8,13.69,137.3,14.66,136.82,15.64,136.35Z" style="fill:#fff"/></g><g style="opacity:0.17"><path d="M77.53,77.1a16.66,16.66,0,0,1,3.37,2.14l0,.05,0,0c8.52,8,19.61,23.26,23.3,50.4l3,.52c-2.55-19.44-8.86-32.89-15.4-41.92-.26-.38-.54-.74-.82-1.11A60,60,0,0,0,86,81.28c-.33-.35-.66-.68-1-1s-.64-.65-1-.94l0,0,0-.05s0,0,0,0a1,1,0,0,1-.17-.18,26.68,26.68,0,0,0-5.78-3.23,25.8,25.8,0,0,0-5.19-1.88,3.13,3.13,0,0,0-.51,0h0c-1.13-.09-3.54-.16-4.24-.18h-.26v.05l-.21.51-.22.54c.94.15,2.69.35,4.31.54A30.68,30.68,0,0,1,77.53,77.1Z" style="fill:#262626"/></g><path d="M70,77.16a4.07,4.07,0,0,0-1.36-2.88,7.74,7.74,0,0,0-2.23-2.13,16.31,16.31,0,0,0-5.32-.85c-.23,0-.45,0-.68,0h0c-.23,0-.46,0-.68,0a16.26,16.26,0,0,0-5.32.85c-.84.28-2.24,2.13-2.24,2.13h0a4.11,4.11,0,0,0-1.36,2.88c0,3.09,4.24,5.65,9.59,5.84h0C65.73,82.81,70,80.25,70,77.16Z" style="fill:#ea9b65"/><ellipse cx="61.24" cy="36.1" rx="25" ry="26.14" style="fill:#262626"/><polygon points="86.25 32.97 86.25 64.82 36.25 64.82 36.25 34.8 36.28 34.8 40.84 34.62 77.64 33.28 80.41 33.18 86.08 32.97 86.25 32.97" style="fill:#262626"/><rect x="36.25" y="64.82" width="50" height="6.02" style="fill:#af36b2"/><path d="M82.3,70.84H40.18V49.28a9,9,0,0,1,.2-1.88,8.31,8.31,0,0,1,1-2.59,10.13,10.13,0,0,1,.76-1.13l.27-.28a8.38,8.38,0,0,1,1.49-1.35,8.84,8.84,0,0,1,3.69-1.5,8.75,8.75,0,0,1,.88-.09h.19l.89,0,4.57-.17,1,0,.85,0h0l9.7-.35,1.13,0s0,0,0,0l4.54-.18,1.14,0,.28,0a8.76,8.76,0,0,1,6,2.07,1.77,1.77,0,0,1,.16.14,9,9,0,0,1,1.51,1.68,2.54,2.54,0,0,0,.16.28,7.91,7.91,0,0,1,.81,1.62v0s0,0,0,.07a8.92,8.92,0,0,1,.5,2.84l0,2.29v.05l0,1.71.15,12.48Z" style="fill:#111"/><path d="M68.17,52.25V74.78c0,3.69-3.32,6.72-7.41,6.77h-.1c-4.49,0-8.16-3.31-8.14-7.37v-22a6,6,0,0,1,.21-1.58,3.81,3.81,0,0,1,.19-.57v0a2.66,2.66,0,0,1,.3-.64,7.08,7.08,0,0,1,3.47-3.24,5.32,5.32,0,0,1,.66-.26,2.51,2.51,0,0,1,.61-.17,7.25,7.25,0,0,1,2-.28h.66a7.87,7.87,0,0,1,2.77.49,5.44,5.44,0,0,1,.66.28,5.06,5.06,0,0,1,.73.38h0a7.29,7.29,0,0,1,2.47,2.5v0a5.28,5.28,0,0,1,.38.75h0a6.26,6.26,0,0,1,.21.61v0A5.88,5.88,0,0,1,68.17,52.25Z" style="fill:#ea9b65"/><polygon points="68.18 64.26 68.16 71.33 52.52 68.38 52.52 63.47 68.18 64.26" style="fill:#e27954"/><rect x="52.52" y="69.53" width="15.65" height="2.63" style="fill:#262626"/><path d="M44.91,47.28A4.29,4.29,0,1,1,40.62,43,4.28,4.28,0,0,1,44.91,47.28Z" style="fill:#ffb380"/><path d="M43.24,47.28a2.62,2.62,0,1,1-2.62-2.61A2.62,2.62,0,0,1,43.24,47.28Z" style="fill:#e27954"/><path d="M85.33,48.1A4.38,4.38,0,1,1,81,43.72,4.38,4.38,0,0,1,85.33,48.1Z" style="fill:#ffb380"/><path d="M83.88,48.1a2.67,2.67,0,1,1-2.67-2.67A2.66,2.66,0,0,1,83.88,48.1Z" style="fill:#e27954"/><path d="M81.65,42.13c0,14.5-9.34,26.25-20.85,26.25a13.07,13.07,0,0,1-1.39-.07C48.55,67.42,40,56,40,42.13S48.55,16.84,59.41,16c.47,0,.93-.06,1.39-.06C72.31,15.89,81.65,27.64,81.65,42.13Z" style="fill:#ea9b65"/><path d="M78.87,42.13c0,13.91-8.59,25.29-19.46,26.18C48.55,67.42,40,56,40,42.13S48.55,16.84,59.41,16C70.28,16.84,78.87,28.22,78.87,42.13Z" style="fill:#ffb380"/><path d="M53.36,44.54a1.22,1.22,0,1,1-1.22-1.22A1.22,1.22,0,0,1,53.36,44.54Z" style="fill:#363b4f"/><path d="M70.68,44.54a1.22,1.22,0,1,1-1.22-1.22A1.22,1.22,0,0,1,70.68,44.54Z" style="fill:#363b4f"/><path d="M62.4,50.78H58.81a1,1,0,0,1-1-1h0a1,1,0,0,1,1-1H62.4a1,1,0,0,1,1,1h0A1,1,0,0,1,62.4,50.78Z" style="fill:#e27954"/><path d="M54.82,36.9h-5.6a.81.81,0,0,1-.81-.8h0a.82.82,0,0,1,.81-.81h5.6a.81.81,0,0,1,.8.81h0A.8.8,0,0,1,54.82,36.9Z" style="fill:#c17542"/><path d="M72.26,36.9H66.67a.8.8,0,0,1-.81-.8h0a.81.81,0,0,1,.81-.81h5.59a.81.81,0,0,1,.81.81h0A.8.8,0,0,1,72.26,36.9Z" style="fill:#c17542"/><path d="M46.65,44.61l-6.52-1.35a1,1,0,0,1-.77-1.16h0a1,1,0,0,1,1.16-.76L47,42.69Z" style="fill:#af36b2"/><path d="M75,44.61l6.52-1.35a1,1,0,0,0,.76-1.16h0a1,1,0,0,0-1.16-.76l-6.52,1.35Z" style="fill:#af36b2"/><rect x="57.07" y="44.09" width="6.83" height="1.18" style="fill:#af36b2"/><g style="opacity:0.22"><circle cx="52.02" cy="44.67" r="5.48" style="fill:#fff"/></g><g style="opacity:0.22"><path d="M74.82,44.67a5.48,5.48,0,1,1-5.48-5.48A5.47,5.47,0,0,1,74.82,44.67Z" style="fill:#fff"/></g><path d="M52,39.75a4.92,4.92,0,1,0,4.91,4.91A4.92,4.92,0,0,0,52,39.75Zm0,11a6,6,0,1,1,6-6A6,6,0,0,1,52,50.7Z" style="fill:#af36b2"/><path d="M69.34,50.7a6,6,0,1,1,6-6A6,6,0,0,1,69.34,50.7Zm0-11a4.92,4.92,0,1,0,4.92,4.91A4.93,4.93,0,0,0,69.34,39.75Z" style="fill:#af36b2"/><path d="M63.51,59.58H59a1,1,0,0,1-.95-1h0a1,1,0,0,1,.95-.95h4.53a1,1,0,0,1,.95.95h0A1,1,0,0,1,63.51,59.58Z" style="fill:#bc3939"/><path d="M63.94,58.21h-5.4a1,1,0,0,1-.95-1h0a.95.95,0,0,1,.95-.95h5.4a1,1,0,0,1,1,.95h0A.94.94,0,0,1,63.94,58.21Z" style="fill:#d84a4a"/><path d="M55.85,13.87h9.27a11.3,11.3,0,0,1,11.3,11.3v6.27a0,0,0,0,1,0,0H44.55a0,0,0,0,1,0,0V25.17a11.3,11.3,0,0,1,11.3-11.3Z" style="fill:#262626"/><polygon points="50.44 31.94 52.51 27.1 54.57 32.41 50.44 31.94" style="fill:#ffb380"/><polygon points="59.17 31.94 61.24 27.1 63.31 32.41 59.17 31.94" style="fill:#ffb380"/><polygon points="67.91 31.94 69.98 27.1 72.05 32.41 67.91 31.94" style="fill:#ffb380"/><g style="opacity:0.7000000000000001"><g style="opacity:0.54"><path d="M46.41,17a1.47,1.47,0,0,0,1.78,2.3,14.6,14.6,0,0,1,6.15-2.16c4.5-.37,4.76-2.87,4.06-4S50.88,12,46.41,17Z" style="fill:#fff"/></g><g style="opacity:0.81"><path d="M44.85,20.75c.58.19-.22,2.18-1.16,2.93-.48.37-1.62.79-2,.33S42.9,20.09,44.85,20.75Z" style="fill:#fff"/></g></g><path d="M79.56,79.17l0,0,0,5.28,0,2.71v8.59c0,.66-.08,1.36-.14,2-.08,1.47-.19,3-.31,4.53-.77,10.09-1.93,21.09-2.21,23.75q2.13.15,4.26.36c.18-1.75,1.43-13.43,2.25-24.11.12-1.55.22-3.06.31-4.53,0-.69.1-1.39.14-2V87.2l0-2.71,0-5.28,0,0-.06,0a25.22,25.22,0,0,0-5.86-3.32c0,.47,0,1,0,1.67V78a10.46,10.46,0,0,1,1.6,1.15Z" style="fill:#8c2c93"/></g></svg>