<svg id="Avatars" xmlns="http://www.w3.org/2000/svg" xmlns:xlink="http://www.w3.org/1999/xlink" viewBox="0 0 120 120"><defs><clipPath id="clip-path"><circle cx="60" cy="60" r="60" transform="translate(-18 26.6) rotate(-21.82)" style="fill:none"/></clipPath><clipPath id="clip-path-2"><circle cx="60" cy="-74.67" r="60" style="fill:none"/></clipPath></defs><title>avatar</title><g style="clip-path:url(#clip-path)"><circle cx="60" cy="60" r="60" transform="translate(-18 26.6) rotate(-21.82)" style="fill:none"/><path d="M59.64,74.33,30.87,115,8,103.07l15-15.7A43.55,43.55,0,0,1,54.4,74,40.07,40.07,0,0,1,59.64,74.33Z" style="fill:#edebeb"/><path d="M100.42,116.37c-8.53,4.39-16.6,5.71-18,2.94s4.34-8.57,12.87-13,16.53-5.67,18-2.95C114.28,105.22,109,112,100.42,116.37Z" style="fill:#a3a8a5"/><path d="M91.84,113.13c.69,1.47,1.36,3.05,2,4.69,3.71,9.61,6.22,22.12,6.35,38a68.25,68.25,0,0,1,13.1,1.46c0-18.53-3-33.45-7.72-45.12-.64-1.62-1.31-3.18-2-4.67-9.5-20-24.15-29.17-35.43-30l-1,13.08C74,91.09,84.5,97.6,91.84,113.13Z" style="fill:#ffb380"/><path d="M105.57,112.18l-12.31,4.28c-.64-1.64-.73-1.86-1.42-3.33l11.7-5.62C104.26,109,104.93,110.56,105.57,112.18Z" style="fill:#e27954"/><path d="M25.8,107c8.31,4.79,13.78,10.87,12.23,13.56s-9.55,1-17.86-3.81S6.45,105.87,7.94,103.14C8.92,101.32,17.49,102.15,25.8,107Z" style="fill:#a3a8a5"/><path d="M19.7,158.64c-.17-17.43,2.48-30.92,6.48-41.14q1-2.44,2-4.67C35.52,97.51,46,91.09,52.73,90.6l-.95-13.08c-11.29.82-25.93,10-35.43,30-.7,1.49-1.39,3-2,4.65C9.48,124.18,6.43,139.63,6.6,159A53.67,53.67,0,0,1,19.7,158.64Z" style="fill:#ffb380"/><path d="M28.51,112.14c-.71,1.47-1,2.09-1.61,3.73l-12.27-4.44c.64-1.6,1.32-3.16,2-4.65Z" style="fill:#e27954"/><path d="M63.92,75.05,34.36,116.82,8,103.08H8l15-15.7A43.55,43.55,0,0,1,54.4,74a40.07,40.07,0,0,1,5.24.33A42.47,42.47,0,0,1,63.92,75.05Z" style="fill:#edebeb"/><path d="M113.06,103.08,90.91,114.62l-.18.1-4,2.1-2.21-3.13L74.77,100l-5.21-7.38L57.12,75.05a46.33,46.33,0,0,1,5.19-.84A41.59,41.59,0,0,1,66.62,74a39.84,39.84,0,0,1,4.51.25,36.52,36.52,0,0,1,5.21.86,42.56,42.56,0,0,1,4.28,1.22A40.84,40.84,0,0,1,88,79.62a43.09,43.09,0,0,1,10,7.75Z" style="fill:#edebeb"/><path d="M31.93,159.4l0,1.38c1.73.31,3.45.63,5.18.92a130.19,130.19,0,0,0,21.54.15c10.53-1.92,21.09-4.55,31.74-5.58l.36-41.55.08-11,0-1.49a29.5,29.5,0,0,0-5.72-17.51,27.3,27.3,0,0,0-3-3.53,30.31,30.31,0,0,0-3-2.64c-.49-.36-1-.72-1.49-1a28,28,0,0,0-6.42-3,30.15,30.15,0,0,0-10.1-2,29.74,29.74,0,0,0-29.76,29.74L32.69,147Z" style="fill:#edebeb"/><rect x="37.39" y="100.93" width="47.06" height="13.17" style="fill:#303030"/><path d="M88,79.62c-.06.66-12.27,19-12.27,19l-1,1.41L54.92,129.27s-21.53,30.25-23,30.13l.76-12.4L69.56,92.61l9.52-14.06,1.23-1.81a2.45,2.45,0,0,1,.31-.41A40.84,40.84,0,0,1,88,79.62Z" style="fill:#1e633b"/><path d="M42.4,113.23H80.75a0,0,0,0,1,0,0v8.08A14.54,14.54,0,0,1,66.2,135.86H56.95A14.54,14.54,0,0,1,42.4,121.32v-8.08a0,0,0,0,1,0,0Z" transform="matrix(0.56, -0.83, 0.83, 0.56, -76.07, 105.65)" style="fill:#237a4b"/><path d="M52.12,133a.53.53,0,0,1-.34-.11.62.62,0,0,1-.17-.86L65,112.2a.62.62,0,1,1,1,.7L52.64,132.7A.64.64,0,0,1,52.12,133Z" style="fill:#2b2b2b"/><path d="M56.31,136.29a.6.6,0,0,1-.34-.11.62.62,0,0,1-.17-.86l13.41-19.8a.63.63,0,0,1,.86-.17.62.62,0,0,1,.17.86L56.83,136A.63.63,0,0,1,56.31,136.29Z" style="fill:#2b2b2b"/><rect x="64.49" y="111.72" width="2.1" height="5.09" rx="0.8" style="fill:#bcbcbc"/><rect x="68.67" y="115" width="2.1" height="5.09" rx="0.8" style="fill:#bcbcbc"/><g style="opacity:0.37"><path d="M63.92,75.06l-.79,1.12a40.07,40.07,0,0,0-5.24-.33A43.55,43.55,0,0,0,26.51,89.22l-15,15.7L8,103.08,23,87.39A43.49,43.49,0,0,1,54.4,74,44.09,44.09,0,0,1,63.92,75.06Z" style="fill:#fff"/></g><g style="opacity:0.16"><path d="M108.75,105.33l4.33-2.24L98,87.38a43,43,0,0,0-10-7.75,40.19,40.19,0,0,0-7.37-3.3c-1.4-.47-2.84-.88-4.28-1.21a36.55,36.55,0,0,0-5.21-.87c-1.49-.16-2.62-1.11-4.12-1.11-3.17,0-6.73,1.21-9.89,1.91l.9,1.28a41.46,41.46,0,0,1,4.31-.21,42.3,42.3,0,0,1,4.51.24,38.27,38.27,0,0,1,5.21.87,41.64,41.64,0,0,1,4.27,1.22,40.93,40.93,0,0,1,7.38,3.29,43.3,43.3,0,0,1,10,7.75Z" style="fill:#212121"/></g><rect x="52.21" y="59.89" width="17.71" height="25.19" rx="6.36" transform="translate(2.71 -2.2) rotate(2.11)" style="fill:#e29764"/><polygon points="52.12 66.37 70.1 69.39 69.82 77.03 52.18 74.68 52.12 66.37" style="fill:#e27954"/><path d="M62.37,69C48,69.55,35.8,57.67,35.2,42.46A28.2,28.2,0,0,1,41.81,23a25.35,25.35,0,0,1,18.36-9.11c11.91-.46,22.29,7.56,25.87,19a28.77,28.77,0,0,1,1.31,7.55C88,55.6,76.78,68.4,62.37,69Z" style="fill:#724921"/><path d="M43.2,48a5,5,0,1,1-4-5.9A5,5,0,0,1,43.2,48Z" style="fill:#ffb380"/><path d="M41.17,47.54a2.94,2.94,0,1,1-2.32-3.45A2.94,2.94,0,0,1,41.17,47.54Z" style="fill:#e27954"/><path d="M89.19,47.76a5,5,0,1,1-4-5.89A5,5,0,0,1,89.19,47.76Z" style="fill:#ffb380"/><path d="M87.16,47.36a2.95,2.95,0,1,1-2.32-3.46A3,3,0,0,1,87.16,47.36Z" style="fill:#e27954"/><path d="M85,46.32s0,0,0,0c-.09,1.07-.22,2.12-.4,3.16-.12.72-.27,1.42-.42,2.11a32.14,32.14,0,0,1-2.62,7.26s0,0,0,0a25.78,25.78,0,0,1-10.1,11c-.41.23-.83.44-1.25.63a19.36,19.36,0,0,1-7.67,1.94,16.32,16.32,0,0,1-2.1,0,20.43,20.43,0,0,1-7.43-2c-.23-.12-.46-.23-.68-.36a26.23,26.23,0,0,1-9.83-9.57s0,0,0,0a32.35,32.35,0,0,1-4-10.25c-.16-.69-.31-1.39-.41-2.1a35.61,35.61,0,0,1-.43-4.29c0-.42,0-.86,0-1.28s0-1,0-1.4a0,0,0,0,1,0-.05,4.57,4.57,0,0,1,0-.64c.53-10.62,5.63-19.7,12.93-24.19,0,0,0,0,0,0,2.75-1.65,6.17.27,9.42.05.17,0,.09-.34.27-.35,3.4-.14,6.54-2,9.53-.53h0c8.52,4.24,14.78,14.42,15.25,26.51v.15c0,.73,0,1.45,0,2.17S85.05,45.64,85,46.32Z" style="fill:#ea9b65"/><path d="M82.42,44.23c0,.7,0,1.41-.09,2.09h0c-.09,1.07-.23,2.12-.4,3.16-.13.72-.26,1.42-.42,2.11a32.12,32.12,0,0,1-2.61,7.26s0,0,0,0C76.47,63.68,68.71,73,60.42,72.43a20.43,20.43,0,0,1-7.43-2c-.23-.12-.46-.23-.68-.36a26.23,26.23,0,0,1-9.83-9.57s0,0,0,0a32.35,32.35,0,0,1-4-10.25c-.16-.69-.31-1.39-.41-2.1a35.61,35.61,0,0,1-.43-4.29c0-.42,0-.86,0-1.28s0-1,0-1.4a0,0,0,0,1,0-.05,4.57,4.57,0,0,1,0-.64c.53-10.62,5.63-19.7,12.93-24.19,0,0,0,0,0,0,2.75-1.65,6.8-.23,10-.45,2.63.19,4.16-1.55,6.5-.38h0c8.51,4.24,14.78,14.42,15.24,26.51v.15C82.43,42.79,82.43,43.51,82.42,44.23Z" style="fill:#ffb380"/><path d="M45.13,41.7a.38.38,0,0,1-.13-.09.92.92,0,0,1-.13-1.29c.18-.22,4.52-5.35,13.23-1.67a.92.92,0,0,1-.72,1.7c-7.39-3.12-10.93,1-11.08,1.14A.92.92,0,0,1,45.13,41.7Z" style="fill:#724921"/><path d="M77.38,41.41a1,1,0,0,1-1,0c-6.72-4.36-10.93-1-11.1-.8A.94.94,0,0,1,64,40.47a.93.93,0,0,1,.11-1.3c.21-.18,5.38-4.48,13.31.66a.92.92,0,0,1-.05,1.58Z" style="fill:#724921"/><path d="M62.45,61.56h-.58a21.89,21.89,0,0,1-8.78-1.94.46.46,0,0,1,.43-.81,21.72,21.72,0,0,0,8.39,1.82,16.79,16.79,0,0,0,6.37-1.2c.65-.22,1.33-.44,2.07-.66a.46.46,0,0,1,.57.31.47.47,0,0,1-.31.58c-.72.21-1.39.43-2,.65A18.49,18.49,0,0,1,62.45,61.56Z" style="fill:#e27954"/><path d="M61.8,63.68a6.72,6.72,0,0,1-3.61-.91.23.23,0,1,1,.26-.38s2.64,1.75,6.93.13a.22.22,0,0,1,.3.13.23.23,0,0,1-.13.3A10.49,10.49,0,0,1,61.8,63.68Z" style="fill:#e27954"/><path d="M63.65,54.66H59.39a1.09,1.09,0,0,1-1.09-1.09h0a1.09,1.09,0,0,1,1.09-1.09h4.26a1.09,1.09,0,0,1,1.09,1.09h0A1.09,1.09,0,0,1,63.65,54.66Z" style="fill:#e27954"/><path d="M54,46.63a1.24,1.24,0,1,1-1.24-1.24A1.24,1.24,0,0,1,54,46.63Z" style="fill:#2d2012"/><path d="M71.51,46.63a1.24,1.24,0,1,1-1.24-1.23A1.24,1.24,0,0,1,71.51,46.63Z" style="fill:#2d2012"/><path d="M87.22,41.42c-3.1,2.52-6.28-4.06-7.93-7.47l-.11-.16A16.54,16.54,0,0,0,65.44,26l-6.88-.15C42,25.6,40,44.48,36.92,41.71c0,0-3.35-5.21,4.22-17.67.23-.36.44-.72.67-1.06a25.35,25.35,0,0,1,18.36-9.11c11.91-.46,22.29,7.56,25.87,19,.33,1.3.54,2.47.79,3.6h0v.13A15.51,15.51,0,0,1,87.22,41.42Z" style="fill:#724921"/><path d="M54.49,22.39s5.21,6.84,13.17,9.78a14.66,14.66,0,0,0,15-2.35L68.09,18Z" style="fill:#2d2012"/><path d="M86.75,35.69h-51a25.34,25.34,0,0,1,24-25.33h0c.45,0,.87,0,1.32,0h.29A25.37,25.37,0,0,1,86.75,35.69Z" style="fill:#282828"/><g style="opacity:0.13"><path d="M62.71,10.36a25.34,25.34,0,0,0-24,25.33H35.74A25.35,25.35,0,0,1,61.1,10.32h.3C61.84,10.32,62.26,10.34,62.71,10.36Z" style="fill:#fff"/></g><g style="opacity:0.6000000000000001"><path d="M59.77,10.36a25.16,25.16,0,0,1,16.6,7.39c4.59,4.6,5.25,10.93,5.25,17.94h5.13A25.37,25.37,0,0,0,61.38,10.32h-.29C60.64,10.32,60.22,10.34,59.77,10.36Z"/></g><path d="M59.35,24.41h3.78a5,5,0,0,1,5,5V31a0,0,0,0,1,0,0H54.32a0,0,0,0,1,0,0v-1.6A5,5,0,0,1,59.35,24.41Z" style="fill:#724921"/><path d="M57.37,31H68.14a0,0,0,0,1,0,0v4.64a0,0,0,0,1,0,0H57.37a1.76,1.76,0,0,1-1.76-1.76V32.8A1.76,1.76,0,0,1,57.37,31Z" style="fill:#e54a4a"/><path d="M60.48,33.36a1,1,0,1,1-1-1A1,1,0,0,1,60.48,33.36Z" style="fill:#1e1e1e"/><path d="M65,33.36a1,1,0,1,1-1-1A1,1,0,0,1,65,33.36Z" style="fill:#1e1e1e"/><path d="M54.32,31S45.46,26.11,50,19.58c0,0,7.07,5.94,9.49,5s5.43,6.21,5.43,6.21Z" style="fill:#724921"/><path d="M58,31s-6-3-1.46-9.56c0,0,4,3.28,6.38,4.24,3.18,1.26,3.16,5.14,3.16,5.14Z" style="fill:#724921"/><polygon points="62.97 102.33 71.86 104.28 69.59 107.62 62.97 102.33" style="fill:#144929"/></g><g style="clip-path:url(#clip-path-2)"><path d="M89.92-22c4.31,9.92,7.44,23.52,7,41.91,0,.45,0,.9,0,1.35q5.16,2.43,10.16,5.24l1.78.11c.07-1.1.12-2.17.15-3.24h0c0-.32,0-.61,0-.92,0-.86.07-1.69.08-2.53.46-21.4-3.51-37.24-8.9-48.82-.57-1.23-1.16-2.4-1.77-3.53a69.48,69.48,0,0,0-5.62-8.93A39.21,39.21,0,0,1,87.54-30.6a6.67,6.67,0,0,1-1.31,1.29c.68,1.17,1.36,2.4,2,3.7C88.82-24.48,89.38-23.28,89.92-22Z" style="fill:#ffb380"/><path d="M110.48,28.46l0-.85a7.4,7.4,0,0,0-7.52-7.25h-.79A7.31,7.31,0,0,0,98,21.76C102.27,23.8,106.42,26.06,110.48,28.46Z" style="fill:#ffb380"/><path d="M9.55,17.83A93.18,93.18,0,0,1,21.72,13.3C22-2.2,25-14,28.81-22.81c.55-1.25,1.11-2.45,1.68-3.58,7.77-15.23,18-20.29,19.09-20.79l.06,0L47.2-52.76l-2.4-5.6c-.94.4-14.43,6.45-24.44,25.17-.61,1.13-1.2,2.3-1.76,3.53C13.63-19.12,9.86-5,9.54,13.55c0,.83,0,1.67,0,2.52,0,.42,0,.83,0,1.25C9.54,17.49,9.55,17.66,9.55,17.83Z" style="fill:#ffb380"/><path d="M20.91,13.56H9.54c0,.83,0,1.67,0,2.52H13.7Q17.26,14.67,20.91,13.56Z" style="fill:#e22b87"/><path d="M78.13,13.87c3,.93,5.92,2,8.83,3.11l-1.84-6.53,0,0c-.52-1-9-16.83-22.37-18.11-7.95-.77-15.16,4.85-20,10a57.68,57.68,0,0,0-6.19,7.89A98.28,98.28,0,0,1,78.13,13.87Z" style="fill:#2b2b2b"/><path d="M38.87-7,36.34,10.24a98.16,98.16,0,0,1,26.9.25l21.88,0,0,0L81.49-7.4l1.25-13,1.72-18A24.72,24.72,0,0,0,83-46.07a22.69,22.69,0,0,0-9.46-11.82v0a25,25,0,0,0-12-3.7,2.88,2.88,0,0,0-.41,0h0c-.49,0-1,0-1.46,0h-.54l-1.58-.08A26.06,26.06,0,0,0,46-58.67l-.19.1a22.73,22.73,0,0,0-5.13,3.81,22.79,22.79,0,0,0-5.06,7.18,24.44,24.44,0,0,0-2.09,10.83l3.1,17.13Z" style="fill:#edebeb"/><path d="M99.33,22.41H109c0-.85.06-1.69.08-2.52H97c0,.45,0,.9,0,1.35C97.72,21.62,98.52,22,99.33,22.41Z" style="fill:#2b2b2b"/><g style="opacity:0.16"><path d="M79.91,10.43l0,.05,1.24,4.41c1.94.65,3.87,1.34,5.77,2.08l-1.83-6.49L81.48-7.37l.94-9.84,0,0a8,8,0,0,0-2.62,2.61A16.37,16.37,0,0,0,77.37-2.07Z"/></g></g></svg>