<svg id="Avatars" xmlns="http://www.w3.org/2000/svg" xmlns:xlink="http://www.w3.org/1999/xlink"
    viewBox="0 0 120 120">
    <defs>
        <clipPath id="clip-path">
            <circle cx="200" cy="60" r="60" transform="translate(109.19 248.03) rotate(-80.92)"
                style="fill:none" />
        </clipPath>
        <clipPath id="clip-path-2">
            <path
                d="M147,170.15c-3.93-63.82,25.42-89.85,44.84-91.26L192.78,92c-12.17.89-36.18,21-32.7,77.39Z"
                style="fill:none" />
        </clipPath>
        <clipPath id="clip-path-3">
            <circle cx="60" cy="60" r="60" transform="translate(-8.76 109.73) rotate(-80.88)"
                style="fill:none" />
        </clipPath>
    </defs>
    <title>avatar</title>
    <g style="clip-path:url(#clip-path)">
        <g style="clip-path:url(#clip-path-2)">
            <rect x="108.19" y="90.28" width="88.72" height="3.6"
                transform="translate(3.78 -5.99) rotate(2.28)" style="fill:#184c2d" />
            <rect x="107.67" y="103.32" width="88.72" height="3.6"
                transform="translate(4.29 -5.95) rotate(2.28)" style="fill:#184c2d" />
            <rect x="107.15" y="116.37" width="88.72" height="3.6"
                transform="translate(4.81 -5.92) rotate(2.28)" style="fill:#184c2d" />
        </g>
    </g>
    <g style="clip-path:url(#clip-path-3)">
        <circle cx="60" cy="60" r="60" transform="translate(-8.76 109.73) rotate(-80.88)"
            style="fill:none" />
        <path d="M84.23,105.09H58V43.51L80.88,38c.53.41,3.35,8,3.35,11.1Z" style="fill:#212121" />
        <path d="M79.54,103.47H62.64V54.38L77.38,50a32.29,32.29,0,0,1,2.16,8.85Z" />
        <path
            d="M84.72,117c4.55,7,8.78,17,10.76,30.79,3.27-.05,6.54,0,9.8.1.84,0,1.68.11,2.51.17-4.26-33.9-20.94-49.16-29.35-54.8l0,0c-1-.68-1.93-1.22-2.68-1.63-1.18-.66-1.95-1-2.15-1.1L72.93,92l-4.21,9.7C69.37,102,77.42,105.77,84.72,117Z"
            style="fill:#edebeb" />
        <path d="M49,101.18l-.05,0-2.38-5.6Z" style="fill:#a89898" />
        <path
            d="M24.66,151.38C26.37,135.66,31,124.58,35.9,117c7.13-11,15-14.84,15.91-15.27l0,0-2.31-5.23-.14-.33-2.23-5.18L47,90.52c-.21.09-1,.44-2.19,1.11-.51.28-1.08.63-1.72,1a57.37,57.37,0,0,0-15,14.22c-.14.18-.28.37-.4.56a73.3,73.3,0,0,0-8.48,15.28c-.11.23-.19.45-.28.68a102.3,102.3,0,0,0-6.77,30.29A48.87,48.87,0,0,1,24.66,151.38Z"
            style="fill:#edebeb" />
        <path d="M48.52,103.47h0Z" style="fill:#50891f" />
        <path
            d="M40.26,139.71l-1.45,11.1c13.35-.67,26.68-1.72,40-2.38l4-.19c-1.07-4.38-1.95-7.77-1.95-7.77L84.72,117,85.85,110a24.79,24.79,0,0,0-1.44-7.64,22.83,22.83,0,0,0-6-9l0,0a24.42,24.42,0,0,0-11.15-5.82h0A26.44,26.44,0,0,0,61,86.75h0c-.22,0-.45,0-.69,0L59,86.68A26.25,26.25,0,0,0,48.9,89a24.16,24.16,0,0,0-5.8,3.67A22.92,22.92,0,0,0,38,98.8a24,24,0,0,0-3.13,12.88l1,5.29Z"
            style="fill:#5ac640" />
        <path
            d="M70.55,92.64c0,3.23-4.61,5.86-10.29,5.86S50,95.87,50,92.64s4.61-5.87,10.29-5.87S70.55,89.4,70.55,92.64Z"
            style="fill:#ea9b65" />
        <path
            d="M60.26,98.94c-5.92,0-10.73-2.83-10.73-6.3s4.81-6.31,10.73-6.31S71,89.16,71,92.64,66.18,98.94,60.26,98.94Zm0-11.72c-5.43,0-9.84,2.43-9.84,5.42s4.41,5.42,9.84,5.42,9.85-2.44,9.85-5.42S65.69,87.22,60.26,87.22Z"
            style="fill:#fff" />
        <g style="opacity:0.43">
            <path
                d="M14.47,153C17.11,123.56,28.89,107.19,38,98.8,39.64,97.28,48.36,89.65,48.9,89a24.16,24.16,0,0,0-5.8,3.67,57.37,57.37,0,0,0-15,14.22c-.14.18-.28.37-.4.56a86.53,86.53,0,0,0-8.48,15.28c-.11.23-.19.45-.28.68a102.3,102.3,0,0,0-6.77,30.29C13,153.45,13.71,153.22,14.47,153Z"
                style="fill:#fff" />
        </g>
        <g style="opacity:0.15">
            <path
                d="M84.41,102.34C92.65,111.66,101,126.09,104,147.9c.44,0,.88,0,1.32,0,.84,0,1.68.11,2.51.17-4.26-33.9-20.94-49.16-29.35-54.8l0,0a24.42,24.42,0,0,0-11.15-5.82h0l-.44.67A66.63,66.63,0,0,1,72.93,92,67.79,67.79,0,0,1,84.41,102.34Z" />
        </g>
        <path
            d="M63.85,87.43A24.42,24.42,0,0,1,75,93.25l0,0a22.7,22.7,0,0,1,6,9A24.51,24.51,0,0,1,82.46,110L81.33,117l-2.61,16.12a36,36,0,0,0,.58,14.31c.07.3.15.62.23.93l3.35-.16c-1.07-4.38-1.95-7.77-1.95-7.77L84.72,117,85.85,110a24.79,24.79,0,0,0-1.44-7.64,22.83,22.83,0,0,0-6-9l0,0a24.44,24.44,0,0,0-11.14-5.82h0a26.63,26.63,0,0,0-7-.66L59,86.68c-.45,0-.9,0-1.34.07a26.44,26.44,0,0,1,6.23.68Z"
            style="fill:#43992b" />
        <path
            d="M84.75,47c-10-5.48-18.6-7.48-25.68-7.58a34.68,34.68,0,0,0-22.53,7.23c2.35-9.61,8.78-22.23,12.81-29a13,13,0,0,1,10.31-6,.07.07,0,0,0,.09,0,13.48,13.48,0,0,1,10.52,5.82s3.37,4.84,6.87,11c3.3,5.79,6.73,12.71,7.51,17.77C84.68,46.46,84.72,46.74,84.75,47Z"
            style="fill:#87327b" />
        <path
            d="M68.36,67.72V90.25C68.35,94,65,97,60.85,97c-4.5,0-8.16-3.3-8.15-7.36V67.71c0-3.73,3.37-6.77,7.5-6.77h.66C65,61,68.36,64,68.36,67.72Z"
            style="fill:#ea9b65" />
        <polygon points="68.36 79.73 68.34 86.8 52.7 83.84 52.7 78.94 68.36 79.73"
            style="fill:#e27954" />
        <path
            d="M86.61,51.71c0,14.57-11.29,27.66-25.21,27.66S35.8,66.39,36,51.83c.18-13.13,11.47-26.49,25.4-26.49S86.61,37.15,86.61,51.71Z"
            style="fill:#212121" />
        <path d="M44.92,63.91a4.32,4.32,0,1,1-4.32-4.32A4.32,4.32,0,0,1,44.92,63.91Z"
            style="fill:#ffb380" />
        <circle cx="40.6" cy="63.91" r="2.64" style="fill:#e27954" />
        <path d="M85.69,63.82a4.42,4.42,0,1,1-4.41-4.42A4.41,4.41,0,0,1,85.69,63.82Z"
            style="fill:#ffb380" />
        <path d="M84.23,63.82a2.7,2.7,0,1,1-2.69-2.7A2.69,2.69,0,0,1,84.23,63.82Z"
            style="fill:#e27954" />
        <path
            d="M82,57.8c0,14.62-9.4,26.47-21,26.47a12,12,0,0,1-1.21,0c-11-.79-19.81-12.31-19.81-26.42S48.7,32.16,59.74,31.37A12,12,0,0,1,61,31.32C72.57,31.32,82,43.17,82,57.8Z"
            style="fill:#ea9b65" />
        <path
            d="M79.54,57.8c0,14.11-8.77,25.63-19.8,26.42-11-.79-19.81-12.31-19.81-26.42S48.7,32.16,59.74,31.37C70.77,32.16,79.54,43.69,79.54,57.8Z"
            style="fill:#ffb380" />
        <path d="M53.44,60.23A1.23,1.23,0,1,1,52.21,59,1.23,1.23,0,0,1,53.44,60.23Z"
            style="fill:#212121" />
        <path d="M70.92,60.23A1.23,1.23,0,1,1,69.69,59,1.23,1.23,0,0,1,70.92,60.23Z"
            style="fill:#212121" />
        <path
            d="M62.57,66.52H58.94a1,1,0,0,1-1-1h0a1,1,0,0,1,1-1h3.63a1,1,0,0,1,1,1h0A1,1,0,0,1,62.57,66.52Z"
            style="fill:#e27954" />
        <path d="M60.53,72l5.59,0c0,4-2.54,7.28-5.59,7.28S54.94,76,54.94,72Z" style="fill:#5e2526" />
        <path d="M54.94,71.92s0,.55,0,.71.08.57.08.57H66s.08-.48.09-.64,0-.59,0-.59Z"
            style="fill:#fff" />
        <path
            d="M56.68,77.27a18,18,0,0,1,7.7,0,7,7,0,0,1-1.81,1.52,4.42,4.42,0,0,1-2.48.49A5,5,0,0,1,56.68,77.27Z"
            style="fill:#ff3636" />
        <path
            d="M54.71,54.79l-5.59.79a.81.81,0,0,1-.91-.69h0A.81.81,0,0,1,48.9,54l5.59-.79a.81.81,0,0,1,.91.69h0A.8.8,0,0,1,54.71,54.79Z"
            style="fill:#212121" />
        <path
            d="M72.06,55.7l-5.54-1a.82.82,0,0,1-.65-.95h0a.82.82,0,0,1,.95-.65l5.54,1a.81.81,0,0,1,.65.94h0A.82.82,0,0,1,72.06,55.7Z"
            style="fill:#212121" />
        <path
            d="M62,48.1c-8,3.81-19.83,6.88-22.41,1.48s5.11-17.2,13.08-21,16.52-2.52,19.09,2.87S70,44.29,62,48.1Z"
            style="fill:#212121" />
        <path
            d="M86.21,47c-.52-.3-1-.56-1.56-.83-9.29-4.84-17.28-6.61-24-6.73a14.29,14.29,0,0,0-1.6,0,34.54,34.54,0,0,0-20.51,6.8l-.56.43a16.67,16.67,0,0,0-1.82,1.65c.1-.53.22-1.07.36-1.65,2.35-9.61,8.78-22.23,12.81-29a13,13,0,0,1,10.31-6,.07.07,0,0,0,.09,0c.28,0,.58,0,.85,0l.52,0a1.27,1.27,0,0,1,.28,0,13.37,13.37,0,0,1,10.33,5.8s3.37,4.84,6.87,11c3.25,5.7,6.62,12.5,7.46,17.52C86.13,46.32,86.18,46.67,86.21,47Z"
            style="fill:#87327b" />
        <path
            d="M86.21,47c-.53-.3-1-.56-1.57-.83-.16-.09-.33-.18-.49-.25-.83-5-4.2-11.82-7.45-17.52-3.5-6.12-6.87-11-6.87-11a13.39,13.39,0,0,0-10.33-5.8.44.44,0,0,1,.16,0,.06.06,0,0,0,.08,0c.28,0,.58,0,.86,0l.52,0a13.45,13.45,0,0,1,10.6,5.82s3.38,4.84,6.87,11S85.7,41.91,86.21,47Z"
            style="fill:#631f5d" />
        <circle cx="40.32" cy="67.36" r="0.72" style="fill:#87327b" />
        <circle cx="81.54" cy="67.36" r="0.72" style="fill:#87327b" />
        <path
            d="M61.12,11.64a13,13,0,0,0-10.31,6c-4,6.77-10.46,19.39-12.81,29a16.67,16.67,0,0,0-1.82,1.65c.1-.53.22-1.07.36-1.65,2.35-9.61,8.78-22.23,12.81-29a13,13,0,0,1,10.31-6,.07.07,0,0,0,.09,0c.28,0,.58,0,.85,0Z"
            style="fill:#a8409e" />
    </g>
</svg>