<svg id="Avatars" xmlns="http://www.w3.org/2000/svg" xmlns:xlink="http://www.w3.org/1999/xlink" viewBox="0 0 120 120"><defs><clipPath id="clip-path"><circle cx="60" cy="60" r="60" style="fill:none"/></clipPath><clipPath id="clip-path-2"><circle cx="200" cy="-76" r="60" transform="translate(243.49 133.49) rotate(-80.92)" style="fill:none"/></clipPath><clipPath id="clip-path-3"><path d="M147,34.15c-3.93-63.82,25.42-89.85,44.84-91.26L192.78-44c-12.17.89-36.18,21-32.7,77.39Z" style="fill:none"/></clipPath><clipPath id="clip-path-4"><circle cx="60" cy="-76" r="60" transform="translate(125.52 -4.71) rotate(-80.88)" style="fill:none"/></clipPath></defs><title>avatar</title><g style="clip-path:url(#clip-path)"><circle cx="60" cy="60" r="60" style="fill:none"/><path d="M22.61,137.47a77.56,77.56,0,0,1,8.6-18.38c1.93-3.14,3.88-6,5.62-8.83a43.67,43.67,0,0,0,2.46-4.54c3.78-7.91,5.26-15.55,9.9-16.93a13.85,13.85,0,0,1,3.17-.6l-.27-3.72-.07-1-.57-7.93,0-.48h-.06l-.82.08-1.34.18-.53.1c-.28,0-.57.1-.85.17,0,0,0,0,0,0A38.51,38.51,0,0,0,31,84.58C20.27,94,10.61,110.69,7.4,136.31A40.4,40.4,0,0,1,22.61,137.47Z" style="fill:#262626"/><path d="M88.84,105.72c.56,1-2.47,2.57-2,3.61a109.49,109.49,0,0,1,11,30.41q7.17.3,14.33.82c-2.43-26.09-11.38-43.5-21.72-53.76a44.91,44.91,0,0,0-11.71-8.51,0,0,0,0,0,0,0l-.13-.06a31.9,31.9,0,0,0-5.47-2.08c-.22-.07-.41-.13-.62-.18a.63.63,0,0,0-.25-.07c-.69-.18-1.38-.33-2-.46-.87-.14-1.7-.24-2.54-.31l-.42,5.8L67,85.83l-.16,2.36a16.71,16.71,0,0,1,5.54,1.47C77.6,92,83.71,97.05,88.84,105.72Z" style="fill:#262626"/><path d="M31.05,105.72l.16,13.37.26,20.7c1.6-.11,3.21-.22,4.86-.22,2,0,4,.13,6,.33a43.6,43.6,0,0,1,15.91-3.09,44.27,44.27,0,0,1,16.34,3.08,103.78,103.78,0,0,1,11.62-.51l4.32.12,0-25.13V101.08c0-8.22-3.4-16.1-8.79-20.66a23.44,23.44,0,0,0-2.92-2.13,0,0,0,0,0,0,0l-.13-.06a28.29,28.29,0,0,0-6.34-3l-.85-.26c-.41-.14-.82-.25-1.23-.35l-.89-.23-.44-.1h0a37.25,37.25,0,0,0-8.22-.89,38.08,38.08,0,0,0-7.17.67l-.31,0L52,74.37a2.61,2.61,0,0,0-.5.12c-.4.1-.77.2-1.15.33l-1.11.32-1.38.5s0,0,0,0a27.39,27.39,0,0,0-9.72,6.29A24.45,24.45,0,0,0,31,98.3c0,.51,0,1,0,1.52l0,2.61Z" style="fill:#262626"/><path d="M49.19,75.14v30.58H31V84.58a38.51,38.51,0,0,1,16.78-8.93s0,0,0,0Z" style="fill:#262626"/><path d="M90.54,86.79v18.92H72.33V75.17a28.73,28.73,0,0,1,6.34,3,.42.42,0,0,1,.13.07s0,0,0,0A45,45,0,0,1,90.54,86.79Z" style="fill:#262626"/><rect x="38.94" y="105.71" width="43.17" height="21.85" style="fill:#fff"/><g style="opacity:0.34"><path d="M10.3,136.08c3-22.89,11.22-38.6,20.7-48.19.9-.93,1.83-1.8,2.77-2.62a48.73,48.73,0,0,1,4.29-3.33,36.62,36.62,0,0,1,11.13-5.27l0,0,1.32-.31s0,0,0,0l.85-.16,0-.57,0-.48a1.43,1.43,0,0,1-.61-.1c-.15-.06-.29-.14-.44-.19l-1.11.32-1.38.5s0,0,0,0A38.51,38.51,0,0,0,31,84.58C20.27,94,10.61,110.69,7.4,136.31,8.37,136.21,9.33,136.12,10.3,136.08Z" style="fill:#d8d8d8"/></g><path d="M73.5,77.2a0,0,0,0,1,0,0,45.13,45.13,0,0,1,11.72,8.5c10.43,10.36,19.43,28,21.77,54.48,1.86.11,3.73.25,5.59.39-2.28-26.7-11.34-44.46-21.83-54.87a45.09,45.09,0,0,0-11.71-8.5,0,0,0,0,0,0,0,.38.38,0,0,0-.13-.06,32,32,0,0,0-6.09-2.26.63.63,0,0,0-.25-.07c-.69-.18-1.38-.33-2-.46-.87-.15-1.7-.24-2.54-.31l-.08,1a31.59,31.59,0,0,1,5.47,2.08A.38.38,0,0,1,73.5,77.2Z" style="fill:#111"/><path d="M72.65,79.28c0,4-5.43,7.23-12.12,7.23S48.4,83.27,48.4,79.28s5.43-7.23,12.13-7.23S72.65,75.28,72.65,79.28Z" style="fill:#aa4531"/><path d="M60.53,87.13c-7,0-12.75-3.52-12.75-7.85s5.72-7.85,12.75-7.85S73.27,75,73.27,79.28,67.55,87.13,60.53,87.13Zm0-14.46c-6.34,0-11.5,3-11.5,6.61s5.16,6.6,11.5,6.6,11.5-3,11.5-6.6S66.87,72.67,60.53,72.67Z" style="fill:#fcfcfc"/><path d="M69,74.57c.38,4.69-3.12,7.59-7.81,8A8.62,8.62,0,0,1,52,74.6L51.76,72l-.3-3.51-.24-2.94L51,63.07l-.19-2.29,17-1.39.45,6.13,0,.44.19,2.6.43,5.68Z" style="fill:#aa4531"/><path d="M69.73,67.94c-.4.22-.81.43-1.23.62l.43,5.68L51.76,72l-.3-3.51-.67-.35,0-2.76,0-2.31.28,0L67.44,65.8l.87.16,1.49.24Z" style="fill:#7c3729"/><path d="M85.49,38.7C86.1,53.77,75,66.44,60.76,67S34.44,55.83,33.84,40.76,44.32,13,58.58,12.45,84.89,23.63,85.49,38.7Z" style="fill:#2871a3"/><path d="M41.47,47.08a5,5,0,1,1-3.92-5.83A5,5,0,0,1,41.47,47.08Z" style="fill:#c05838"/><path d="M39.45,46.69a2.92,2.92,0,1,1-2.3-3.43A2.92,2.92,0,0,1,39.45,46.69Z" style="fill:#7c3729"/><path d="M88.13,47.08a5,5,0,1,1-3.91-5.83A5,5,0,0,1,88.13,47.08Z" style="fill:#c05838"/><path d="M86.11,46.69a2.91,2.91,0,1,1-2.29-3.43A2.91,2.91,0,0,1,86.11,46.69Z" style="fill:#7c3729"/><path d="M83.16,44.58s0,0,0,0c-.09,1.06-.23,2.1-.4,3.12-.12.72-.27,1.4-.42,2.08A31,31,0,0,1,79.75,57s0,0,0,0a25.51,25.51,0,0,1-10,10.92c-.41.22-.83.43-1.24.62a18.83,18.83,0,0,1-7.6,1.91c-.65,0-1.3,0-1.93,0h0a20,20,0,0,1-7.5-2l-.67-.34a25.93,25.93,0,0,1-9.73-9.5s0,0,0,0a32.08,32.08,0,0,1-4-10.16c-.16-.67-.31-1.36-.41-2.06a34.92,34.92,0,0,1-.41-4.26c0-.42,0-.84,0-1.26s0-.94,0-1.39c0,0,0,0,0-.06,0-.2,0-.41,0-.62.53-10.52,5.57-19.51,12.81-24a0,0,0,0,1,0,0,19.63,19.63,0,0,1,9.34-2.9h.14a19.48,19.48,0,0,1,9.55,2.07s0,0,0,0c8.43,4.19,14.64,14.27,15.1,26.25v.13c0,.74,0,1.45,0,2.16S83.21,43.9,83.16,44.58Z" style="fill:#aa4531"/><path d="M81.06,44.58s0,0,0,0c-.09,1.06-.23,2.1-.4,3.12-.12.72-.26,1.4-.41,2.08A31.49,31.49,0,0,1,77.65,57s0,0,0,0a25.51,25.51,0,0,1-10,10.92c-.41.22-.83.43-1.24.62A18.77,18.77,0,0,1,59,70.46h0a20,20,0,0,1-7.5-2l-.67-.34a25.93,25.93,0,0,1-9.73-9.5s0,0,0,0a32.08,32.08,0,0,1-4-10.16c-.16-.67-.31-1.36-.41-2.06a34.92,34.92,0,0,1-.41-4.26c0-.42,0-.84,0-1.26s0-.94,0-1.39c0,0,0,0,0-.06,0-.2,0-.41,0-.62.53-10.52,5.57-19.51,12.81-24a0,0,0,0,1,0,0,19.63,19.63,0,0,1,9.34-2.9h0A20,20,0,0,1,66,13.94s0,0,0,0c8.44,4.19,14.64,14.27,15.11,26.25v.13c0,.74,0,1.45,0,2.16S81.11,43.9,81.06,44.58Z" style="fill:#c05838"/><path d="M43.91,38.85l-.11-.12a.92.92,0,0,1,.11-1.28c.22-.18,5.36-4.4,13.18.74a.91.91,0,1,1-1,1.53c-6.64-4.36-10.82-1-11-.87A.92.92,0,0,1,43.91,38.85Z" style="fill:#2871a3"/><path d="M76.61,39.62a.9.9,0,0,1-1,0c-6.87-4-10.86-.37-11-.21a.92.92,0,0,1-1.29,0,.91.91,0,0,1,0-1.29c.2-.2,5.09-4.72,13.2-.05a.91.91,0,0,1,.33,1.25A.84.84,0,0,1,76.61,39.62Z" style="fill:#2871a3"/><path d="M84.81,34.92V34.8h0a33.76,33.76,0,0,0-3.77-11C75.07,12.82,66.22,11.92,63.77,11.83c-2.09-.07-7.3-.59-10.13.14-1.75.45-8.43,1.22-14.1,10.55-7.5,12.34-5.2,17.84-3.36,18.65h0c.86-.11,5.47-8.41,7.62-11l.14-.16a16.46,16.46,0,0,1,12.85-5.78l6.81.14a16.41,16.41,0,0,1,13.61,7.75l.1.16c2,3.27,7.23,10.22,7.29,8.61h0C85.17,39.83,85.42,37.91,84.81,34.92Z" style="fill:#2871a3"/><path d="M62,52.84H57.8a1.09,1.09,0,0,1-1.08-1.08h0a1.09,1.09,0,0,1,1.08-1.08H62a1.09,1.09,0,0,1,1.08,1.08h0A1.09,1.09,0,0,1,62,52.84Z" style="fill:#7c3729"/><path d="M52,45.38a1.23,1.23,0,1,1-1.23-1.23A1.23,1.23,0,0,1,52,45.38Z" style="fill:#3a240d"/><path d="M71,45.38a1.23,1.23,0,1,1-1.23-1.23A1.23,1.23,0,0,1,71,45.38Z" style="fill:#3a240d"/><path d="M60.07,57.92l5.55-.06c0,4-2.38,7.28-5.41,7.34S54.6,62,54.52,58Z" style="fill:#5e2526"/><path d="M54.52,58s0,.55,0,.71.09.56.09.56L65.55,59s.07-.48.08-.64,0-.58,0-.58Z" style="fill:#fff"/><path d="M56.36,63.26A17.89,17.89,0,0,1,64,63.1a7,7,0,0,1-1.76,1.55,4.44,4.44,0,0,1-2.45.53A4.91,4.91,0,0,1,56.36,63.26Z" style="fill:#ff3636"/><path d="M49.53,16.11s-5.78,8.69,5.38,13.55,24.23,2.12,24.23,2.12L69.31,16.92S50.82,22.26,49.53,16.11Z" style="fill:#2871a3"/><path d="M61.52,28.51s-11,5.22-15,1.74l6.25-7.07Z" style="fill:#2871a3"/><path d="M71.47,31.71s-11,5.22-14.95,1.74l6.24-7.07Z" style="fill:#2871a3"/><g style="opacity:0.72"><path d="M86.18,139.38l4.32.12,0-25.13c-4.52,5.47-6.1,12.43-6.1,19.52l0,5.51C85,139.4,85.6,139.37,86.18,139.38Z" style="fill:#111"/></g><g style="opacity:0.15"><path d="M44.06,22c2.51,1,9.37-2.57,10.91-3.56s-.2-2.27-3.54-1.77S41.46,20.91,44.06,22Z" style="fill:#fff"/></g><rect x="68.72" y="105.71" width="9.01" height="21.85" style="fill:#2871a3"/><rect x="59.35" y="105.71" width="3.63" height="21.85" style="fill:#2871a3"/><rect x="43.24" y="105.71" width="11.14" height="21.85" style="fill:#2871a3"/></g><g style="clip-path:url(#clip-path-2)"><g style="clip-path:url(#clip-path-3)"><rect x="106.11" y="6.46" width="88.72" height="3.6" transform="translate(0.45 -5.97) rotate(2.28)" style="fill:#184c2d"/><path d="M150,19.51l-44.3-1.76-.14,3.59,35.37,1.41A86,86,0,0,1,150,19.51Z" style="fill:#184c2d"/></g></g><g style="clip-path:url(#clip-path-4)"><path d="M84.72-19c4.55,7,8.78,17,10.76,30.79,3.27-.05,6.54,0,9.8.1.84,0,1.68.11,2.51.17-4.26-33.9-20.94-49.16-29.35-54.8l0,0c-1-.68-1.93-1.22-2.68-1.63-1.18-.66-1.95-1-2.15-1.1L72.93-44l-4.21,9.7C69.37-34,77.42-30.23,84.72-19Z" style="fill:#edebeb"/><path d="M24.66,15.38C26.37-.34,31-11.42,35.9-19,43-30,50.85-33.87,51.81-34.3l0,0-2.31-5.23-.14-.33-2.23-5.18L47-45.48c-.21.09-1,.44-2.19,1.11-.51.28-1.08.63-1.72,1a57.37,57.37,0,0,0-15,14.22c-.14.18-.28.37-.4.56a73.3,73.3,0,0,0-8.48,15.28c-.11.23-.19.45-.28.68a102.3,102.3,0,0,0-6.77,30.29A48.87,48.87,0,0,1,24.66,15.38Z" style="fill:#edebeb"/><path d="M40.26,3.71l-1.45,11.1c13.35-.67,26.68-1.72,40-2.38l4-.19c-1.07-4.38-1.95-7.77-1.95-7.77L84.72-19,85.85-26a24.79,24.79,0,0,0-1.44-7.64,22.83,22.83,0,0,0-6-9l0,0a24.42,24.42,0,0,0-11.15-5.82h0A26.44,26.44,0,0,0,61-49.25h0c-.22,0-.45,0-.69,0L59-49.32A26.25,26.25,0,0,0,48.9-47a24.16,24.16,0,0,0-5.8,3.67A22.92,22.92,0,0,0,38-37.2a24,24,0,0,0-3.13,12.88l1,5.29Z" style="fill:#5ac640"/><g style="opacity:0.43"><path d="M14.47,17C17.11-12.44,28.89-28.81,38-37.2,39.64-38.72,48.36-46.35,48.9-47a24.16,24.16,0,0,0-5.8,3.67,57.37,57.37,0,0,0-15,14.22c-.14.18-.28.37-.4.56a86.53,86.53,0,0,0-8.48,15.28c-.11.23-.19.45-.28.68a102.3,102.3,0,0,0-6.77,30.29C13,17.45,13.71,17.22,14.47,17Z" style="fill:#fff"/></g><g style="opacity:0.15"><path d="M84.41-33.66C92.65-24.34,101-9.91,104,11.9l1.32,0c.84,0,1.68.11,2.51.17-4.26-33.9-20.94-49.16-29.35-54.8l0,0a24.42,24.42,0,0,0-11.15-5.82h0l-.44.67A66.63,66.63,0,0,1,72.93-44,67.79,67.79,0,0,1,84.41-33.66Z"/></g><path d="M63.85-48.57A24.42,24.42,0,0,1,75-42.75l0,0a22.7,22.7,0,0,1,6,9A24.51,24.51,0,0,1,82.46-26L81.33-19,78.72-2.84a36,36,0,0,0,.58,14.31c.07.3.15.62.23.93l3.35-.16c-1.07-4.38-1.95-7.77-1.95-7.77L84.72-19,85.85-26a24.79,24.79,0,0,0-1.44-7.64,22.83,22.83,0,0,0-6-9l0,0a24.44,24.44,0,0,0-11.14-5.82h0a26.63,26.63,0,0,0-7-.66L59-49.32c-.45,0-.9,0-1.34.07a26.44,26.44,0,0,1,6.23.68Z" style="fill:#43992b"/></g></svg>