<svg id="Avatars" xmlns="http://www.w3.org/2000/svg" xmlns:xlink="http://www.w3.org/1999/xlink" viewBox="0 0 120 120"><defs><clipPath id="clip-path"><circle cx="60" cy="60" r="60" style="fill:none"/></clipPath><clipPath id="clip-path-2"><circle cx="60" cy="-76" r="60" transform="translate(125.58 -4.76) rotate(-80.92)" style="fill:none"/></clipPath><clipPath id="clip-path-3"><path d="M90.6,49.9l-59-.23L31.1-32.4c0-16.43,13.32-26.47,29.75-26.47h0c16.43,0,29.75,10,29.75,26.47Z" style="fill:none"/></clipPath><clipPath id="clip-path-4"><path d="M7,34.15C3.06-29.67,32.41-55.7,51.83-57.11l1,13.07c-12.17.89-36.18,21-32.7,77.39Z" style="fill:none"/></clipPath><clipPath id="clip-path-5"><path d="M113,34.15c3.93-63.82-25.42-89.85-44.84-91.26L67.22-44c12.17.89,36.18,21,32.7,77.39Z" style="fill:none"/></clipPath></defs><title>avatar</title><g style="clip-path:url(#clip-path)"><circle cx="60" cy="60" r="60" style="fill:none"/><path d="M101.61,100.15s.79,5-3.85,10.18c-5.9,6.54-17,7.54-17,7.54l7.64-15.71Z" style="fill:#939090"/><path d="M89.92,112.64c4.31,9.93,7.44,23.53,7,41.92,0,.45,0,.9,0,1.35q5.16,2.43,10.16,5.24l1.78.11q.1-1.65.15-3.24v0c0-.31,0-.6,0-.92,0-.85.07-1.68.08-2.52.46-21.4-3.51-37.24-8.9-48.82-.57-1.23-1.16-2.4-1.77-3.53a70.33,70.33,0,0,0-5.62-8.94,39.27,39.27,0,0,1-5.28,10.8,7,7,0,0,1-1.31,1.29c.68,1.16,1.36,2.4,2,3.7C88.82,110.19,89.38,111.39,89.92,112.64Z" style="fill:#ffb380"/><path d="M100.21,105.74l-10.65,6.14c-.54-1.25-.74-1.69-1.31-2.82l10.19-6.85C99.05,103.34,99.64,104.51,100.21,105.74Z" style="fill:#e27954"/><path d="M17.87,99.67s-.79,5,3.84,10.18c5.9,6.54,17,7.54,17,7.54L31,101.68Z" style="fill:#939090"/><path d="M9.55,152.49A93.13,93.13,0,0,1,21.72,148C22,132.46,25,120.7,28.81,111.86c.55-1.25,1.11-2.45,1.68-3.58,7.77-15.23,18-20.29,19.09-20.79l.06,0L47.2,81.9l-2.4-5.59c-.94.4-14.43,6.45-24.44,25.17-.61,1.13-1.2,2.3-1.76,3.53-5,10.54-8.74,24.62-9.06,43.21,0,.83,0,1.66,0,2.52,0,.41,0,.83,0,1.25C9.54,152.15,9.55,152.33,9.55,152.49Z" style="fill:#ffb380"/><path d="M30.49,108.28c-.57,1.13-.83,1.7-1.39,3L18.6,105c.56-1.23,1.15-2.4,1.76-3.53Z" style="fill:#e27954"/><path d="M60.61,89.72h0Z" style="fill:#50891f"/><path d="M48.66,101.79,36.77,115.23l-.19-.19A101.34,101.34,0,0,0,27,106.58c-.84-.65-2.16-1.64-3.53-2.68l-5.6-4.24L36.44,80.6l.75-.78c.48-.51,1-1,1.46-1.45l0,0,0,0a7.76,7.76,0,0,1,1-.78l.89,2.39.9,2.47Z" style="fill:#edebeb"/><polygon points="84.3 97.85 34.78 97.85 34.84 36.2 84.3 34.49 84.3 97.85" style="fill:#e22b87"/><path d="M79.09,97.42H46.77l0-37.78c0-13.32,6.9-24.24,15.59-24.7h0c9.13-.48,16.7,10.73,16.7,24.73Z" style="fill:#b52674"/><path d="M38.87,127.68l-2.53,17.23a97.77,97.77,0,0,1,26.9.25l21.88,0,0-.05-3.61-17.81,1.25-13,1.72-18A24.66,24.66,0,0,0,83,88.6a22.66,22.66,0,0,0-9.46-11.82v0a25,25,0,0,0-12-3.71h-.43c-.49,0-1,0-1.46,0a5,5,0,0,0-.54,0l-1.58-.09A26.19,26.19,0,0,0,46,76l-.19.11a23.82,23.82,0,0,0-10.19,11,24.44,24.44,0,0,0-2.09,10.83L36.58,115Z" style="fill:#edebeb"/><rect x="51.31" y="71.45" width="15.64" height="3.19" style="fill:#2b2b2b"/><path d="M101.6,100.14l-4.34,3.29-4.78,3.63c-4.35,3.29-8.66,6.4-9.74,7.18l-.26.18L70.81,102.28,73.21,80l.35-3.21v0a55.44,55.44,0,0,1,8.62,6.1l.18.14c1.7,1.39,3.49,2.89,5.25,4.42l.41.36C95.07,93.9,101.6,100.14,101.6,100.14Z" style="fill:#edebeb"/><path d="M60.61,101.7a9.76,9.76,0,0,0-1.44.11.47.47,0,0,0-.17,0,2.3,2.3,0,0,1-.28.06l-.31.05c-2.77.22-7-3.32-7-3.32s-1.81,11.28-1.5,13.76A10.67,10.67,0,1,0,60.61,101.7Z" style="fill:#2b2b2b"/><g style="opacity:0.46"><path d="M59.67,73l0,.54-.5,0c-3.2.14-7.3,2-11.7,4.72-1.92,1.19-3.9,2.55-5.9,4.06-1.79,1.32-3.58,2.73-5.37,4.21a7.19,7.19,0,0,0-.59.51c-5.39,4.67-9.65,11.57-12.1,16.81l-5.6-4.24L36.44,80.6l.75-.78c.48-.51,1-1,1.46-1.45l0,0,0,0a7.76,7.76,0,0,1,1-.78l.89,2.39a23,23,0,0,1,5.13-3.8L46,76a26.19,26.19,0,0,1,11.6-3.06l1.58.09A5,5,0,0,1,59.67,73Z" style="fill:#fff"/></g><g style="opacity:0.39"><path d="M101.6,100.14l-4.34,3.29C93.54,99.26,88.44,93.76,83,88.6c-.65-.65-1.31-1.25-2-1.86C78.46,84.32,75.8,82,73.21,80c-1-.76-2-1.49-2.92-2.17a34.52,34.52,0,0,0-8.73-4.77,25,25,0,0,1,12,3.71,55.44,55.44,0,0,1,8.62,6.1l.18.14,5.25,4.42.41.36C95.07,93.9,101.6,100.14,101.6,100.14Z" style="fill:#b2b2b2"/></g><rect x="34.78" y="66.17" width="11.99" height="37.12" rx="4.29" style="fill:#e22b87"/><path d="M69.15,78.88c0,3.24-4.6,5.87-10.29,5.87s-10.29-2.63-10.29-5.87S53.18,73,58.86,73,69.15,75.64,69.15,78.88Z" style="fill:#ea9b65"/><path d="M58.86,85.19c-5.91,0-10.73-2.83-10.73-6.31S53,72.57,58.86,72.57,69.6,75.4,69.6,78.88,64.78,85.19,58.86,85.19Zm0-11.73c-5.42,0-9.84,2.43-9.84,5.42s4.42,5.42,9.84,5.42,9.85-2.43,9.85-5.42S64.29,73.46,58.86,73.46Z" style="fill:#fff"/><path d="M67,54V76.49c0,3.73-3.36,6.76-7.5,6.76-4.5,0-8.16-3.3-8.14-7.36V54c0-3.73,3.36-6.76,7.49-6.76h.67C63.6,47.2,67,50.22,67,54Z" style="fill:#ea9b65"/><polygon points="66.96 65.97 66.95 73.04 51.31 70.09 51.31 65.18 66.96 65.97" style="fill:#e27954"/><ellipse cx="60" cy="37.96" rx="25.21" ry="26.37" style="fill:#e22b87"/><path d="M43.52,49.24a4.32,4.32,0,1,1-4.32-4.32A4.32,4.32,0,0,1,43.52,49.24Z" style="fill:#ffb380"/><path d="M41.84,49.24A2.64,2.64,0,1,1,39.2,46.6,2.64,2.64,0,0,1,41.84,49.24Z" style="fill:#e27954"/><path d="M84.3,50.06a4.42,4.42,0,1,1-4.42-4.41A4.42,4.42,0,0,1,84.3,50.06Z" style="fill:#ffb380"/><path d="M82.84,50.06a2.7,2.7,0,1,1-2.7-2.69A2.7,2.7,0,0,1,82.84,50.06Z" style="fill:#e27954"/><path d="M80.57,44.05c0,14.61-9.4,26.47-21,26.47-.4,0-.81,0-1.21,0-11-.8-19.81-12.32-19.81-26.42S47.3,18.41,58.34,17.61c.4,0,.81,0,1.21,0C71.17,17.57,80.57,29.42,80.57,44.05Z" style="fill:#ea9b65"/><path d="M78.14,44.05c0,14.1-8.77,25.62-19.8,26.42-11-.8-19.81-12.32-19.81-26.42S47.3,18.41,58.34,17.61C69.37,18.41,78.14,29.93,78.14,44.05Z" style="fill:#ffb380"/><path d="M52.05,46.47a1.23,1.23,0,1,1-1.23-1.23A1.23,1.23,0,0,1,52.05,46.47Z" style="fill:#363b4f"/><path d="M69.52,46.47a1.23,1.23,0,1,1-1.23-1.23A1.23,1.23,0,0,1,69.52,46.47Z" style="fill:#363b4f"/><path d="M53.23,42.63H47.59a.82.82,0,0,1-.82-.81h0a.82.82,0,0,1,.81-.82h5.65a.81.81,0,0,1,.81.81h0A.81.81,0,0,1,53.23,42.63Z" style="fill:#c42c71"/><path d="M70.84,42.72l-5.64-.17a.81.81,0,0,1-.79-.83h0a.81.81,0,0,1,.83-.79l5.65.16a.81.81,0,0,1,.78.84h0A.81.81,0,0,1,70.84,42.72Z" style="fill:#c42c71"/><path d="M59.36,62.13A8.45,8.45,0,0,1,54,60a.47.47,0,1,1,.59-.73c5.29,4.31,9.47.06,9.64-.12a.47.47,0,0,1,.66,0,.46.46,0,0,1,0,.66A8.38,8.38,0,0,1,59.36,62.13Z" style="fill:#e27954"/><rect x="47.5" y="44.68" width="6.63" height="1.79" rx="0.64" style="fill:#2b2b2b"/><rect x="64.98" y="44.68" width="6.63" height="1.79" rx="0.64" style="fill:#2b2b2b"/><path d="M75.47,18.71c13.64,7.69,9.27,40.16,7.37,42.78S54,39.81,43.52,26.93c-4.47-5.47,4.17-8.11,6.07-10.72S69.31,15.24,75.47,18.71Z" style="fill:#e22b87"/><path d="M55.23,23.49S44.59,32,38,40.4c-2.67,3.39,4.29-19.19,4.29-19.19Z" style="fill:#e22b87"/><rect x="51.85" y="35.15" width="9.16" height="2.49" rx="0.89" transform="translate(-9.87 25.74) rotate(-23.69)" style="fill:#8ef973"/><rect x="48.62" y="31.09" width="9.16" height="2.49" rx="0.89" transform="translate(-8.51 24.1) rotate(-23.69)" style="fill:#2b2b2b"/><rect x="33.82" y="48.86" width="3.86" height="1.47" rx="0.52" style="fill:#d8d8d8"/><rect x="33.82" y="46.84" width="3.86" height="1.47" rx="0.52" transform="translate(7.11 -4.59) rotate(8.16)" style="fill:#d8d8d8"/><path d="M61.17,52.76H57.54a1,1,0,0,1-1-1h0a1,1,0,0,1,1-1h3.63a1,1,0,0,1,1,1h0A1,1,0,0,1,61.17,52.76Z" style="fill:#e27954"/><circle cx="59.29" cy="65.47" r="0.92" style="fill:#d8d8d8"/><g style="opacity:0.18"><path d="M47.55,17.68c.94-.59,3.72-2.61,5.16-2.54,3.89.21,4.28,3.61,1.13,4-5.06.63-9,6.74-10.12,6.43S43,20.57,47.55,17.68Z" style="fill:#fff"/></g><g style="opacity:0.18"><path d="M50.41,25.83c.24.53-.41,1.36-1.45,1.85s-2.1.45-2.35-.09.4-1.36,1.45-1.85S50.16,25.29,50.41,25.83Z" style="fill:#fff"/></g><g style="opacity:0.16"><path d="M79.91,145.1l0,.05,1.24,4.4c1.94.66,3.87,1.35,5.77,2.09l-1.83-6.49-3.63-17.86.94-9.84,0,0a7.83,7.83,0,0,0-2.62,2.61,16.36,16.36,0,0,0-2.38,12.51Z"/></g></g><g style="clip-path:url(#clip-path-2)"><path d="M53.64,15.08c2.53.26,5,.58,7.44.91a43.13,43.13,0,0,1,12.86-2,45.4,45.4,0,0,1,7.63.65,29.56,29.56,0,0,0-40.9.16A89.13,89.13,0,0,1,53.64,15.08Z" style="fill:#414968"/><path d="M53.64,15.08c2.53.26,5,.57,7.44.91a43.13,43.13,0,0,1,12.86-2,44.38,44.38,0,0,1,13.87,2.19c1-.17,2-.32,3.06-.46V-32.4c0-16.43-13.32-26.47-29.75-26.47s-29.75,10-29.75,26.47l.27,47.94A100.59,100.59,0,0,1,53.64,15.08Z" style="fill:#ff3636"/><g style="clip-path:url(#clip-path-3)"><path d="M53.64,15.08c2.53.26,5,.57,7.44.91a43.13,43.13,0,0,1,12.86-2,44.38,44.38,0,0,1,13.87,2.19q1.39-.23,2.79-.42V-32.4c0-16.43-13.32-26.47-29.75-26.47S31.1-48.83,31.1-32.4l.27,48A101.2,101.2,0,0,1,53.64,15.08Z" style="fill:#1e633b"/><path d="M44.62,14.68V-60H36.84V15C39.43,14.82,42,14.69,44.62,14.68Z" style="fill:#184c2d"/><path d="M84.87,15.32V-60H77.09V14.1A44.77,44.77,0,0,1,84.87,15.32Z" style="fill:#184c2d"/><path d="M52,15V-68.25h-2V14.82Z" style="fill:#184c2d"/><path d="M71.94,14V-68.25h-2V14.19C70.57,14.12,71.26,14.07,71.94,14Z" style="fill:#184c2d"/><rect x="11.08" y="-0.22" width="108.88" height="4.42" style="fill:#184c2d"/><path d="M14.86,18.28c4.79-1,9.63-1.82,14.51-2.48H11.08v3.39C12.33,18.84,13.59,18.53,14.86,18.28Z" style="fill:#184c2d"/><path d="M64.75,15V-60H57v75.5c1.38.16,2.71.36,4.06.55C62.24,15.62,63.49,15.29,64.75,15Z" style="fill:#184c2d"/></g><path d="M62.52,2.27A1.67,1.67,0,1,1,60.85.59,1.67,1.67,0,0,1,62.52,2.27Z" style="fill:#262626"/><g style="opacity:0.32"><path d="M87.81,16.17c1-.16,2-.31,3-.45V-29.62C84.8-29.62,80-14.85,80-8.89V14.39A43.71,43.71,0,0,1,87.81,16.17Z" style="fill:#111"/></g><path d="M14.86,18.28l2.3-.44c1.37-44.65,22-61.08,33-61.88l-.92-12.53v-.22c-17.81,3.2-41.84,26-42.52,77.36A62.28,62.28,0,0,1,14.86,18.28Z" style="fill:#ff3636"/><path d="M14.86,18.28c1.66-.33,3.31-.64,5-1,1.51-44.26,22-60.57,32.94-61.37l-.91-12.49v0l0-.54c-.85.07-1.73.18-2.63.33C31.38-53.6,7.35-30.81,6.67,20.57A62.28,62.28,0,0,1,14.86,18.28Z" style="fill:#1e633b"/><g style="clip-path:url(#clip-path-4)"><path d="M9.39,19.69l3-75L6-55.57,3,21.94C5.08,21.11,7.22,20.35,9.39,19.69Z" style="fill:#184c2d"/><path d="M25.94,16.31l2.82-71-6.34-.25-2.87,72.3C21.67,17,23.8,16.64,25.94,16.31Z" style="fill:#184c2d"/><path d="M-1.2,23.66,2.22-62.42.56-62.48-2.9,24.4Z" style="fill:#184c2d"/><path d="M14.86,18.28l.46-.09,3.18-80-1.67-.07-3.2,80.41C14,18.48,14.45,18.36,14.86,18.28Z" style="fill:#184c2d"/><rect x="-33.89" y="6.46" width="88.72" height="3.6" transform="translate(0.34 -0.41) rotate(2.28)" style="fill:#184c2d"/><path d="M10,19.51l-44.3-1.76-.14,3.59L.93,22.75A86,86,0,0,1,10,19.51Z" style="fill:#184c2d"/></g><path d="M80.7-37.23C89.72-29,98.61-12.71,100,14.82a98.87,98.87,0,0,1,13.11.18c-1.63-34.12-13.94-54.7-27.1-64.7-.76-.59-1.51-1.13-2.28-1.64a33.64,33.64,0,0,0-14.9-5.72l-.7-.06L67.22-44c3.1.22,7,1.7,11,4.7A31.66,31.66,0,0,1,80.7-37.23Z" style="fill:#1e633b"/><g style="clip-path:url(#clip-path-5)"><path d="M116.78,15.36,114-55.57l-6.33.25,2.78,70.14Q113.62,15,116.78,15.36Z" style="fill:#184c2d"/><path d="M100.35,14.8,97.58-54.92l-6.34.25,2.78,70C96.13,15.09,98.24,14.91,100.35,14.8Z" style="fill:#184c2d"/><path d="M122.57,16.25l-3.13-78.73-1.66.06L120.89,16C121.45,16.05,122,16.14,122.57,16.25Z" style="fill:#184c2d"/><path d="M106.21,14.7l-3-76.54-1.67.07,3,76.46C105.1,14.68,105.66,14.69,106.21,14.7Z" style="fill:#184c2d"/><rect x="65.16" y="6.46" width="88.72" height="3.6" transform="translate(219.29 12.17) rotate(177.72)" style="fill:#184c2d"/></g><g style="opacity:0.34"><path d="M9.3,19.71c.85-32.27,10.83-53.12,22.59-64.8.9-.92,1.85-1.78,2.79-2.59A47.53,47.53,0,0,1,39-51a35.9,35.9,0,0,1,11.18-5.16l0,0,1.31-.31s0,0,0,0l.3-.05v0l0-.54c-.85.07-1.73.18-2.63.33C31.38-53.6,7.35-30.81,6.67,20.57,7.54,20.27,8.42,20,9.3,19.71Z" style="fill:#d8d8d8"/></g><g style="opacity:0.28"><path d="M74.41-54a0,0,0,0,1,0,0,45,45,0,0,1,11.72,8.51C97.31-34.43,106.84-15,108.29,14.72c1.62,0,3.24.15,4.85.28-2.37-49.26-27-70.3-44.26-72l-.07.87a31.59,31.59,0,0,1,5.47,2.08Z" style="fill:#111"/></g></g></svg>