<svg id="Avatars" xmlns="http://www.w3.org/2000/svg" xmlns:xlink="http://www.w3.org/1999/xlink" viewBox="0 0 120 120"><defs><clipPath id="clip-path"><circle cx="60" cy="60" r="60" style="fill:none"/></clipPath><clipPath id="clip-path-2"><circle cx="-80" cy="-76" r="60" transform="translate(7.67 -143) rotate(-80.92)" style="fill:none"/></clipPath><clipPath id="clip-path-3"><path d="M-27,34.15c3.93-63.82-25.42-89.85-44.84-91.26l-1,13.07c12.17.89,36.18,21,32.7,77.39Z" style="fill:none"/></clipPath></defs><title>avatar</title><g style="clip-path:url(#clip-path)"><circle cx="60" cy="60" r="60" style="fill:none"/><path d="M110.24,101.85s0,8.17-5.12,13.81c-6.47,7.18-16.94,9.54-16.94,9.54L96.55,108Z" style="fill:#929293"/><path d="M94.18,117.44c.64,1.79,1.23,3.66,1.79,5.64a107.26,107.26,0,0,1,3.29,18.72,108.56,108.56,0,0,1,10.91,1.57c.8.16,1.6.35,2.39.54-.3-4.31-.77-8.41-1.4-12.27-.38-2.25-.79-4.41-1.26-6.51-.2-.92-.41-1.84-.64-2.72q-.6-2.39-1.26-4.62c-.38-1.23-.76-2.44-1.18-3.62-.23-.71-.48-1.4-.73-2.07l0-.11c-.42-1.12-.85-2.2-1.29-3.25a4.06,4.06,0,0,0-.22-.52c-.49-1.16-1-2.29-1.54-3.39-.6-1.28-1.24-2.51-1.91-3.71C91.64,84,78.25,76,67.77,75.25l-1,13.08C74.53,88.88,87,97.14,94.18,117.44Z" style="fill:#ffb380"/><g style="opacity:0.58"><path d="M109.89,125.13a1.86,1.86,0,0,1-1-1.42,2,2,0,0,1,.33-1.3c-.39-1.59-.82-3.13-1.26-4.62l-.64,0a5.9,5.9,0,0,0-1.2,11.46l.1.85a2.71,2.71,0,0,0,1.41,2.11l-.34-2.78.72-.08.39,3.16a2.46,2.46,0,0,0,.62.06l-.42-3.29.75-.08.39,3.29.53-.19-.38-3.18.74-.09.33,2.77c.06-.06.11-.13.16-.19C110.77,129.39,110.36,127.23,109.89,125.13Zm-3,.43a1.76,1.76,0,0,1-1,.44s-.08,0-.1,0a1.91,1.91,0,0,1-2-1.65,1.91,1.91,0,1,1,3.79-.48A1.91,1.91,0,0,1,106.84,125.56Zm2,2.47c-.45.05-.85-.11-.88-.34s.31-.49.79-.56.85.1.88.36S109.28,128,108.82,128Z" style="fill:#303030"/></g><path d="M106.09,112.1,95.76,122.42c-.56-2-.94-3.19-1.58-5l10.59-8.7c.44,1.05.87,2.13,1.29,3.25l0,.11C106.34,112.77,105.87,111.4,106.09,112.1Z" style="fill:#e27954"/><path d="M11,101.85s0,8.17,5.11,13.81c6.47,7.18,16.94,9.54,16.94,9.54L24.68,108Z" style="fill:#929293"/><path d="M17.17,137.8c.52.2,1,.36,1.52.53l1.62-.27a101.46,101.46,0,0,1,3.56-17.21c.6-1.95,1.24-3.78,1.92-5.54,7.3-18.76,19.17-26.46,26.59-27l-1-13.08c-11.57.84-26.64,10.39-36.11,31.45-.77,1.68-1.5,3.47-2.2,5.32a108.41,108.41,0,0,0-5.68,23.77A33.68,33.68,0,0,1,17.17,137.8Z" style="fill:#ffb380"/><path d="M25.79,115.31c-.68,1.76-1.53,4.21-2.14,6.16l-9.93-10.9c.7-1.85.82-2.19,1.6-3.87Z" style="fill:#e27954"/><path d="M47.43,29.56H74.66A12.37,12.37,0,0,1,87,41.93V89.78a0,0,0,0,1,0,0h-52a0,0,0,0,1,0,0V41.93A12.37,12.37,0,0,1,47.43,29.56Z" style="fill:#ffd7a6"/><g style="opacity:0.17"><path d="M50.62,36.62H71.46a9.47,9.47,0,0,1,9.47,9.47V82.72a0,0,0,0,1,0,0H41.15a0,0,0,0,1,0,0V46.09A9.47,9.47,0,0,1,50.62,36.62Z" style="fill:#0a0a0a"/></g><path d="M44,108.12l-14.7,10.13-.37,1.64-.22-.17c-.8-.59-3.8-2.83-8.45-6.37-1.46-1.12-4-4.28-6-7-1.84-2.43-3.26-4.49-3.26-4.49l19.61-17s6.74-5.46,8.26-5.67c.12,0,.2,0,.25,0a6.5,6.5,0,0,1,1.44,2C44.34,88.51,44,108.12,44,108.12Z" style="fill:#edebeb"/><path d="M110.24,101.85s-1.39,2-3.18,4.4c-2,2.76-4.59,6-6.08,7.1-4.77,3.62-7.8,5.88-8.5,6.41l-.17.13L92,118.25,77.24,108.12S76.91,89.87,80.32,82a7.41,7.41,0,0,1,1.82-2.77.21.21,0,0,1,.15,0h0c1.36,0,8.33,5.69,8.33,5.69Z" style="fill:#edebeb"/><path d="M41.56,136.46c8.49.65,16.81,2.28,25.16,3.76,8,.64,15.87.65,23.79,1V103A28.85,28.85,0,0,0,61.56,74.17L60,74a29,29,0,0,0-29,29v33.62A64.08,64.08,0,0,1,41.56,136.46Z" style="fill:#edebeb"/><path d="M41.56,136.46c3.43.26,6.83.69,10.21,1.2V75.25A23.07,23.07,0,0,0,28.7,98.32v38.54A67.45,67.45,0,0,1,41.56,136.46Z" style="fill:#195e95"/><polygon points="51.77 64.1 69.75 67.11 69.47 74.76 51.83 72.41 51.77 64.1" style="fill:#e27954"/><path d="M51.77,75.25,35.25,91.7a2.47,2.47,0,0,0-.31,3.11l16.83,25.08Z" style="fill:#4b8bb7"/><polygon points="38.32 103.07 33.13 109.87 36.87 111.2 33.9 113.89 38.96 118.53 37.68 113.92 41.29 110.62 36.87 108.36 38.32 103.07" style="fill:#fffa5a"/><path d="M92.48,141.32v-43a22.64,22.64,0,0,0-1.4-7.88A23,23,0,0,0,82.3,79.2h0a23,23,0,0,0-12.9-4v65.16C77.1,140.91,84.78,140.91,92.48,141.32Z" style="fill:#195e95"/><path d="M69.4,75.25,85.92,91.7a2.47,2.47,0,0,1,.31,3.11L69.4,119.89Z" style="fill:#4b8bb7"/><g style="opacity:0.46"><path d="M51.77,75.25v.8l-.47.09c-3,.29-6.75,2.22-10.75,5.06a103.69,103.69,0,0,0-10.14,8.4c-6.25,5.79-12.19,12.25-16.16,16.74-1.84-2.43-3.26-4.49-3.26-4.49l19.61-17s6.74-5.46,8.26-5.67A22.86,22.86,0,0,1,51.77,75.25Z" style="fill:#fff"/></g><g style="opacity:0.28"><path d="M110.24,101.85s-1.39,2-3.18,4.4c-4-4.32-9.85-10.39-16-15.81A95.39,95.39,0,0,0,80.32,82c-3.64-2.38-7-4-9.8-4.25l-1.13-.36V75.25a23,23,0,0,1,12.9,4h0c1.36,0,8.33,5.69,8.33,5.69Z" style="fill:#1e1e1e"/></g><rect x="51.87" y="57.62" width="17.71" height="25.19" rx="6.36" transform="translate(2.62 -2.19) rotate(2.11)" style="fill:#e29764"/><path d="M87,38.12c.6,15.21-10.57,28-25,28.58S35.46,55.41,34.86,40.19a28.76,28.76,0,0,1,.65-7.35,27.66,27.66,0,0,1,6-12.12c.12-.13.21-.26.33-.38a25.27,25.27,0,0,1,18-8.73,25.54,25.54,0,0,1,20.09,8.73,28.13,28.13,0,0,1,5.77,10.21c.23.75.44,1.51.62,2.29A29.44,29.44,0,0,1,87,38.12Z" style="fill:#ffd7a6"/><path d="M42.86,45.67a5,5,0,1,1-4-5.89A5,5,0,0,1,42.86,45.67Z" style="fill:#ffb380"/><path d="M40.82,45.27a2.94,2.94,0,1,1-2.32-3.45A2.94,2.94,0,0,1,40.82,45.27Z" style="fill:#e27954"/><path d="M88.85,45.49a5,5,0,1,1-4-5.89A5,5,0,0,1,88.85,45.49Z" style="fill:#ffb380"/><path d="M86.81,45.09a2.94,2.94,0,1,1-2.32-3.46A3,3,0,0,1,86.81,45.09Z" style="fill:#e27954"/><path d="M84.65,44.05s0,0,0,0c-.1,1.07-.23,2.12-.4,3.16-.13.72-.28,1.42-.42,2.11a32.65,32.65,0,0,1-2.63,7.26s0,0,0,0a25.72,25.72,0,0,1-10.1,11c-.41.23-.83.43-1.25.63a19.36,19.36,0,0,1-7.67,1.94,16.32,16.32,0,0,1-2.1,0,20.3,20.3,0,0,1-7.43-2c-.22-.11-.45-.22-.68-.35a26.13,26.13,0,0,1-9.82-9.57s0,0,0,0a32.83,32.83,0,0,1-4-10.25c-.16-.69-.31-1.39-.41-2.1a33.69,33.69,0,0,1-.42-4.29c0-.42,0-.86,0-1.28s0-.95,0-1.41a0,0,0,0,1,0,0c0-.22,0-.42,0-.64C37.8,27.55,42.9,18.47,50.2,14c0,0,.17.23.17.23,2.74-1.66,6,0,9.27-.21.18,0,.09-.34.27-.36,3.4-.13,9.33-.19,9.33-.18,8.52,4.24,15,14.09,15.47,26.18v.15c0,.73,0,1.45,0,2.16S84.7,43.37,84.65,44.05Z" style="fill:#ea9b65"/><path d="M82.07,42c0,.71,0,1.42-.09,2.1h0c-.09,1.07-.23,2.12-.4,3.16-.13.72-.26,1.42-.42,2.11a31.64,31.64,0,0,1-2.61,7.26s0,0,0,0C76.12,61.41,68.37,70.7,60.07,70.16a20.3,20.3,0,0,1-7.43-2c-.22-.11-.45-.22-.68-.35a26.13,26.13,0,0,1-9.82-9.57s0,0,0,0a32.83,32.83,0,0,1-4-10.25c-.16-.69-.31-1.39-.41-2.1a33.69,33.69,0,0,1-.42-4.29c0-.42,0-.86,0-1.28s0-.95,0-1.41a0,0,0,0,1,0,0c0-.22,0-.42,0-.64C37.8,27.55,43,18.87,50.35,14.38a.44.44,0,0,1,.06-.1c2.75-1.65,6.61-.56,9.86-.78,2.63.18,4.16-1.55,6.51-.38,0,0,0,0,0,0,8.51,4.24,14.78,14.42,15.25,26.51v.15C82.08,40.52,82.08,41.24,82.07,42Z" style="fill:#ffb380"/><path d="M76.93,36.6a.92.92,0,0,1-.91.27c-7.77-2-10.66,2.61-10.78,2.81a.93.93,0,0,1-1.59-1c.15-.25,3.66-6,12.82-3.65a.93.93,0,0,1,.46,1.52Z" style="fill:#563c24"/><path d="M72.4,45a1.24,1.24,0,0,1-2.48,0,1.24,1.24,0,0,1,2.48,0Z" style="fill:#2d2012"/><path d="M86.87,39.15c-2.77,2.26-5.62-2.78-7.34-6.31-.21-.41-.41-.8-.57-1.16l-.12-.16A16.54,16.54,0,0,0,65.1,23.7l-6.87-.15c-8.55-.11-13.22,4.84-16.16,9.29-2.78,4.2-4,7.93-5.49,6.59,0,0-1.31-2-.44-6.59A33.42,33.42,0,0,1,40.8,21.77c.22-.36.44-.72.67-1.05.11-.13.21-.26.33-.38a25.14,25.14,0,0,1,38.13,0,27.88,27.88,0,0,1,5.76,10.21c.22.82.38,1.57.51,2.29.1.45.18.89.28,1.31l0,0,0,.13A15.27,15.27,0,0,1,86.87,39.15Z" style="fill:#ffd7a6"/><path d="M62.84,63.05h-.22a.48.48,0,0,1-.46-.48.5.5,0,0,1,.48-.45h.2c6.24,0,6.84-5.44,6.86-5.67a.45.45,0,0,1,.51-.42.47.47,0,0,1,.42.51A7.46,7.46,0,0,1,62.84,63.05Z" style="fill:#e27954"/><polygon points="54.58 45.54 58.95 41.66 53.02 41.79 50.78 37.18 48.66 41.84 42.58 41.7 47.02 45.62 45.09 51.86 50.77 48.27 56.34 51.86 54.58 45.54" style="fill:#195e95"/><path d="M44.5,36.88l-.09-.13a.93.93,0,0,1,.3-1.27c.24-.15,6-3.61,13.06,2.68a.93.93,0,0,1,.07,1.31.92.92,0,0,1-1.3.07c-6-5.33-10.66-2.6-10.86-2.48A.94.94,0,0,1,44.5,36.88Z" style="fill:#563c24"/><path d="M52,45a1.24,1.24,0,1,1-1.24-1.24A1.24,1.24,0,0,1,52,45Z" style="fill:#2d2012"/><path d="M63.3,52.39H59A1.09,1.09,0,0,1,58,51.3h0A1.09,1.09,0,0,1,59,50.21H63.3a1.09,1.09,0,0,1,1.09,1.09h0A1.09,1.09,0,0,1,63.3,52.39Z" style="fill:#e27954"/><path d="M86.32,32.84H35.52a27.4,27.4,0,0,1,5.95-12.12c.11-.13.21-.26.33-.38H79.93a27.88,27.88,0,0,1,5.76,10.21C85.92,31.3,86.14,32.06,86.32,32.84Z" style="fill:#383838"/><path d="M84.28,32.84H35.52a27.4,27.4,0,0,1,5.95-12.12c.11-.13.21-.26.33-.38H77.89a27.76,27.76,0,0,1,5.77,10.21C83.89,31.3,84.1,32.06,84.28,32.84Z" style="fill:#383838"/><path d="M86.44,32.84h-3c-.13-.72-.29-1.47-.5-2.29a28,28,0,0,0-5.77-10.21h2.88a27.76,27.76,0,0,1,5.77,10.21C86.05,31.3,86.26,32.06,86.44,32.84Z" style="fill:#1e1e1e"/><path d="M43.83,20.34c-.12.12-.22.25-.33.38a27.5,27.5,0,0,0-6,12.12h-2a27.4,27.4,0,0,1,5.95-12.12c.11-.13.21-.26.33-.38Z" style="fill:#545454"/><g style="opacity:0.31"><path d="M56.61,14.38c.36.84-1.39,2.4-3.91,3.49s-4.86,1.29-5.22.45,1.38-2.4,3.91-3.49S56.24,13.54,56.61,14.38Z" style="fill:#fff"/></g></g><g style="clip-path:url(#clip-path-2)"><g style="clip-path:url(#clip-path-3)"><rect x="-74.84" y="6.46" width="88.72" height="3.6" transform="translate(-60.6 17.73) rotate(177.72)" style="fill:#184c2d"/><path d="M.45,21.9l14-.56-.14-3.59L-8,18.63A75,75,0,0,1,.45,21.9Z" style="fill:#184c2d"/></g></g></svg>