<svg id="Avatars" xmlns="http://www.w3.org/2000/svg" xmlns:xlink="http://www.w3.org/1999/xlink" viewBox="0 0 120 120"><defs><clipPath id="clip-path"><circle cx="60" cy="-74.67" r="60" style="fill:none"/></clipPath><clipPath id="clip-path-2"><circle cx="60" cy="60" r="60" transform="translate(-12.4 104.25) rotate(-76.43)" style="fill:none"/></clipPath></defs><title>avatar</title><g style="clip-path:url(#clip-path)"><path d="M84.77,8.18c-.17-.67-.34-1.34-.53-2-.24-.88-.48-1.81-.73-2.69-.05-.21-.12-.42-.17-.61-1.34-4.83-2.63-9-2.63-9-.55-.13-.73-2.25-1.3-2.25L64.84-7.22,41-10.8c-.57,0-1.36,4.5-1.91,4.63,0,0-1.27,4.19-2.61,9l-.91,3.3c-.21.81-.42,1.61-.62,2.4C51.58,9.67,68.15,9,84.77,8.18Z" style="fill:#d32f2f"/><path d="M71,6.15h0a9.63,9.63,0,0,1,6.34,2.39c2.47-.11,4.93-.23,7.4-.36-.17-.67-.34-1.34-.53-2-.24-.88-.48-1.81-.73-2.69h0c-.06-.2-.11-.41-.17-.61H67.73A3.3,3.3,0,0,0,71,6.15Z" style="fill:#aa2929"/><path d="M51.94,2.85a3.3,3.3,0,0,1-3.3,3.3h-13l.91-3.3Z" style="fill:#aa2929"/><path d="M17.18,5.57q2.87.71,5.75,1.31c1.39-19.27,6.64-32.34,12.22-41a.75.75,0,0,1,.07-.12,55.45,55.45,0,0,1,4.12-5.58,44.42,44.42,0,0,1,7.89-7.39l.07,0c.28-.19.54-.39.78-.54,0,0,0,0,0,0a22,22,0,0,1,2.45-1.43s0,0,.05,0l-1.41-3.08-.9-2,0,0-.21-.47-1.18-2.64L46.6-58a.55.55,0,0,0-.19,0,1.28,1.28,0,0,0-.31,0,47.5,47.5,0,0,0-5.32.54s-.07.05-.11.07c-.9.64-1.91,1.39-3,2.29-.83.68-1.72,1.44-2.64,2.3l0,0,0,0c-6.74,6.33-15.1,17.23-20.13,35a11,11,0,0,0-.31,1.16c-.19.63-.35,1.27-.51,1.91s-.29,1.24-.43,1.86c-.19.84-.38,1.67-.56,2.54A122.13,122.13,0,0,0,10.93,4.47,47.54,47.54,0,0,1,17.18,5.57Z" style="fill:#2b2b2b"/><path d="M50.15,3.39H32a1.84,1.84,0,0,1-1.85-1.84V-38.94A21.83,21.83,0,0,1,52-60.77h0L51.57,1.49C51.57,2.51,51.17,3.39,50.15,3.39Z" style="fill:#2b2b2b"/><path d="M71.62-47.78s0,0,0,0c.24.15.5.35.78.54l.07,0a44.42,44.42,0,0,1,7.89,7.39,57,57,0,0,1,4.13,5.58s0,.09.06.12a65.78,65.78,0,0,1,5,9.32C93.12-16.63,96-6,96.86,7.74c4.1,0,8.16.1,12.21.39-.82-14.29-3.59-25.79-7.25-35-.21-.54-.43-1.07-.66-1.6-.66-1.6-1.35-3.14-2.1-4.62A68.2,68.2,0,0,0,84.77-52.72l0,0,0,0c-.17-.16-.33-.32-.51-.47a54.33,54.33,0,0,0-5.12-4.12s-.07-.06-.11-.07a25.66,25.66,0,0,0-3.74-.42L73.62-58a2.76,2.76,0,0,0-.5,0l-1.46,3.27-.21.47,0,0-.9,2-1.41,3.08s0,0,0,0A22,22,0,0,1,71.62-47.78Z" style="fill:#2b2b2b"/><path d="M89.55-38.95V1.55A1.84,1.84,0,0,1,87.7,3.39H69.57a1.83,1.83,0,0,1-1.84-1.84V-60.77c.26,0,.5,0,.76,0a21.72,21.72,0,0,1,15.68,7.48,21.27,21.27,0,0,1,4.11,7A21.83,21.83,0,0,1,89.55-38.95Z" style="fill:#2b2b2b"/><rect x="67.72" y="-34.94" width="1.76" height="38.34" rx="0.5" style="fill:#4f4f4f"/><rect x="50.18" y="-34.94" width="1.76" height="38.34" rx="0.5" style="fill:#4f4f4f"/><g style="opacity:0.21"><path d="M13.55,4.83C15.76-23.89,26-40.82,34.71-50.4c.4-.44.78-.86,1.17-1.26l.33-.34a10.05,10.05,0,0,1,.73-.73v0c.24-.25.48-.47.73-.7l0,0,0-.05.21-.18c.23-.19.51-.4.8-.61,1.39-.94,4.9-2.14,8.12-3.09,1.41-.44,2.77-.82,3.86-1.11v-.68s-1.88.48-4.33,1.18a72.48,72.48,0,0,0-8.73,2.92c-.83.68-1.72,1.44-2.64,2.3l0,0,0,0c-6.74,6.33-15.1,17.23-20.13,35a11,11,0,0,0-.31,1.16c-.19.63-.35,1.27-.51,1.91s-.29,1.24-.43,1.86c-.19.84-.38,1.67-.56,2.54A127.07,127.07,0,0,0,11,4.48C11.86,4.58,12.71,4.69,13.55,4.83Z" style="fill:#fff"/></g><g style="opacity:0.42"><path d="M88.28-46.3c8.31,11,15.46,28.41,18,54.27.94,0,1.89.09,2.83.16-.82-14.29-3.59-25.79-7.25-35-.21-.54-.43-1.07-.66-1.6-.66-1.6-1.35-3.14-2.1-4.62A68.2,68.2,0,0,0,84.77-52.72l0,0,0,0c-.17-.16-.33-.32-.51-.47a22,22,0,0,0-16.44-7.5c2.19.94,5.44,2,7.47,2.89C77.57-56.87,85.31-50.23,88.28-46.3Z"/></g></g><g style="clip-path:url(#clip-path-2)"><circle cx="60" cy="60" r="60" transform="translate(-12.4 104.25) rotate(-76.43)" style="fill:none"/><path d="M16.27,162.68q1.89,0,3.75.09c.77-15.18,3.81-27,7.91-35.85a61.74,61.74,0,0,1,3.56-6.66l.15-.23c5.73-9.12,12.56-14,18-15.6a13.83,13.83,0,0,1,3.18-.6l-.35-4.67-.57-7.93,0-.48c-.73,0-1.48.15-2.23.26l-1.38.27s0,0,0,0a38.31,38.31,0,0,0-16.63,8.8l-.15.13c-1.2,1-2.39,2.2-3.56,3.43C17.2,115,8.22,134.32,6.92,163.32A72,72,0,0,1,16.27,162.68Z" style="fill:#ffb380"/><path d="M89.33,121.36q.84,1.42,1.62,3s0,.11.09.16q1,2,2,4.31c3.5,8.21,6.1,18.73,7,31.89.56.17,1.12.36,1.68.55a79.17,79.17,0,0,1,11.39-.63c-1.59-25.25-9.08-42.88-18.34-54.09a49.19,49.19,0,0,0-3.7-4.08,45,45,0,0,0-11.72-8.51s0,0,0,0a.42.42,0,0,0-.13-.07,32.65,32.65,0,0,0-6.09-2.26.86.86,0,0,0-.25-.07c-.69-.18-1.38-.33-2-.46-.87-.14-1.7-.24-2.54-.31l-.42,5.8-.36,4.92-.17,2.36a16.71,16.71,0,0,1,5.54,1.47C78.09,107.61,84.2,112.69,89.33,121.36Z" style="fill:#ffb380"/><path d="M31.64,100.09V120l-.15.23a61.74,61.74,0,0,0-3.56,6.66V103.65c1.17-1.23,2.36-2.38,3.56-3.43Z" style="fill:#e27954"/><path d="M94.74,106.52l-.88,24.26c-.64-1.51-2.12-4.93-2.82-6.29v-22A49.19,49.19,0,0,1,94.74,106.52Z" style="fill:#e27954"/><path d="M31.49,121.36l.57,43a73,73,0,0,1,7.75,2.1,56.76,56.76,0,0,1,6.1-2.39,58.05,58.05,0,0,1,29.71-6.64h2.12A79,79,0,0,1,91,158.55V115.46a27.28,27.28,0,0,0-1.16-8,23.85,23.85,0,0,0-7.55-11.42,24.51,24.51,0,0,0-2.92-2.13s0,0,0,0a.42.42,0,0,0-.13-.07,28.29,28.29,0,0,0-6.34-3L72,90.56c-.41-.14-.82-.25-1.23-.35l-1-.28h-.08A36.77,36.77,0,0,0,61.2,89a37.9,37.9,0,0,0-7.16.67l-.32,0c-.86.18-1.72.4-2.55.64-.51.13-1,.28-1.49.45s-.92.32-1.38.49c0,0,0,0,0,0a28,28,0,0,0-8.79,5.39,24.49,24.49,0,0,0-8,17.26c0,.51,0,1,0,1.52l0,4.8Z" style="fill:#262626"/><path d="M49.68,90.79v30.57H31.49V100.22a38.51,38.51,0,0,1,16.78-8.93s0,0,0,0C48.76,91.11,49.2,91,49.68,90.79Z" style="fill:#262626"/><path d="M91,102.44l0,6.73,0,11.93v.26H72.83V90.82a28.29,28.29,0,0,1,6.34,3,.42.42,0,0,1,.13.07s0,0,0,0A45,45,0,0,1,91,102.44Z" style="fill:#262626"/><g style="opacity:0.4"><path d="M75.28,126.54c-4.45-9.35-6.23-13.69-14.08-13.69s-9.62,4.34-14.07,13.69-2.28,19,2,19,8.75-5.79,12.11-5.79,7.87,5.79,12.11,5.79S79.73,135.88,75.28,126.54Z" style="fill:#fff"/></g><path d="M63.39,147V106.79a1.54,1.54,0,0,0-1.54-1.54h-1.3A1.54,1.54,0,0,0,59,106.79v41.08C60.46,147.51,61.91,147.2,63.39,147Z" style="fill:#ddd"/><rect x="51.87" y="115.37" width="18.66" height="2.88" rx="1.03" style="fill:#ddd"/><path d="M72.24,111.06h-22a1.45,1.45,0,0,1-1.44-1.44h0a1.45,1.45,0,0,1,1.44-1.44h22a1.45,1.45,0,0,1,1.44,1.44h0A1.45,1.45,0,0,1,72.24,111.06Z" style="fill:#ddd"/><path d="M51.28,109.31a1.93,1.93,0,1,1-1.93-1.92A1.92,1.92,0,0,1,51.28,109.31Z" style="fill:#ddd"/><path d="M75,109.31a1.93,1.93,0,1,1-1.92-1.92A1.92,1.92,0,0,1,75,109.31Z" style="fill:#ddd"/><g style="opacity:0.34"><path d="M51.92,91.52c-.28,0-.57.1-.85.17,0,0,0,0,0,0L49.73,92l0,0a36.06,36.06,0,0,0-10.2,4.65q-.46.3-.93.63a46.74,46.74,0,0,0-4.29,3.32c-.94.82-1.87,1.69-2.77,2.63v-3a38.51,38.51,0,0,1,16.78-8.93s0,0,0,0c.46-.17.9-.33,1.38-.49s1-.32,1.49-.45c0,0,0,0,.06,0a1.59,1.59,0,0,0,.61.09l0,.48Z" style="fill:#fff"/></g><g style="opacity:0.74"><path d="M91,102.44h0a.8.8,0,0,1-.13-.13Z" style="fill:#262626"/><path d="M91,102.44l0,6.73c-.39-.57-.8-1.15-1.21-1.69a58,58,0,0,0-5.37-6.17,45,45,0,0,0-11.59-8.44l-.13-.07a0,0,0,0,0,0,0l-.13-.06a31.59,31.59,0,0,0-5.47-2.08l.08-1q1.2.1,2.46.3h.08l1,.28c.41.1.82.21,1.23.35l.85.26a28.29,28.29,0,0,1,6.34,3,.42.42,0,0,1,.13.07s0,0,0,0A45,45,0,0,1,91,102.44Z" style="fill:#111"/></g><polygon points="36.02 49.13 22.7 28.45 39.91 43.86 36.02 49.13" style="fill:#fc2929"/><polygon points="43.77 38.1 34.3 15.4 48.53 33.6 43.77 38.1" style="fill:#fc2929"/><polygon points="84.31 49.19 97.62 28.5 80.42 43.92 84.31 49.19" style="fill:#fc2929"/><polygon points="76.56 38.16 86.03 15.45 71.8 33.65 76.56 38.16" style="fill:#fc2929"/><polygon points="57.12 32.32 59.05 7.79 63.41 30.48 57.12 32.32" style="fill:#fc2929"/><path d="M73.14,94.92c0,4-5.42,7.23-12.12,7.23S48.9,98.92,48.9,94.92,54.33,87.7,61,87.7,73.14,90.93,73.14,94.92Z" style="fill:#ea9b65"/><path d="M69.45,90.22c.38,4.68-3.13,7.58-7.82,8a8.62,8.62,0,0,1-9.17-7.94l-.21-2.66L52,84.09l-.24-2.94-.2-2.43-.19-2.29,17-1.39.45,6.13,0,.43L69,84.21l.44,5.68Z" style="fill:#ea9b65"/><path d="M70.23,83.58c-.4.23-.82.44-1.24.63l.44,5.68-17.18-2.3L52,84.09l-.68-.35,0-2.76V78.67l.27,0,16.41,2.73.87.15,1.5.25Z" style="fill:#e27954"/><path d="M86,54.35c.6,15.06-10.47,27.74-24.74,28.31S34.94,71.48,34.34,56.41,44.81,28.67,59.07,28.1,85.39,39.28,86,54.35Z" style="fill:#fc2929"/><path d="M42,62.73A5,5,0,1,1,38,56.89,5,5,0,0,1,42,62.73Z" style="fill:#ffb380"/><path d="M39.94,62.33a2.92,2.92,0,1,1-2.29-3.42A2.91,2.91,0,0,1,39.94,62.33Z" style="fill:#e27954"/><path d="M88.63,62.73a5,5,0,1,1-3.92-5.84A5,5,0,0,1,88.63,62.73Z" style="fill:#ffb380"/><path d="M86.61,62.33a2.92,2.92,0,1,1-2.3-3.42A2.92,2.92,0,0,1,86.61,62.33Z" style="fill:#e27954"/><path d="M83.65,60.22s0,0,0,0c-.09,1.07-.22,2.1-.39,3.13-.13.71-.28,1.4-.42,2.08a31.49,31.49,0,0,1-2.6,7.19s0,0,0,0a25.56,25.56,0,0,1-10,10.92c-.41.22-.82.42-1.24.62a18.82,18.82,0,0,1-7.6,1.9,15.53,15.53,0,0,1-1.93,0h0a19.93,19.93,0,0,1-7.49-2c-.23-.1-.45-.22-.68-.34a25.9,25.9,0,0,1-9.73-9.49s0,0,0,0a32.08,32.08,0,0,1-4-10.16c-.15-.68-.3-1.37-.4-2.07a34.76,34.76,0,0,1-.42-4.25c0-.42,0-.85,0-1.27s0-.93,0-1.38a.06.06,0,0,1,0-.06c0-.2,0-.42,0-.62.53-10.52,5.58-19.52,12.81-24,0,0,0,0,0,0a19.64,19.64,0,0,1,9.33-2.91h.15a19.45,19.45,0,0,1,9.54,2.08s0,0,0,0c8.43,4.2,14.64,14.28,15.1,26.26V56c0,.73,0,1.45,0,2.16S83.71,59.54,83.65,60.22Z" style="fill:#ea9b65"/><path d="M81.55,60.22s0,0,0,0c-.09,1.07-.22,2.1-.39,3.13-.13.71-.26,1.4-.42,2.08a31.49,31.49,0,0,1-2.6,7.19s0,0,0,0a25.56,25.56,0,0,1-10,10.92c-.4.22-.82.42-1.24.62a18.72,18.72,0,0,1-7.43,1.89h0a19.93,19.93,0,0,1-7.49-2c-.23-.1-.45-.22-.68-.34a25.9,25.9,0,0,1-9.73-9.49s0,0,0,0a32.08,32.08,0,0,1-4-10.16c-.15-.68-.3-1.37-.4-2.07a34.76,34.76,0,0,1-.42-4.25c0-.42,0-.85,0-1.27s0-.93,0-1.38a.06.06,0,0,1,0-.06c0-.2,0-.42,0-.62.53-10.52,5.58-19.52,12.81-24,0,0,0,0,0,0a19.64,19.64,0,0,1,9.33-2.91h0a20.11,20.11,0,0,1,7.59,2.07,0,0,0,0,1,0,0c8.43,4.2,14.64,14.28,15.1,26.26V56c0,.73,0,1.45,0,2.16S81.61,59.54,81.55,60.22Z" style="fill:#ffb380"/><path d="M44.62,56.52l-.09-.13a.91.91,0,0,1,.26-1.26c.23-.15,5.84-3.73,13,2.3a.92.92,0,1,1-1.18,1.4C50.54,53.71,46,56.54,45.79,56.66A.91.91,0,0,1,44.62,56.52Z" style="fill:#5ac640"/><path d="M77.1,55.27a.93.93,0,0,1-.94,0c-6.88-4-10.86-.37-11-.22a.91.91,0,0,1-1.26-1.32c.21-.2,5.09-4.72,13.2,0A.92.92,0,0,1,77.41,55,1,1,0,0,1,77.1,55.27Z" style="fill:#5ac640"/><path d="M85.3,50.57v-.12l0,0a33.32,33.32,0,0,0-3.77-11C75.57,28.47,66.71,27.57,64.27,27.48c-2.1-.08-7.3-.59-10.14.14-1.75.45-8.43,1.22-14.1,10.55C32.53,50.5,34.83,56,36.68,56.81h0c.86-.1,5.46-8.41,7.62-10.94l.13-.16a16.44,16.44,0,0,1,12.85-5.78l6.81.14A16.39,16.39,0,0,1,77.7,47.81l.11.17c2,3.26,7.23,10.21,7.28,8.6h0C85.66,55.48,85.92,53.56,85.3,50.57Z" style="fill:#fc2929"/><path d="M62.51,68.49H58.3a1.08,1.08,0,0,1-1.08-1.08h0a1.08,1.08,0,0,1,1.08-1.08h4.21a1.08,1.08,0,0,1,1.08,1.08h0A1.09,1.09,0,0,1,62.51,68.49Z" style="fill:#e27954"/><path d="M52.47,61a1.23,1.23,0,1,1-1.22-1.23A1.22,1.22,0,0,1,52.47,61Z" style="fill:#262626"/><path d="M71.52,61A1.23,1.23,0,1,1,70.3,59.8,1.22,1.22,0,0,1,71.52,61Z" style="fill:#262626"/><path d="M59.45,73.2l5.35,1.46c-1,3.84-4.27,6.35-7.2,5.58s-4.53-4.59-3.52-8.45Z" style="fill:#5e2526"/><path d="M54.1,71.74s-.15.53-.18.69-.06.56-.06.56l10.56,2.77s.2-.44.25-.59.15-.56.15-.56Z" style="fill:#fff"/><path d="M54.42,77.32a17.79,17.79,0,0,1,7.39,1.94,7,7,0,0,1-2.12,1,4.51,4.51,0,0,1-2.5-.15A5,5,0,0,1,54.42,77.32Z" style="fill:#ff3636"/><path d="M56,73.54a30,30,0,0,1-2.45,1.86c0-.16.38-2.88.38-2.88Z" style="fill:#fff"/><path d="M62.34,75.18A28.94,28.94,0,0,0,63.57,78c0-.17,1.1-2.84,1.1-2.84Z" style="fill:#fff"/><path d="M59.6,83.62c-.13.62-1.18.92-2.36.68s-2-1-1.89-1.57,1.19-.92,2.36-.67S59.73,83,59.6,83.62Z" style="fill:#ea9b65"/><path d="M34.26,60.84l-2.2-.49a.79.79,0,0,1-.6-.94h0a.79.79,0,0,1,.94-.6l2.2.48a.79.79,0,0,1,.6.94h0A.79.79,0,0,1,34.26,60.84Z" style="fill:#acaeaf"/><path d="M33.88,63.64l-2.2-.48a.79.79,0,0,1-.6-.95h0a.79.79,0,0,1,.94-.6l2.2.48a.8.8,0,0,1,.6.94h0A.79.79,0,0,1,33.88,63.64Z" style="fill:#acaeaf"/><path d="M73.48,55.38h0a.85.85,0,0,1-.85-.85V51.15a.85.85,0,0,1,.85-.85h0a.85.85,0,0,1,.85.85v3.38A.85.85,0,0,1,73.48,55.38Z" style="fill:#c1c1c1"/><g style="opacity:0.24"><path d="M46.5,40.32c-1.27,2-3.16,3.08-4.22,2.41s-.9-2.84.37-4.85,3.16-3.08,4.23-2.4S47.77,38.32,46.5,40.32Z" style="fill:#fff"/></g><g style="opacity:0.24"><path d="M52.73,34.63c-.55.87-1.46,1.28-2,.92s-.59-1.37,0-2.24,1.46-1.28,2-.92S53.29,33.76,52.73,34.63Z" style="fill:#fff"/></g></g></svg>