<svg id="Avatars" xmlns="http://www.w3.org/2000/svg" xmlns:xlink="http://www.w3.org/1999/xlink" viewBox="0 0 120 120"><defs><clipPath id="clip-path"><circle cx="60" cy="60" r="60" transform="translate(-8.72 109.78) rotate(-80.92)" style="fill:none"/></clipPath><clipPath id="clip-path-2"><circle cx="-80" cy="60" r="60" transform="translate(-126.62 -28.47) rotate(-80.92)" style="fill:none"/></clipPath><clipPath id="clip-path-3"><path d="M-27,170.15c3.93-63.82-25.42-89.85-44.84-91.26l-1,13.07c12.17.89,36.18,21,32.7,77.39Z" style="fill:none"/></clipPath></defs><title>avatar</title><g style="clip-path:url(#clip-path)"><circle cx="60" cy="60" r="60" transform="translate(-8.72 109.78) rotate(-80.92)" style="fill:none"/><path d="M47.63,131.65c2.29-.75,4.59-1.48,6.92-2.11a158.73,158.73,0,0,1,26.71-4.42,24.17,24.17,0,0,0,5.45-15.22L86.53,39l-5.94.63-2.9.31L39.13,44l-2.42-1.84L34.33,109.9A24.81,24.81,0,0,0,47.63,131.65Z" style="fill:#ffd7a6"/><g style="opacity:0.19"><path d="M82.76,121.64H40.64V57.35c0-1.92.07-3.78.2-5.6a60.11,60.11,0,0,1,1-7.72c.23-1.2.49-2.34.77-3.37.08-.32.17-.57.26-.83a27.81,27.81,0,0,1,1.49-4c1.08-2.23,2.33-3.83,3.69-4.46a3.27,3.27,0,0,1,.88-.26.3.3,0,0,1,.2,0l.88-.1,4.57-.52,1-.1.85-.11h0l9.7-1L67.34,29c0-.05,0-.05,0,0l4.54-.52,1.14-.1.28-.05c2.28-.26,0-.64,1.58,3.41,0,.1,2.24,4.64,2.29,4.8C77.76,38,80.55,38.12,81,40c.05.26.1.57.16.83.33,1.56.6,3.06.81,4.82v.11s0,.1,0,.2a75.35,75.35,0,0,1,.5,8.46l0,6.84v.16l0,5.08.15,37.22Z" style="fill:#0a0a0a"/></g><path d="M60.84,94h0Z" style="fill:#50891f"/><path d="M71.17,90.16a0,0,0,0,0,0,0s0,0,0,0c.24.15.5.35.78.54l.07.05A44.77,44.77,0,0,1,80,98.18a55.45,55.45,0,0,1,4.12,5.58.75.75,0,0,1,.07.12,65.93,65.93,0,0,1,5,9.44A82.3,82.3,0,0,1,93,124.39a106.33,106.33,0,0,1,12.66.53c-4.79-20.55-14-32.82-21.35-39.68l0,0,0,0a13.64,13.64,0,0,0-2.47-1.81c-1.34-.78-2.64-1.34-3.64-2,0,0-1.2-.42-2.45-.79a16.62,16.62,0,0,0-2.5-.55,2.85,2.85,0,0,0-.5,0l-1.1,2.45-.37.82-.2.47,0,0-.91,2-1.4,3.08,0,0A23.63,23.63,0,0,1,71.17,90.16Z" style="fill:#bbdaff"/><path d="M26.41,135.11a87.18,87.18,0,0,1,6.46-22.62,66.94,66.94,0,0,1,4.66-8.61l.07-.12a55.45,55.45,0,0,1,4.12-5.58,44.77,44.77,0,0,1,7.89-7.39l.07-.05c.28-.19.54-.39.79-.54,0,0,0,0,0,0l.05,0a21.76,21.76,0,0,1,2.4-1.4s0,0,.06,0l-1.41-3.08-.91-2v0l-.21-.47-1-2.28-.43-1a2.89,2.89,0,0,0-.51,0,19.17,19.17,0,0,0-2.64.45,14.9,14.9,0,0,0-2.21.59s-1,.52-2.19,1.27a.42.42,0,0,0-.14.09,25.18,25.18,0,0,0-3.87,2.8l-.06,0,0,0C29,93,18.26,107.83,14.32,133.8,18.34,134.11,22.36,134.57,26.41,135.11Z" style="fill:#bbdaff"/><path d="M37.84,108.41c.89,11.58,2.28,24.35,2.28,24.35l-.2,1.41c4.87-1.54,9.68-3.29,14.63-4.63A161.45,161.45,0,0,1,82.36,125c.46-4.66,1-10.78,1.48-16.61.12-1.55.22-3.06.31-4.52,0-.7.1-1.4.14-2.06V93.25l0-2.72-5.7-6.76h0a19.49,19.49,0,0,0-2.1-2c-.56-.46-1.13-.89-1.72-1.31l0,0h0l-.56-.1c-.36-.07-.66-.37-1-.42a3.13,3.13,0,0,0-.51,0c-1.13-.09-3.55-.16-4.24-.18h-.26v.06l-.21.5-1,2.33-6.11.21h0l-6.11-.21-1-2.33-.21-.5v-.06h-.26c-.69,0-3.11.09-4.24.18a3.13,3.13,0,0,0-.51,0c-.34.05-.64.35-1,.42l-.56.1h0l0,0c-.59.42-1.16.85-1.72,1.31a19.49,19.49,0,0,0-2.1,2h0l-5.67,9.47v8.58c0,.66.09,1.36.14,2.06C37.61,105.35,37.72,106.86,37.84,108.41Z" style="fill:#e8e9ea"/><path d="M70.43,83.2a4.07,4.07,0,0,0-1.36-2.88,7.74,7.74,0,0,0-2.23-2.13,16.31,16.31,0,0,0-5.32-.85H60.16a16.26,16.26,0,0,0-5.32.85,8.36,8.36,0,0,0-2.25,2,.52.52,0,0,0,0,.11,4.09,4.09,0,0,0-1.37,2.88c0,3.09,4.24,5.64,9.59,5.84h0C66.19,88.84,70.43,86.29,70.43,83.2Z" style="fill:#ea9b65"/><path d="M34.88,135.64C41.06,134,47,131.7,53.19,129.93l-.13-34.59h0L53,80.43V78.62A20,20,0,0,0,45.63,80a18.82,18.82,0,0,0-4.19,2.26.42.42,0,0,0-.14.09,20.24,20.24,0,0,0-7.09,9.23,20.58,20.58,0,0,0-1.34,7.35v36.7C33.54,135.66,34.21,135.65,34.88,135.64Z" style="fill:#f469af"/><path d="M86.77,124.66c.8-.06,1.6-.08,2.4-.12V99.08A20.44,20.44,0,0,0,76,80a19.74,19.74,0,0,0-5.33-1.25c-.63-.06-1.27-.09-1.93-.09v48C74.71,125.71,80.8,125.1,86.77,124.66Z" style="fill:#f469af"/><path d="M53.06,95.33l-2.53-5.18-4-8.3-.7-1.44-.21-.4v0A15.53,15.53,0,0,1,53,78.62v1.81Z" style="fill:#303030"/><path d="M76,79.92l0,0-.26.55-1.28,2.75-3.24,6.9-2.48,5.31,0-13.93,0-1.5V78.62h.06a13.2,13.2,0,0,1,2.08,0A14.15,14.15,0,0,1,76,79.92Z" style="fill:#303030"/><path d="M81.81,102.85c-2.12-.75-3.07,1.13-3.45,3.4C78,104,77,102,74.88,102.85c-5.17,2.06,2.32,9,3.43,9.9v.11l.06,0,.06,0v-.11C79.56,111.81,87.32,104.8,81.81,102.85Z" style="fill:#303030"/><g style="opacity:0.46"><path d="M18.11,134.13c2.82-20.22,9.43-33.89,16.1-42.54.83-1.1,1.69-2.1,2.54-3,.4-.44.78-.86,1.16-1.26l.33-.34c.25-.26.47-.49.73-.73v0l.73-.7,0,0,0,0,.21-.18c.23-.19.5-.4.8-.61a32.83,32.83,0,0,1,5.74-2.78,30.17,30.17,0,0,1,2.88-.94A12,12,0,0,1,53,80.43V78.62A15.53,15.53,0,0,0,45.63,80v0a18.82,18.82,0,0,0-4.19,2.26.42.42,0,0,0-.14.09,25.18,25.18,0,0,0-3.87,2.8l-.06,0,0,0C29,93,18.26,107.83,14.32,133.8,15.58,133.89,16.85,134,18.11,134.13Z" style="fill:#fff"/></g><g style="opacity:0.17"><path d="M68.63,81.54h0s0,0,0,0c.92.24,1.91.52,2.9.81s1.91.58,2.82.89a20.86,20.86,0,0,1,4.53,1.93,3.28,3.28,0,0,1,.63.49l.21.17,0,.05,0,0c.2.19.4.4.6.61l.63.62c.42.42.83.87,1.25,1.32.14.14.26.28.4.44A69.66,69.66,0,0,1,89.06,97a86,86,0,0,1,11.82,27.53c1.61.09,3.21.22,4.8.38-4.79-20.55-14-32.82-21.35-39.68l0,0,0,0a13.64,13.64,0,0,0-2.47-1.81A20.2,20.2,0,0,0,76,80l0,0a14.15,14.15,0,0,0-5.2-1.32l-.15.11c-.84.55-1.53,1-1.93,1.32h-.06l-.33.25.33,1.21Z" style="fill:#262626"/></g><ellipse cx="61.7" cy="42.14" rx="25" ry="26.14" style="fill:#ffd7a6"/><path d="M68.63,58.29V80.82c0,3.69-3.32,6.71-7.41,6.77h-.1c-4.49,0-8.16-3.31-8.14-7.38V58.27a5.91,5.91,0,0,1,.21-1.58,3.81,3.81,0,0,1,.19-.57v0a2.5,2.5,0,0,1,.3-.64,7.08,7.08,0,0,1,3.47-3.24,5.32,5.32,0,0,1,.66-.26,2.13,2.13,0,0,1,.61-.17,7.3,7.3,0,0,1,2-.28h.66A7.87,7.87,0,0,1,63.9,52c.22.08.45.17.66.27a6.37,6.37,0,0,1,.73.39h0a7.29,7.29,0,0,1,2.47,2.5v0a5.17,5.17,0,0,1,.38.74v0a4,4,0,0,1,.21.61v0A5.83,5.83,0,0,1,68.63,58.29Z" style="fill:#ea9b65"/><polygon points="68.64 70.3 68.62 77.37 52.98 74.42 52.98 69.51 68.64 70.3" style="fill:#e27954"/><path d="M45.37,53.32A4.29,4.29,0,1,1,41.08,49,4.29,4.29,0,0,1,45.37,53.32Z" style="fill:#ffb380"/><path d="M43.7,53.32a2.62,2.62,0,1,1-2.62-2.62A2.61,2.61,0,0,1,43.7,53.32Z" style="fill:#e27954"/><path d="M85.79,54.14a4.38,4.38,0,1,1-4.37-4.38A4.37,4.37,0,0,1,85.79,54.14Z" style="fill:#ffb380"/><path d="M84.35,54.14a2.68,2.68,0,1,1-2.68-2.68A2.68,2.68,0,0,1,84.35,54.14Z" style="fill:#e27954"/><path d="M82.11,48.16c0,14.51-9.34,26.26-20.85,26.26-.46,0-.92,0-1.39-.07C49,73.46,40.42,62.08,40.42,48.16S49,22.88,59.87,22c.47,0,.93-.07,1.39-.07C72.77,21.92,82.11,33.67,82.11,48.16Z" style="fill:#ea9b65"/><path d="M79.33,48.16c0,13.92-8.59,25.3-19.46,26.19C49,73.46,40.42,62.08,40.42,48.16S49,22.88,59.87,22C70.74,22.88,79.33,34.26,79.33,48.16Z" style="fill:#ffb380"/><path d="M53.82,50.58a1.22,1.22,0,1,1-1.22-1.22A1.22,1.22,0,0,1,53.82,50.58Z" style="fill:#363b4f"/><path d="M71.14,50.58a1.22,1.22,0,1,1-1.22-1.22A1.22,1.22,0,0,1,71.14,50.58Z" style="fill:#363b4f"/><path d="M62.86,56.81H59.27a1,1,0,0,1-1-1h0a1,1,0,0,1,1-1h3.59a1,1,0,0,1,1,1h0A1,1,0,0,1,62.86,56.81Z" style="fill:#e27954"/><path d="M55.28,46.36h-5.6a.81.81,0,0,1-.81-.8h0a.81.81,0,0,1,.81-.8h5.6a.8.8,0,0,1,.8.8h0A.8.8,0,0,1,55.28,46.36Z" style="fill:#c17542"/><path d="M72.72,46.36H67.13a.8.8,0,0,1-.81-.8h0a.8.8,0,0,1,.81-.8h5.59a.8.8,0,0,1,.81.8h0A.8.8,0,0,1,72.72,46.36Z" style="fill:#c17542"/><path d="M60.68,65.94a8.5,8.5,0,0,1-5.26-2,.46.46,0,0,1-.08-.65.47.47,0,0,1,.66-.08c5.39,4.18,9.46-.16,9.64-.35a.47.47,0,0,1,.69.63A8.38,8.38,0,0,1,60.68,65.94Z" style="fill:#e27954"/><path d="M79.89,33.41s-33.54,15.36-40,6.37L50.47,22.54H65.55Z" style="fill:#ffd7a6"/><path d="M82.11,32.25H93.4a2,2,0,0,1,2,2v1.63a2,2,0,0,1-2,2H82.11a0,0,0,0,1,0,0V32.25A0,0,0,0,1,82.11,32.25Z" style="fill:#d85da1"/><path d="M86.44,38H37.18a23.55,23.55,0,0,1,3.64-12.64,22.94,22.94,0,0,1,3.33-4.21,23.73,23.73,0,0,1,15.9-6.94c.31,0,.62,0,1,0h1.62c.31,0,.61,0,.9,0A23.82,23.82,0,0,1,86.44,38Z" style="fill:#353535"/><path d="M47.42,36.05V38H37.18a22.83,22.83,0,0,1,.26-3.53,23.37,23.37,0,0,1,3.37-9.11,11.78,11.78,0,0,1,3.08,2.23,11.94,11.94,0,0,1,3.41,6.88A10.74,10.74,0,0,1,47.42,36.05Z" style="fill:#ffd7a6"/><path d="M47.73,34.43V38H37.18a22.83,22.83,0,0,1,.26-3.53Z" style="fill:#353535"/><path d="M40.64,36.2a.86.86,0,0,1-.86.85.85.85,0,1,1,0-1.7A.86.86,0,0,1,40.64,36.2Z" style="fill:#fff"/><circle cx="44.05" cy="36.2" r="0.85" style="fill:#fff"/><circle cx="81.67" cy="57.6" r="0.78" style="fill:#303030"/><circle cx="39.49" cy="56.57" r="0.78" style="fill:#303030"/><circle cx="37.81" cy="54.45" r="0.78" style="fill:#303030"/><rect x="35.81" y="52.08" width="3.05" height="1.06" rx="0.38" style="fill:#303030"/><g style="opacity:0.38"><path d="M63.57,14.18a23.72,23.72,0,0,0-15.89,6.94,22.52,22.52,0,0,0-3.33,4.21A23.55,23.55,0,0,0,40.71,38H37.18a23.55,23.55,0,0,1,3.64-12.64,22.94,22.94,0,0,1,3.33-4.21,23.79,23.79,0,0,1,16.85-7h1.62C62.93,14.15,63.26,14.15,63.57,14.18Z" style="fill:#fff"/></g><path d="M86.44,38H82.33c0-12.85-9.3-23.32-22-23.8.22,0,.47,0,.71,0h1.62A23.81,23.81,0,0,1,86.44,38Z"/></g><g style="clip-path:url(#clip-path-2)"><g style="clip-path:url(#clip-path-3)"><rect x="-76.91" y="90.28" width="88.72" height="3.6" transform="translate(-61.42 185.38) rotate(177.72)" style="fill:#184c2d"/><rect x="-76.39" y="103.32" width="88.72" height="3.6" transform="translate(-59.86 211.44) rotate(177.72)" style="fill:#184c2d"/><rect x="-75.87" y="116.37" width="88.72" height="3.6" transform="translate(-58.31 237.5) rotate(177.72)" style="fill:#184c2d"/></g></g></svg>