<svg id="Avatars" xmlns="http://www.w3.org/2000/svg" xmlns:xlink="http://www.w3.org/1999/xlink" viewBox="0 0 120 120"><defs><clipPath id="clip-path"><circle cx="60" cy="60" r="60" transform="translate(-18 26.6) rotate(-21.82)" style="fill:none"/></clipPath><clipPath id="clip-path-2"><circle cx="60" cy="-74.67" r="60" style="fill:none"/></clipPath></defs><title>avatar</title><g style="clip-path:url(#clip-path)"><circle cx="60" cy="60" r="60" transform="translate(-18 26.6) rotate(-21.82)" style="fill:none"/><polygon points="84.92 87.77 34.64 87.77 35.8 37.57 84.56 33.75 84.92 87.77" style="fill:#5ac640"/><rect x="22.39" y="72.16" width="75.93" height="22.15" rx="7.92" style="fill:#5ac640"/><rect x="22.39" y="61.08" width="75.93" height="22.15" rx="7.92" style="fill:#5ac640"/><rect x="30.79" y="64" width="59.66" height="15.04" rx="5.38" style="fill:#42892e"/><rect x="30.79" y="76.27" width="59.66" height="15.04" rx="5.38" style="fill:#42892e"/><rect x="40.46" y="39.95" width="39.79" height="44.66" style="fill:#42892e"/><path d="M59.76,88.69h0Z" style="fill:#50891f"/><path d="M70.13,84.83s0,0,0,0l.78.54.07,0a44.42,44.42,0,0,1,7.89,7.39A57,57,0,0,1,83,98.41a1.34,1.34,0,0,0,.06.12c.16.23.3.47.46.72.88,1.42,1.77,3,2.62,4.62.28.54.56,1.08.82,1.64,3.49,7.22,6.43,16.62,7.82,28.68l.38.14q5.92,0,11.84.13c-2.78-26.52-12.53-42.41-20.86-51.57-.14-.16-.26-.3-.4-.44-.41-.45-.83-.9-1.25-1.32l-.63-.63c-.2-.2-.4-.41-.6-.6l0,0,0,0c-.07,0-.14-.12-.21-.18-2-1.39-8.55-1.7-11.44-1.77l-1.37,0-.21.47,0,0-.9,2-.37.78-1,2.29s0,0,.05,0A21.24,21.24,0,0,1,70.13,84.83Z" style="fill:#f7468e"/><path d="M25.45,129.09a83.94,83.94,0,0,1,7.81-25l.05-.11c.66-1.28,1.34-2.5,2-3.65.37-.62.75-1.23,1.11-1.81a.47.47,0,0,0,.07-.12,58.7,58.7,0,0,1,4.12-5.58,44.76,44.76,0,0,1,7.9-7.39h0l0,0,.78-.54s0,0,0,0a21.24,21.24,0,0,1,2.45-1.42s0,0,0,0L50.5,80.3l-.9-2,0,0-.21-.47s-10.31,0-12.81,1.79c-.07.06-.14.13-.21.18l-.05,0,0,0c-.24.22-.48.47-.73.71s-.48.47-.73.73l-.33.35-1.16,1.25C25.4,91.65,16.24,106.49,13,130.7Q19.2,129.68,25.45,129.09Z" style="fill:#f7468e"/><path d="M51.44,85.41l.5.19.26.09Z" style="fill:#af36b2"/><path d="M35.34,100.34l.91,6.89.73,5.6-.28,8.39-.22,7.05c7.12-.34,14.28-.39,21.5-.24a126.36,126.36,0,0,1,25,2.57l-.64-9.38-.71-10.34L83,102.69l.58-3.44,2.29-13.76.33-2a1.5,1.5,0,0,0-.4-1c-.41-.45-.83-.9-1.25-1.32l-.63-.63c-.2-.2-.4-.41-.6-.6l0,0,0,0c-.07,0-.14-.12-.21-.18a3.25,3.25,0,0,0-.63-.48C80.72,78,75.83,76.52,72,75.5c-2.69-.75-4.81-1.25-4.81-1.25l.19.69.14.52a6.91,6.91,0,0,1-5.32,6.47,7.54,7.54,0,0,1-2.09.3h-.1a8.39,8.39,0,0,1-8-6.14,6.36,6.36,0,0,1-.12-1.24v-.71s-1,.26-2.57.68c-3.62,1-10,2.85-12,4.21a9.79,9.79,0,0,0-.8.6c-.07.06-.14.13-.21.18l-.05,0,0,0-.73.69v0c-.26.24-.48.47-.73.73l-.33.35c-.35.87-.83,2-1.2,2.92L34.11,91Z" style="fill:#f7468e"/><path d="M47.54,86.92h0Z" style="fill:#50891f"/><path d="M80.25,115.12,73.42,103.5l8.93-24.35a8.21,8.21,0,0,1,.84.67l0,.05,0,0c.94.91,2.91,2.93,2.91,2.93Z" style="fill:#f7468e"/><circle cx="72.12" cy="97.61" r="4.49" style="fill:#fff"/><path d="M69.09,88.39h1.17a1.46,1.46,0,0,1,1.46,1.46V97.4a0,0,0,0,1,0,0H67.63a0,0,0,0,1,0,0V89.85A1.46,1.46,0,0,1,69.09,88.39Z" style="fill:#fff"/><path d="M74,88.39h1.17a1.46,1.46,0,0,1,1.46,1.46V97.4a0,0,0,0,1,0,0H72.52a0,0,0,0,1,0,0V89.85A1.46,1.46,0,0,1,74,88.39Z" style="fill:#fff"/><rect x="70.45" y="97.14" width="3.34" height="1.08" rx="0.39" style="fill:#f7468e"/><g style="opacity:0.46"><path d="M15.6,130.28c3.31-24,12.42-38.68,20.28-47.34.4-.44.78-.85,1.17-1.25l.33-.35a10.05,10.05,0,0,1,.73-.73v0c.24-.24.48-.47.73-.69l0,0,.05,0c.07,0,.14-.12.21-.18.23-.19.51-.4.8-.6,2-1.36,8.36-3.22,12-4.21v-.68s-11.7,3-14.55,4.89a8.74,8.74,0,0,0-1,.78l-.05,0,0,0-.73.69-.73.75-.33.35s-.76.83-1.16,1.25C25.4,91.65,16.24,106.49,13,130.7Z" style="fill:#fff"/></g><g style="opacity:0.17"><path d="M78.41,129.71c1.53.25,3,.56,4.55.89l-.64-9.38-.72-10.34,1.94-11.63c-3.14,4.06-6.42,11.63-6.42,11.63l.71,10.34Z" style="fill:#262626"/></g><g style="opacity:0.17"><path d="M67.57,75.52c3.79,1,8.67,2.5,10.31,3.65a3.5,3.5,0,0,1,.62.48l.21.18.05,0,0,0c.21.2.4.4.61.61l.62.63c.42.42.84.87,1.25,1.32.14.14.26.28.4.43,8.32,9.15,18,25,20.85,51.46,1.49,0,3,.06,4.48.1C104.47,110.32,96.18,95,88.41,85.51c-.75-.92-1.49-1.79-2.24-2.61l-.37-.4,0,0c-.24-.28-.49-.52-.73-.78s-.28-.3-.4-.44c-.45-.47-.9-.9-1.36-1.34l0,0,0,0a7,7,0,0,0-.84-.66,8.4,8.4,0,0,0-1.56-.82,0,0,0,0,0,0,0A91.46,91.46,0,0,0,70,75c-1.65-.44-2.76-.7-2.76-.7l.33,1.22Z" style="fill:#262626"/></g><path d="M69.36,77.85A4.07,4.07,0,0,0,68,75a7.74,7.74,0,0,0-2.23-2.13A16.31,16.31,0,0,0,60.45,72c-.23,0-.45,0-.68,0h0c-.22,0-.45,0-.68,0a16.35,16.35,0,0,0-5.32.85,8.44,8.44,0,0,0-2.24,2s0,.07,0,.11a4.11,4.11,0,0,0-1.36,2.88c0,3.09,4.24,5.65,9.59,5.84h0C65.12,83.5,69.36,80.94,69.36,77.85Z" style="fill:#aa4531"/><path d="M66.85,52.76V75.24A7,7,0,0,1,59.53,82c-4.38,0-7.94-3.29-7.93-7.34V52.75A7,7,0,0,1,58.9,46h.65A7,7,0,0,1,66.85,52.76Z" style="fill:#aa4531"/><polygon points="66.85 65.39 66.84 71.85 51.6 69.64 51.6 64.57 66.85 65.39" style="fill:#7c3729"/><path d="M84.92,38.14c0,14.19-11.42,21-25,21s-24.15-6.79-24.15-21,11-25.68,24.56-25.68S84.92,24,84.92,38.14Z" style="fill:#5ac640"/><path d="M44.3,49.13a4.21,4.21,0,1,1-4.21-4.21A4.2,4.2,0,0,1,44.3,49.13Z" style="fill:#c05838"/><circle cx="40.09" cy="49.13" r="2.57" style="fill:#7c3729"/><path d="M83.41,49.94a4.3,4.3,0,1,1-4.3-4.31A4.31,4.31,0,0,1,83.41,49.94Z" style="fill:#c05838"/><path d="M82,49.94a2.63,2.63,0,1,1-2.63-2.63A2.62,2.62,0,0,1,82,49.94Z" style="fill:#7c3729"/><path d="M80.4,44.07c0,14.25-9.16,25.79-20.48,25.79a11.8,11.8,0,0,1-1.46-.08c-10.62-.93-19-12.08-19-25.71s8.39-24.78,19-25.71a14.13,14.13,0,0,1,1.46-.08C71.24,18.28,80.4,29.83,80.4,44.07Z" style="fill:#aa4531"/><path d="M77.48,44.07c0,13.63-5,24.66-19,25.71-10.62-.93-19-12.08-19-25.71s8.39-24.78,19-25.71C69.09,19.29,77.48,30.45,77.48,44.07Z" style="fill:#c05838"/><path d="M52.61,46.44a1.2,1.2,0,1,1-1.2-1.2A1.2,1.2,0,0,1,52.61,46.44Z" style="fill:#3a1916"/><path d="M69.77,46.83a1.2,1.2,0,1,1-1.2-1.2A1.2,1.2,0,0,1,69.77,46.83Z" style="fill:#3a1916"/><path d="M60.89,52.22H58.56a.64.64,0,0,1-.63-.66h0a.65.65,0,0,1,.63-.66h2.33a.66.66,0,0,1,.64.66h0A.65.65,0,0,1,60.89,52.22Z" style="fill:#7c3729"/><path d="M72.28,41.26l-6.82.15a.91.91,0,0,1-1-.77h0a.9.9,0,0,1,1-.81l6.81-.15a.9.9,0,0,1,1,.76h0A.9.9,0,0,1,72.28,41.26Z" style="fill:#5ac640"/><path d="M53.64,41.26l-6.82.15a.91.91,0,0,1-1-.77h0a.91.91,0,0,1,1-.81l6.82-.15a.89.89,0,0,1,1,.76h0A.9.9,0,0,1,53.64,41.26Z" style="fill:#5ac640"/><path d="M60.34,59.82h-.43a16.48,16.48,0,0,1-6.57-1.44.35.35,0,0,1-.14-.47.34.34,0,0,1,.46-.14,16.18,16.18,0,0,0,6.28,1.36,12.49,12.49,0,0,0,4.76-.9c.49-.16,1-.33,1.55-.49a.35.35,0,0,1,.43.23.34.34,0,0,1-.24.43c-.54.16-1,.33-1.52.49A13.9,13.9,0,0,1,60.34,59.82Z" style="fill:#7c3729"/><path d="M59.85,61.41a5,5,0,0,1-2.7-.68.19.19,0,0,1,0-.24.18.18,0,0,1,.24-.05s2,1.32,5.19.1a.17.17,0,0,1,.22.1.17.17,0,0,1-.1.22A7.88,7.88,0,0,1,59.85,61.41Z" style="fill:#7c3729"/><path d="M60.65,63.78a.83.83,0,1,1-.83-.83A.83.83,0,0,1,60.65,63.78Z" style="fill:#c1c1c1"/><path d="M81.2,33.75,72.4,20.39,57.85,14.6S51.6,35.79,81.2,33.75Z" style="fill:#5ac640"/><path d="M81,53.34a.61.61,0,1,1-.61-.61A.61.61,0,0,1,81,53.34Z" style="fill:#c1c1c1"/><path d="M80.94,48.11h0a.82.82,0,0,1,.54-1l1.76-.55a.8.8,0,0,1,1,.53h0a.82.82,0,0,1-.53,1L82,48.64A.81.81,0,0,1,80.94,48.11Z" style="fill:#c1c1c1"/><path d="M59,22.21s-2.66,11.3-9.15,10.65c0,0,2.26-7.62-3.44-9.94,0,0,.51-7.88,7.53-7.23s9.35,2.17,9.35,2.17Z" style="fill:#5ac640"/><path d="M64,14.22s-.6-5.17,3.89-4.33c0,0-6.44-2.83-8.73,1.95-.8,1.69-.2,4.64-.2,4.64s4.66,2.67,4.93,1.81A21,21,0,0,0,64,14.22Z" style="fill:#5ac640"/><path d="M55.37,14.94s.6-5.17-3.89-4.33c0,0,6.44-2.83,8.73,2,.8,1.69.2,4.64.2,4.64S55.75,19.87,55.48,19A21.89,21.89,0,0,1,55.37,14.94Z" style="fill:#5ac640"/><g style="opacity:0.33"><path d="M48.19,19.24c1.76,1,8.05-1,7.86-1.79-.29-1.2-1.38-2-3.84-1.73C51.05,15.87,46.93,18.54,48.19,19.24Z" style="fill:#fff"/></g><g style="opacity:0.33"><path d="M51.37,21.38c.07.25-.4.6-1,.78s-1.23.13-1.3-.12.4-.59,1-.77S51.3,21.14,51.37,21.38Z" style="fill:#fff"/></g></g><g style="clip-path:url(#clip-path-2)"><path d="M66.72,5.56c4.86.39,9.7.54,14.54.68a31.44,31.44,0,0,0-35-4C53.14,3.05,59.92,4.35,66.72,5.56Z" style="fill:#232323"/><path d="M94.18-17.22c.64,1.78,1.23,3.65,1.79,5.63A107.21,107.21,0,0,1,99.26,7.14,105.71,105.71,0,0,1,110.17,8.7c.8.16,1.6.35,2.39.55q-.45-6.48-1.4-12.28c-.38-2.25-.79-4.41-1.26-6.51-.2-.91-.41-1.83-.64-2.72q-.6-2.38-1.26-4.62c-.38-1.23-.76-2.44-1.18-3.62-.23-.7-.48-1.39-.73-2.06l0-.12q-.63-1.66-1.29-3.24a4.93,4.93,0,0,0-.22-.53c-.49-1.16-1-2.29-1.54-3.39-.6-1.28-1.24-2.51-1.91-3.7C91.64-50.72,78.25-58.65,67.77-59.42l-1,13.08C74.53-45.78,87-37.52,94.18-17.22Z" style="fill:#ffb380"/><path d="M17.17,3.14l1.52.53,1.62-.27a101.25,101.25,0,0,1,3.56-17.21c.6-1.95,1.24-3.79,1.92-5.54,7.3-18.76,19.17-26.47,26.59-27l-1-13.08C39.86-58.58,24.79-49,15.32-28c-.77,1.69-1.5,3.47-2.2,5.32A108.41,108.41,0,0,0,7.44,1.12,33.7,33.7,0,0,1,17.17,3.14Z" style="fill:#ffb380"/><path d="M41.56,1.79c8.49.65,16.81,2.29,25.16,3.77,8,.63,15.87.64,23.79,1V-31.66A28.84,28.84,0,0,0,61.56-60.49L60-60.62a29,29,0,0,0-29,29V2A63,63,0,0,1,41.56,1.79Z" style="fill:#edebeb"/><path d="M41.56,1.79c3.43.26,6.83.69,10.21,1.2V-59.42a22.86,22.86,0,0,0-12.91,4,22.93,22.93,0,0,0-8.45,10.39,23,23,0,0,0-1.71,8.72V2.19A67.45,67.45,0,0,1,41.56,1.79Z" style="fill:#195e95"/><path d="M92.48,6.65v-43a22.7,22.7,0,0,0-1.4-7.89A23.08,23.08,0,0,0,82.3-55.47h0a23,23,0,0,0-12.9-4V5.75C77.1,6.24,84.78,6.24,92.48,6.65Z" style="fill:#195e95"/><path d="M87.37,6.43A1.9,1.9,0,0,0,86,5.84H75.86a2,2,0,0,0-.8.19C79.16,6.2,83.26,6.28,87.37,6.43Z" style="fill:#4b8bb7"/></g></svg>