<svg id="Avatars" xmlns="http://www.w3.org/2000/svg" xmlns:xlink="http://www.w3.org/1999/xlink" viewBox="0 0 120 120"><defs><clipPath id="clip-path"><circle cx="60" cy="60" r="60" transform="translate(-24.85 60) rotate(-45)" style="fill:none"/></clipPath></defs><title>avatar</title><g style="clip-path:url(#clip-path)"><circle cx="60" cy="60" r="60" transform="translate(-24.85 60) rotate(-45)" style="fill:none"/><path d="M95.11,150.28c.38-.23.77-.44,1.15-.66V95.5a1.56,1.56,0,0,0,0-.31c-2.67-4.1-10.53-10.69-15.73-14.06v68.78C85.38,150.2,90.24,150.42,95.11,150.28Z" style="fill:#7a5421"/><path d="M90.21,95h0A35.27,35.27,0,0,0,75,79.37,31.59,31.59,0,0,0,69.31,77c-3.16-1-6.14,13.71-9.6,13.71L59,75.54a33.4,33.4,0,0,0-15.57,3.83c-.47.23-.94.49-1.42.77a33.8,33.8,0,0,0-6,4.41,36.55,36.55,0,0,0-11.83,27.1v33.8a46.12,46.12,0,0,1,18.21,2.46c.55,0,1.1,0,1.65,0A44.87,44.87,0,0,1,54.3,149c5.59,0,11.19-.07,16.79.27,7.71.47,15.38,1.13,23.07,1V111.65A36.86,36.86,0,0,0,90.21,95Z" style="fill:#8e6a2f"/><path d="M16.35,146.84c.87-.24,1.72-.44,2.57-.62a99.11,99.11,0,0,1,5.31-24.9A66.79,66.79,0,0,1,30,109.41c4.48-7.18,9.59-11.75,14.24-14.23a18.75,18.75,0,0,1,7.18-2.26l-1-13.08a28,28,0,0,0-6.21,1.22A34.62,34.62,0,0,0,39,83.17c-.84.41-1.69.87-2.52,1.38A49.15,49.15,0,0,0,24.25,95.18C14.6,106.64,6.81,125,5.47,151.55A45.57,45.57,0,0,1,16.35,146.84Z" style="fill:#a57a3c"/><path d="M76.3,95.2c4.28,2.28,9,6.33,13.14,12.55.36.55.72,1.09,1.08,1.66a67.12,67.12,0,0,1,5.72,11.91s0,0,0,.05a100.48,100.48,0,0,1,5.37,25.71,40.75,40.75,0,0,1,12.9-2.67c-2.27-22.75-9.54-38.79-18.29-49.21h0A49.2,49.2,0,0,0,84,84.55c-.84-.51-1.69-1-2.52-1.37-.59-.3-1.18-.59-1.77-.84a32.71,32.71,0,0,0-3.38-1.28h0l-1-.28a24,24,0,0,0-3.19-.69c-.69-.11-1.36-.19-2-.24l-1,13.08a18.36,18.36,0,0,1,7.17,2.26S76.3,95.19,76.3,95.2Z" style="fill:#a57a3c"/><path d="M44.09,147.86A44.87,44.87,0,0,1,54.3,149c5.59,0,11.19-.07,16.79.27,6.13.37,12.24.87,18.35,1V104.56A29.55,29.55,0,0,0,83,86.08a22.89,22.89,0,0,0-1.77-2h0c-.15-.17-.31-.35-.48-.51-.34-.34-.68-.75-1-1.18a21.24,21.24,0,0,0-2.82-3L76.32,79s0,0,0,0a23.51,23.51,0,0,0-4.57-1.9c-.9-.28-1.87-.56-2.84-.81A44.68,44.68,0,0,0,59.7,74.8,31.6,31.6,0,0,0,51,76c-.75.21-1.49.46-2.21.74a23.69,23.69,0,0,0-3.83,1.75.06.06,0,0,1,0,0,4.08,4.08,0,0,0-.5.29,0,0,0,0,1,0,0A3.72,3.72,0,0,0,44,79s0,0,0,0a15.85,15.85,0,0,0-1.24,1.09,28.93,28.93,0,0,0-3.69,3,26.79,26.79,0,0,0-2.62,2.9,29.53,29.53,0,0,0-6.46,18.48v40.85a50.25,50.25,0,0,1,12.43,2.5C42.94,147.89,43.51,147.86,44.09,147.86Z" style="fill:#edebeb"/><rect x="67.45" y="106.14" width="13.51" height="11.68" rx="1.24" style="fill:#b2b2b2"/><path d="M42.4,147.91c.56,0,1.12,0,1.69,0h.09V79c-3.06.44-16.3,10.62-19.94,16.19,0,.09,0,.21,0,.31v49.95A46.16,46.16,0,0,1,42.4,147.91Z" style="fill:#a57a3c"/><path d="M95.11,150.28c.38-.23.77-.44,1.15-.66V95.5a1.51,1.51,0,0,0,0-.3h0c-2.67-4.1-10.53-10.69-15.73-14.06A13.49,13.49,0,0,0,76.3,79v70.65C82.58,150.06,88.83,150.46,95.11,150.28Z" style="fill:#a57a3c"/><g style="opacity:0.11"><path d="M48.77,148.1V76.74a23.69,23.69,0,0,0-3.83,1.75.06.06,0,0,1,0,0l-.65.42-.07,0v68.89C45.74,147.87,47.27,148,48.77,148.1Z"/></g><g style="opacity:0.11"><path d="M76.32,149.65V79a22.6,22.6,0,0,0-4.59-1.91v72.25Z"/></g><g style="opacity:0.24"><path d="M75.3,80.78c.33.13.67.3,1,.46l.51.25c.9.44,1.82,1,2.73,1.49.56.33,1.12.67,1.66,1h0A53.93,53.93,0,0,1,92.8,94.5C94,95.91,95.14,97.42,96.26,99c7.43,10.65,13.21,25.67,15.49,45.6.92-.1,1.85-.17,2.78-.21-2.27-22.75-9.54-38.79-18.29-49.21h0c-2.67-4.1-10.53-10.69-15.73-14.06A13.49,13.49,0,0,0,76.3,79a23.51,23.51,0,0,0-4.57-1.9c-.9-.28-1.87-.56-2.84-.81-.68-.11-1.36-.19-2-.24l-.16,2.11a28,28,0,0,1,4.52,1A35.1,35.1,0,0,1,75.3,80.78Z"/></g><g style="opacity:0.21"><path d="M8.21,150c1.78-22.67,7.93-39.43,16-51,1.11-1.6,2.27-3.11,3.45-4.52a55.72,55.72,0,0,1,8.72-8.42c1-.74,1.9-1.41,2.85-2h0c.54-.38,1.1-.72,1.66-1,.92-.54,1.83-1,2.74-1.49l.5-.25c.33-.16.68-.33,1-.46,1.22-.55,2.41-1,3.59-1.41l.49-.16a27.84,27.84,0,0,1,4.53-1l-.17-2.11c-.67,0-1.34.13-2,.24-.18,0-.38-.06-.61-.29-.75.21-1.49.46-2.21.74a23.69,23.69,0,0,0-3.83,1.75.06.06,0,0,1,0,0,4.08,4.08,0,0,0-.5.29,0,0,0,0,1,0,0c-.05.05-.08.1-.13.11l-.07.07-.23,0a15.91,15.91,0,0,0-4,2.08c-5.19,3.37-13.06,10-15.73,14.06h0C14.61,106.66,6.81,125,5.48,151.55,6.38,151,7.29,150.51,8.21,150Z" style="fill:#fff"/></g><rect x="50.85" y="62.21" width="17.71" height="25.19" rx="6.36" transform="translate(2.79 -2.14) rotate(2.11)" style="fill:#e29764"/><polygon points="50.76 68.69 68.73 71.7 68.4 79.33 50.81 77 50.76 68.69" style="fill:#e27954"/><path d="M72.71,67.82A24.52,24.52,0,0,1,61,71.28,25.51,25.51,0,0,1,41.1,62.77s0,0,0,0a28.36,28.36,0,0,1-7.26-18,28.7,28.7,0,0,1,2.09-12c.14-.33.28-.66.45-1a26.91,26.91,0,0,1,4.08-6.47,25.84,25.84,0,0,1,8.75-6.75v0c.35-.16.69-.33,1-.47a24.59,24.59,0,0,1,8.54-1.87,25.5,25.5,0,0,1,19.58,8.16A27.5,27.5,0,0,1,83.48,32a28.34,28.34,0,0,1,1.19,3.15A27.84,27.84,0,0,1,86,42.7,27.73,27.73,0,0,1,72.71,67.82Z" style="fill:#212121"/><path d="M41.84,50.26a5,5,0,1,1-4-5.89A5,5,0,0,1,41.84,50.26Z" style="fill:#ffb380"/><path d="M39.8,49.86a2.94,2.94,0,1,1-2.32-3.46A2.95,2.95,0,0,1,39.8,49.86Z" style="fill:#e27954"/><path d="M87.83,50.08a5,5,0,1,1-4-5.9A5,5,0,0,1,87.83,50.08Z" style="fill:#ffb380"/><path d="M85.79,49.68a2.94,2.94,0,1,1-2.32-3.46A2.94,2.94,0,0,1,85.79,49.68Z" style="fill:#e27954"/><path d="M83.63,48.64s0,0,0,0c-.09,1.07-.23,2.12-.4,3.16-.13.72-.28,1.42-.42,2.11a32.65,32.65,0,0,1-2.63,7.26s0,0,0,0a25.76,25.76,0,0,1-10.09,11c-.41.23-.84.43-1.26.63a19.18,19.18,0,0,1-7.67,1.93,14.56,14.56,0,0,1-2.09,0,20.3,20.3,0,0,1-7.44-2l-.68-.35a26.21,26.21,0,0,1-9.82-9.57s0,0,0,0a32.89,32.89,0,0,1-4-10.26c-.16-.68-.31-1.39-.41-2.09a33.87,33.87,0,0,1-.42-4.29c0-.42,0-.86,0-1.29s0-.94,0-1.4a0,0,0,0,1,0,0c0-.22,0-.43,0-.64.54-10.62,5.63-19.71,12.94-24.2a0,0,0,0,1,0,0c2.74-1.65,6.17.26,9.42.05.17,0,.08-.35.27-.36,3.39-.13,6.54-2,9.52-.52h0C77,22,83.23,32.14,83.7,44.23v.15c0,.73,0,1.44,0,2.16S83.68,48,83.63,48.64Z" style="fill:#ea9b65"/><path d="M81.05,46.54c0,.71,0,1.42-.09,2.1h0c-.09,1.07-.23,2.12-.4,3.16-.12.72-.26,1.42-.42,2.11a31.64,31.64,0,0,1-2.61,7.26s0,0,0,0C75.1,66,67.35,75.29,59.06,74.75a20.3,20.3,0,0,1-7.44-2l-.68-.35a26.21,26.21,0,0,1-9.82-9.57s0,0,0,0a32.89,32.89,0,0,1-4-10.26c-.16-.68-.31-1.39-.41-2.09a33.87,33.87,0,0,1-.42-4.29c0-.42,0-.86,0-1.29s0-.94,0-1.4a0,0,0,0,1,0,0c0-.22,0-.43,0-.64.54-10.62,5.63-19.71,12.94-24.2a0,0,0,0,1,0,0c2.74-1.65,6.79-.23,10-.45,2.63.18,4.16-1.56,6.51-.38h0C74.29,22,80.56,32.14,81,44.23v.15C81.06,45.11,81.06,45.82,81.05,46.54Z" style="fill:#ffb380"/><path d="M44.4,46.43a.38.38,0,0,1-.13-.09.92.92,0,0,1-.13-1.29c.18-.22,4.52-5.35,13.23-1.67a.92.92,0,1,1-.72,1.7c-7.39-3.12-10.93,1-11.08,1.15A.94.94,0,0,1,44.4,46.43Z" style="fill:#212121"/><path d="M76.65,46.14a.9.9,0,0,1-1,0c-6.72-4.36-10.93-1-11.11-.8a.93.93,0,0,1-1.2-1.41c.22-.18,5.39-4.48,13.32.66a.92.92,0,0,1,0,1.58Z" style="fill:#212121"/><path d="M61.08,63.87h-.57a22,22,0,0,1-8.79-1.93.47.47,0,0,1,.44-.82,21.31,21.31,0,0,0,8.39,1.83,17,17,0,0,0,6.36-1.2c.66-.22,1.33-.44,2.07-.66a.46.46,0,0,1,.57.31.46.46,0,0,1-.31.58c-.72.21-1.39.43-2,.64A18.24,18.24,0,0,1,61.08,63.87Z" style="fill:#e27954"/><path d="M60.43,66a6.57,6.57,0,0,1-3.61-.92.24.24,0,0,1-.06-.32.24.24,0,0,1,.32-.06s2.64,1.76,6.94.13a.23.23,0,0,1,.16.44A10.67,10.67,0,0,1,60.43,66Z" style="fill:#e27954"/><path d="M62.28,57H58a1.09,1.09,0,0,1-1.09-1.08h0A1.09,1.09,0,0,1,58,54.8h4.25a1.09,1.09,0,0,1,1.09,1.09h0A1.09,1.09,0,0,1,62.28,57Z" style="fill:#e27954"/><path d="M52.63,49a1.24,1.24,0,1,1-2.48,0,1.24,1.24,0,0,1,2.48,0Z" style="fill:#212121"/><path d="M70.14,49a1.24,1.24,0,0,1-2.48,0,1.24,1.24,0,1,1,2.48,0Z" style="fill:#212121"/><path d="M85.85,43.74c-3.1,2.52-6.28-4.06-7.92-7.48l-.12-.16a16.57,16.57,0,0,0-13.74-7.82l-6.87-.14C40.61,27.92,38.61,46.79,35.55,44c0,0-3.35-5.21,4.22-17.66l.67-1.06A25.34,25.34,0,0,1,58.8,16.19c11.91-.47,22.3,7.56,25.88,19,.33,1.3.53,2.48.78,3.61h0l0,.12A15.57,15.57,0,0,1,85.85,43.74Z" style="fill:#212121"/><path d="M83.49,32.76H36.33a8.19,8.19,0,0,1,0-1A22.39,22.39,0,0,1,58.18,10.34a5.72,5.72,0,0,1,.59,0H61A22.44,22.44,0,0,1,83.48,32C83.49,32.25,83.49,32.49,83.49,32.76Z" style="fill:#ea3d3d"/><path d="M80,32.76H35.92c.14-.33.28-.66.45-1A22.39,22.39,0,0,1,58.18,10.34a21,21,0,0,1,3.29.33A22.37,22.37,0,0,1,80,32.76Z" style="fill:#ea3d3d"/><g style="opacity:0.68"><path d="M83.49,32.76H76.87A22.37,22.37,0,0,0,58.34,10.67a24.23,24.23,0,0,1,3.33-.33A22.38,22.38,0,0,1,83.49,32.76Z" style="fill:#aa2929"/></g><g style="opacity:0.18"><path d="M61.67,10.34A22.39,22.39,0,0,0,39.86,31.77a10.71,10.71,0,0,0-.44,1H36.33A22.45,22.45,0,0,1,58.78,10.32h2.28C61.26,10.32,61.47,10.32,61.67,10.34Z" style="fill:#fff"/></g><rect x="31.95" y="27.92" width="55.92" height="10.02" rx="3.8" style="fill:#ef5050"/></g></svg>