<svg id="Avatars" xmlns="http://www.w3.org/2000/svg" xmlns:xlink="http://www.w3.org/1999/xlink" viewBox="0 0 120 120"><defs><clipPath id="clip-path"><circle cx="60" cy="60" r="60" style="fill:none"/></clipPath><clipPath id="clip-path-2"><circle cx="60" cy="-76" r="60" transform="translate(71.31 20.17) rotate(-45)" style="fill:none"/></clipPath></defs><title>avatar</title><g style="clip-path:url(#clip-path)"><circle cx="60" cy="60" r="60" style="fill:none"/><path d="M85.62,36l0,17.68a46.61,46.61,0,0,1-46.61,46.73H35.79V39.94l4.58-.62,36.81-2.71L80,36.4,85.62,36Z" style="fill:#7f4516"/><g style="opacity:0.19"><path d="M51.29,87.93H39.72V52.32a22.52,22.52,0,0,1,.21-3.1,19.14,19.14,0,0,1,1-4.28,15,15,0,0,1,.76-1.86c.09-.18.18-.32.26-.46a12.15,12.15,0,0,1,1.5-2.24,7.45,7.45,0,0,1,3.68-2.47,4.6,4.6,0,0,1,.89-.15.62.62,0,0,1,.19,0l.89-.06,4.57-.29,1-.06.85,0h0l9.7-.58,1.13-.06s0,0,0,0L71,36.36l1.15-.06.28,0c2.28-.14,4.38,1.18,6,3.42a1.53,1.53,0,0,1,.15.23,14.38,14.38,0,0,1,1.52,2.78c0,.15.1.32.15.46a17.71,17.71,0,0,1,.82,2.67v.06a1,1,0,0,1,0,.12,24.06,24.06,0,0,1,.5,4.68l0,3.79v2.9h0A30.33,30.33,0,0,1,51.29,87.93Z" style="fill:#0a0a0a"/></g><path d="M77.71,80.74a20.75,20.75,0,0,0-2.11-2c-.55-.45-1.13-.88-1.72-1.3l0,0h0l-.56-.1c-.36-.07-.66-.37-1-.42a3,3,0,0,0-.5,0c-1-.08-3.21-.15-4.06-.17a5.72,5.72,0,0,0-1.79-1.57,16.35,16.35,0,0,0-5.32-.85H59.24a16.35,16.35,0,0,0-5.32.85,6.23,6.23,0,0,0-1.86,1.57c-.9,0-3,.09-4,.17a3,3,0,0,0-.5,0c-.35,0-.64.35-1,.42l-.55.1h0l0,0c-.59.42-1.16.85-1.72,1.3a19.64,19.64,0,0,0-2.1,2c-.11.1-.21.21-.3.31v6.49h4.19a15.65,15.65,0,0,1,2.66.22,16.37,16.37,0,0,1,8,3.78h6.38a16.41,16.41,0,0,1,8-3.78,15.65,15.65,0,0,1,2.66-.22H78V81.05A4.11,4.11,0,0,0,77.71,80.74Z" style="fill:#ea9b65"/><path d="M83.35,82.13a54.06,54.06,0,0,0-5.64-4.59v9.3H73.54a15,15,0,0,0-1.53.07l-.85.1s0,0-.07,0l-.21,0-.3.05a4.89,4.89,0,0,0-.53.09H70c-.11,0-.19.06-.3.09-2.59.59-19.35,0-19.47,0l-.31-.09h-.07l-.54-.09-.3-.05-.21,0s0,0-.07,0l-.85-.1a14.84,14.84,0,0,0-1.53-.07l-4.17-9.3a53,53,0,0,0-5.63,4.59l-.06.05,0,0,0,5.28,0,2.71V98.8c0,.66.09,1.36.14,2,.09,1.46.19,3,.31,4.52.89,11.58,2.28,24.36,2.28,24.36l-.07.35a6.18,6.18,0,0,1,1.71-.23H79a6.16,6.16,0,0,1,1.7.23l-.07-.35S82,117,82.93,105.37c.12-1.54.22-3.06.31-4.52.05-.69.11-1.39.14-2V90.21l0-2.71V82.22l0,0Z" style="fill:#d32f2f"/><path d="M59.4,115.13a.31.31,0,0,1-.29-.22C54.57,100.52,47.64,78.83,47,77.75A.3.3,0,0,1,47,77.4a.33.33,0,0,1,.42-.14c.15.08.6.31,12,36.51l11.52-38a.31.31,0,0,1,.39-.2.3.3,0,0,1,.2.38L59.7,114.91a.31.31,0,0,1-.3.22Z" style="fill:#fffa5a"/><path d="M59.92,91h0Z" style="fill:#50891f"/><path d="M17.18,140.23c1.91.48,3.83.91,5.75,1.32,1.39-19.27,6.64-32.34,12.22-41a.47.47,0,0,1,.07-.12,54.52,54.52,0,0,1,4.12-5.59,44.3,44.3,0,0,1,7.89-7.38l.07-.06.78-.54s0,0,0,0a22,22,0,0,1,2.45-1.43s0,0,.05,0l-1.41-3.08-.9-2h0l-.21-.47-1.18-2.64-.28-.63a.55.55,0,0,0-.19,0H46.1a52.86,52.86,0,0,0-5.32.54s-.07.06-.11.07c-.9.65-1.91,1.39-3,2.3C36.85,80.25,36,81,35,81.86l0,0,0,0c-6.74,6.33-15.1,17.23-20.13,35a11.85,11.85,0,0,0-.31,1.17c-.19.62-.35,1.27-.51,1.91s-.29,1.23-.43,1.86c-.19.84-.38,1.67-.56,2.54a121.84,121.84,0,0,0-2.08,14.75A47.51,47.51,0,0,1,17.18,140.23Z" style="fill:#2b2b2b"/><path d="M50.15,138.06H32a1.85,1.85,0,0,1-1.85-1.85V95.73A21.84,21.84,0,0,1,52,73.89h0l-.43,62.26C51.57,137.18,51.17,138.06,50.15,138.06Z" style="fill:#2b2b2b"/><path d="M71.62,86.89s0,0,0,0l.78.54.07.06a44.3,44.3,0,0,1,7.89,7.38,56,56,0,0,1,4.13,5.59,1.34,1.34,0,0,1,.06.12,65.24,65.24,0,0,1,5,9.32c3.57,8.13,6.41,18.76,7.31,32.5,4.1,0,8.16.1,12.21.39-.82-14.3-3.59-25.8-7.25-35-.21-.54-.43-1.08-.66-1.6-.66-1.6-1.35-3.15-2.1-4.62A68.2,68.2,0,0,0,84.77,82l0,0,0,0-.51-.47a54.33,54.33,0,0,0-5.12-4.12s-.07,0-.11-.07a27.88,27.88,0,0,0-3.74-.41l-1.58-.13a4.72,4.72,0,0,0-.5,0L71.66,79.9l-.21.47h0l-.9,2-1.41,3.08s0,0,0,0A22,22,0,0,1,71.62,86.89Z" style="fill:#2b2b2b"/><path d="M89.55,95.72v40.49a1.84,1.84,0,0,1-1.85,1.85H69.57a1.83,1.83,0,0,1-1.84-1.85V73.9c.26,0,.5,0,.76,0a21.74,21.74,0,0,1,15.68,7.47,21.37,21.37,0,0,1,4.11,7A21.93,21.93,0,0,1,89.55,95.72Z" style="fill:#2b2b2b"/><path d="M52,74.34,39.79,80.75a1.41,1.41,0,0,0-.56,1.94L52,104.61Z" style="fill:#4f4f4f"/><circle cx="59.48" cy="115.5" r="3.12" style="fill:#2b2b2b"/><path d="M67.71,74.34l12.2,6.41a1.4,1.4,0,0,1,.56,1.94L67.72,104.61Z" style="fill:#4f4f4f"/><rect x="67.72" y="99.72" width="1.76" height="38.34" rx="0.5" style="fill:#4f4f4f"/><rect x="50.18" y="99.72" width="1.76" height="38.34" rx="0.5" style="fill:#4f4f4f"/><g style="opacity:0.21"><path d="M13.55,139.5C15.76,110.77,26,93.84,34.71,84.26c.4-.43.78-.85,1.17-1.25l.33-.35c.24-.26.47-.48.73-.73v0c.24-.24.48-.46.73-.69l0,0,0-.05L38,81c.23-.19.51-.4.8-.61,1.39-.94,4.9-2.14,8.12-3.09,1.41-.44,2.77-.82,3.86-1.12v-.68s-1.88.49-4.33,1.19a72.48,72.48,0,0,0-8.73,2.92C36.85,80.25,36,81,35,81.86l0,0,0,0c-6.74,6.33-15.1,17.23-20.13,35a11.85,11.85,0,0,0-.31,1.17c-.19.62-.35,1.27-.51,1.91s-.29,1.23-.43,1.86c-.19.84-.38,1.67-.56,2.54a127.07,127.07,0,0,0-2,14.76C11.86,139.24,12.71,139.36,13.55,139.5Z" style="fill:#fff"/></g><g style="opacity:0.42"><path d="M88.28,88.36c8.31,11,15.46,28.42,18,54.27.94.05,1.89.1,2.83.17-.82-14.3-3.59-25.8-7.25-35-.21-.54-.43-1.08-.66-1.6-.66-1.6-1.35-3.15-2.1-4.62A68.2,68.2,0,0,0,84.77,82l0,0,0,0-.51-.47A22,22,0,0,0,67.73,73.9c2.19.94,5.44,2,7.47,2.89C77.57,77.79,85.31,84.44,88.28,88.36Z"/></g><path d="M35.79,73.44H52.07a0,0,0,0,1,0,0V96a11.64,11.64,0,0,1-11.64,11.64H35.79a0,0,0,0,1,0,0V73.44A0,0,0,0,1,35.79,73.44Z" style="fill:#7f4516"/><g style="opacity:0.19"><path d="M39.72,73.44H51.95a0,0,0,0,1,0,0V89.8a8.74,8.74,0,0,1-8.74,8.74H39.72a0,0,0,0,1,0,0V73.44A0,0,0,0,1,39.72,73.44Z" style="fill:#0a0a0a"/></g><path d="M85.79,39.11c0,14.43-8.42,12.09-22.23,12.09S35.79,53.54,35.79,39.11,47,13,60.79,13,85.79,24.67,85.79,39.11Z" style="fill:#7f4516"/><path d="M67.71,55.26V77.79c0,3.69-3.32,6.71-7.4,6.76H60.2c-4.48,0-8.15-3.3-8.13-7.37V55.24a6.33,6.33,0,0,1,.2-1.58c.06-.21.13-.4.2-.58h0a3.15,3.15,0,0,1,.29-.65,7.12,7.12,0,0,1,3.48-3.23,4.77,4.77,0,0,1,.66-.26,2.13,2.13,0,0,1,.61-.17,6.91,6.91,0,0,1,2.05-.28h.66A8.18,8.18,0,0,1,63,49c.22.09.45.18.66.28s.48.25.73.38h0a7.23,7.23,0,0,1,2.47,2.51v0a3.7,3.7,0,0,1,.38.74v0a3.14,3.14,0,0,1,.21.61v0A5.52,5.52,0,0,1,67.71,55.26Z" style="fill:#ea9b65"/><polygon points="67.72 67.27 67.71 74.34 52.06 71.38 52.06 66.48 67.72 67.27" style="fill:#e27954"/><path d="M44.45,51.2a4.28,4.28,0,1,1-4.28-4.28A4.27,4.27,0,0,1,44.45,51.2Z" style="fill:#ffb380"/><path d="M42.78,51.2a2.62,2.62,0,1,1-2.61-2.62A2.62,2.62,0,0,1,42.78,51.2Z" style="fill:#e27954"/><path d="M84.88,51.11a4.38,4.38,0,1,1-4.38-4.38A4.38,4.38,0,0,1,84.88,51.11Z" style="fill:#ffb380"/><path d="M83.43,51.11a2.67,2.67,0,1,1-2.67-2.68A2.68,2.68,0,0,1,83.43,51.11Z" style="fill:#e27954"/><path d="M81.2,45.13c0,14.51-9.34,26.26-20.85,26.26-.46,0-.93,0-1.39-.07C48.1,70.43,39.51,59.05,39.51,45.13S48.1,19.85,59,19c.46,0,.93-.07,1.39-.07C71.86,18.89,81.2,30.64,81.2,45.13Z" style="fill:#ea9b65"/><path d="M78.41,45.13c0,13.92-8.58,25.3-19.45,26.19C48.1,70.43,39.51,59.05,39.51,45.13S48.1,19.85,59,19C69.83,19.85,78.41,31.23,78.41,45.13Z" style="fill:#ffb380"/><path d="M52.91,47.55a1.22,1.22,0,1,1-1.22-1.22A1.22,1.22,0,0,1,52.91,47.55Z" style="fill:#262626"/><path d="M70.23,47.55A1.22,1.22,0,1,1,69,46.33,1.22,1.22,0,0,1,70.23,47.55Z" style="fill:#262626"/><path d="M62,53.78h-3.6a1,1,0,0,1-1-1h0a1,1,0,0,1,1-1H62a1,1,0,0,1,1,1h0A1,1,0,0,1,62,53.78Z" style="fill:#e27954"/><path d="M54.36,42.26H48.77a.8.8,0,0,1-.81-.8h0a.8.8,0,0,1,.81-.8h5.59a.8.8,0,0,1,.81.8h0A.8.8,0,0,1,54.36,42.26Z" style="fill:#7f4516"/><path d="M71.81,42.26h-5.6a.8.8,0,0,1-.8-.8h0a.8.8,0,0,1,.8-.8h5.6a.8.8,0,0,1,.8.8h0A.8.8,0,0,1,71.81,42.26Z" style="fill:#7f4516"/><path d="M63.05,62.58H58.52a1,1,0,0,1-1-.95h0a1,1,0,0,1,1-1h4.53a1,1,0,0,1,1,1h0A1,1,0,0,1,63.05,62.58Z" style="fill:#bc3939"/><path d="M63.49,61.22h-5.4a1,1,0,0,1-1-.95h0a1,1,0,0,1,.13-.49,1,1,0,0,1,.82-.46h5.4a1,1,0,0,1,.95,1h0A1,1,0,0,1,63.49,61.22Z" style="fill:#d84a4a"/><path d="M85.24,35H35.93a23.28,23.28,0,0,1,.52-5,23.67,23.67,0,0,1,1.69-5A23.39,23.39,0,0,1,58.43,11.62c.31,0,.64,0,1,0h2.4A23.44,23.44,0,0,1,85.24,35Z" style="fill:#2b2b2b"/><path d="M81.2,35H35.93a23.28,23.28,0,0,1,.52-5,23.67,23.67,0,0,1,1.69-5A23.39,23.39,0,0,1,58.43,11.62a20.39,20.39,0,0,1,2.83.26A23.32,23.32,0,0,1,79,25.1a23.67,23.67,0,0,1,1.69,5A23.28,23.28,0,0,1,81.2,35Z" style="fill:#2b2b2b"/><path d="M84.71,30.06H36.44a23.86,23.86,0,0,1,1.69-5H83A24.46,24.46,0,0,1,84.71,30.06Z" style="fill:#d32f2f"/><path d="M71.81,18.89h3.25a1.58,1.58,0,0,1,1.58,1.58v9.59a0,0,0,0,1,0,0H70.23a0,0,0,0,1,0,0V20.47A1.58,1.58,0,0,1,71.81,18.89Z" style="fill:#d32f2f"/><rect x="70.23" y="25.09" width="6.41" height="4.97" style="fill:#a01f1f"/><circle cx="64.44" cy="56.71" r="0.54" style="fill:#2b2b2b"/><path d="M40.68,54.73a.91.91,0,1,1-.91-.91A.91.91,0,0,1,40.68,54.73Z" style="fill:#262626"/><path d="M81.45,54.73a.92.92,0,1,1-.92-.91A.92.92,0,0,1,81.45,54.73Z" style="fill:#262626"/><g style="opacity:0.43"><path d="M85.39,35.33H79.86a23.28,23.28,0,0,0-.52-5,23.67,23.67,0,0,0-1.69-5A23.34,23.34,0,0,0,59.92,12.17a23.79,23.79,0,0,1,2.69-.26A23.39,23.39,0,0,1,83.18,25.39a23.67,23.67,0,0,1,1.69,5A23.28,23.28,0,0,1,85.39,35.33Z" style="fill:#2b2b2b"/></g><g style="opacity:0.18"><path d="M62.46,11.62A23.39,23.39,0,0,0,42.17,25.1a24.25,24.25,0,0,0-1.69,5A23.94,23.94,0,0,0,40,35h-4a23.28,23.28,0,0,1,.52-5,23.67,23.67,0,0,1,1.69-5A23.42,23.42,0,0,1,59.38,11.59h2.4A5.16,5.16,0,0,1,62.46,11.62Z" style="fill:#fff"/></g><rect x="21.45" y="30.07" width="78.24" height="8.23" rx="2.94" style="fill:#2b2b2b"/><g style="opacity:0.33"><rect x="35.79" y="38.3" width="50" height="1.18" style="fill:#2b2b2b"/></g></g><g style="clip-path:url(#clip-path-2)"><path d="M95.11,14.28c.38-.23.77-.44,1.15-.66V-40.5a1.56,1.56,0,0,0,0-.31c-2.67-4.1-10.53-10.69-15.73-14.06V13.91C85.38,14.2,90.24,14.42,95.11,14.28Z" style="fill:#7a5421"/><path d="M90.21-41h0A35.27,35.27,0,0,0,75-56.63,31.59,31.59,0,0,0,69.31-59c-3.16-1-6.14,13.71-9.6,13.71L59-60.46a33.4,33.4,0,0,0-15.57,3.83c-.47.23-.94.49-1.42.77a33.8,33.8,0,0,0-6,4.41,36.55,36.55,0,0,0-11.83,27.1V9.45a46.12,46.12,0,0,1,18.21,2.46c.55,0,1.1-.05,1.65-.05A44.87,44.87,0,0,1,54.3,13c5.59,0,11.19-.07,16.79.27,7.71.47,15.38,1.13,23.07,1V-24.35A36.86,36.86,0,0,0,90.21-41Z" style="fill:#8e6a2f"/><path d="M16.35,10.84c.87-.24,1.72-.44,2.57-.62a99.11,99.11,0,0,1,5.31-24.9A66.79,66.79,0,0,1,30-26.59c4.48-7.18,9.59-11.75,14.24-14.23a18.75,18.75,0,0,1,7.18-2.26l-1-13.08a28,28,0,0,0-6.21,1.22A34.62,34.62,0,0,0,39-52.83c-.84.41-1.69.87-2.52,1.38A49.15,49.15,0,0,0,24.25-40.82C14.6-29.36,6.81-11,5.47,15.55A45.57,45.57,0,0,1,16.35,10.84Z" style="fill:#a57a3c"/><path d="M76.3-40.8c4.28,2.28,9,6.33,13.14,12.55.36.55.72,1.09,1.08,1.66a67.12,67.12,0,0,1,5.72,11.91s0,0,0,0a100.48,100.48,0,0,1,5.37,25.71,40.75,40.75,0,0,1,12.9-2.67C112.26-14.34,105-30.38,96.24-40.8h0A49.2,49.2,0,0,0,84-51.45c-.84-.51-1.69-1-2.52-1.37-.59-.3-1.18-.59-1.77-.84a32.71,32.71,0,0,0-3.38-1.28h0l-1-.28a24,24,0,0,0-3.19-.69c-.69-.11-1.36-.19-2-.24l-1,13.08a18.36,18.36,0,0,1,7.17,2.26S76.3-40.81,76.3-40.8Z" style="fill:#a57a3c"/><path d="M54.3,13c5.59,0,11.19-.07,16.79.27l4.27.28a27.69,27.69,0,0,0-27.11-1.53A44.12,44.12,0,0,1,54.3,13Z" style="fill:#4c91c1"/><path d="M44.09,11.86A44.87,44.87,0,0,1,54.3,13c5.59,0,11.19-.07,16.79.27,6.13.37,12.24.87,18.35,1V-31.44A29.55,29.55,0,0,0,83-49.92a22.89,22.89,0,0,0-1.77-2h0c-.15-.17-.31-.35-.48-.51-.34-.34-.68-.75-1-1.18a21.24,21.24,0,0,0-2.82-3L76.32-57h0a23.51,23.51,0,0,0-4.57-1.9c-.9-.28-1.87-.56-2.84-.81A44.68,44.68,0,0,0,59.7-61.2,31.6,31.6,0,0,0,51-60c-.75.21-1.49.46-2.21.74a23.69,23.69,0,0,0-3.83,1.75l0,0a4.08,4.08,0,0,0-.5.29,0,0,0,0,1,0,0L44-57l0,0a15.85,15.85,0,0,0-1.24,1.09,28.93,28.93,0,0,0-3.69,3,26.79,26.79,0,0,0-2.62,2.9,29.53,29.53,0,0,0-6.46,18.48V9.41a50.25,50.25,0,0,1,12.43,2.5C42.94,11.89,43.51,11.86,44.09,11.86Z" style="fill:#edebeb"/><path d="M42.4,11.91c.56,0,1.12-.05,1.69-.05h.09V-57c-3.06.44-16.3,10.62-19.94,16.19,0,.09,0,.21,0,.31v50A46.16,46.16,0,0,1,42.4,11.91Z" style="fill:#a57a3c"/><path d="M95.11,14.28c.38-.23.77-.44,1.15-.66V-40.5a1.51,1.51,0,0,0,0-.3h0c-2.67-4.1-10.53-10.69-15.73-14.06A13.49,13.49,0,0,0,76.3-57V13.65C82.58,14.06,88.83,14.46,95.11,14.28Z" style="fill:#a57a3c"/><g style="opacity:0.11"><path d="M48.77,12.1V-59.26a23.69,23.69,0,0,0-3.83,1.75l0,0-.65.42-.07,0V11.87C45.74,11.87,47.27,12,48.77,12.1Z"/></g><g style="opacity:0.11"><path d="M76.32,13.65V-57a22.6,22.6,0,0,0-4.59-1.91V13.35Z"/></g><g style="opacity:0.18"><path d="M95.11,14.28c.38-.23.77-.44,1.15-.66V-15.64c-.7-.12-1.4.68-2.08,1.75a13.38,13.38,0,0,0-2,7.14l0,21C93.15,14.28,94.13,14.3,95.11,14.28Z"/></g><g style="opacity:0.24"><path d="M75.3-55.22c.33.13.67.3,1,.46l.51.25c.9.44,1.82.95,2.73,1.49.56.33,1.12.67,1.66,1.05h0A53.93,53.93,0,0,1,92.8-41.5C94-40.09,95.14-38.58,96.26-37c7.43,10.65,13.21,25.67,15.49,45.6.92-.1,1.85-.17,2.78-.21C112.26-14.34,105-30.38,96.24-40.8h0c-2.67-4.1-10.53-10.69-15.73-14.06A13.49,13.49,0,0,0,76.3-57a23.51,23.51,0,0,0-4.57-1.9c-.9-.28-1.87-.56-2.84-.81-.68-.11-1.36-.19-2-.24l-.16,2.11a28,28,0,0,1,4.52,1.05A35.1,35.1,0,0,1,75.3-55.22Z"/></g><g style="opacity:0.21"><path d="M8.21,14c1.78-22.67,7.93-39.43,16-51,1.11-1.6,2.27-3.11,3.45-4.52a55.72,55.72,0,0,1,8.72-8.42c1-.74,1.9-1.41,2.85-2h0c.54-.38,1.1-.72,1.66-1.05.92-.54,1.83-1,2.74-1.49l.5-.25c.33-.16.68-.33,1-.46,1.22-.55,2.41-1,3.59-1.41l.49-.16a27.84,27.84,0,0,1,4.53-1.05l-.17-2.11c-.67.05-1.34.13-2,.24-.18.05-.38-.06-.61-.29-.75.21-1.49.46-2.21.74a23.69,23.69,0,0,0-3.83,1.75l0,0a4.08,4.08,0,0,0-.5.29,0,0,0,0,1,0,0c-.05,0-.08.1-.13.11l-.07.07-.23,0a15.91,15.91,0,0,0-4,2.08c-5.19,3.37-13.06,10-15.73,14.06h0C14.61-29.34,6.81-11,5.48,15.55,6.38,15,7.29,14.51,8.21,14Z" style="fill:#fff"/></g></g></svg>