<svg id="Avatars" xmlns="http://www.w3.org/2000/svg" xmlns:xlink="http://www.w3.org/1999/xlink" viewBox="0 0 120 120"><defs><clipPath id="clip-path"><circle cx="60" cy="60" r="60" transform="translate(-8.72 109.78) rotate(-80.92)" style="fill:none"/></clipPath><clipPath id="clip-path-2"><path d="M90.6,185.9l-59-.23L31.1,103.6c0-16.43,13.32-26.47,29.75-26.47h0c16.43,0,29.75,10,29.75,26.47Z" style="fill:none"/></clipPath><clipPath id="clip-path-3"><path d="M7,170.15C3.06,106.33,32.41,80.3,51.83,78.89l1,13.07c-12.17.89-36.18,21-32.7,77.39Z" style="fill:none"/></clipPath><clipPath id="clip-path-4"><path d="M113,170.15c3.93-63.82-25.42-89.85-44.84-91.26L67.22,92c12.17.89,36.18,21,32.7,77.39Z" style="fill:none"/></clipPath></defs><title>avatar</title><g style="clip-path:url(#clip-path)"><circle cx="60" cy="60" r="60" transform="translate(-8.72 109.78) rotate(-80.92)" style="fill:none"/><path d="M53.64,151.08c2.53.26,5,.57,7.44.91a43.13,43.13,0,0,1,12.86-2,44.38,44.38,0,0,1,13.87,2.19c1-.17,2-.32,3.06-.46V103.6c0-16.43-13.32-26.47-29.75-26.47s-29.75,10-29.75,26.47l.27,47.94A100.59,100.59,0,0,1,53.64,151.08Z" style="fill:#ff3636"/><g style="clip-path:url(#clip-path-2)"><path d="M53.64,151.08c2.53.26,5,.57,7.44.91a43.13,43.13,0,0,1,12.86-2,44.38,44.38,0,0,1,13.87,2.19l2.79-.42V103.6c0-16.43-13.32-26.47-29.75-26.47S31.1,87.17,31.1,103.6l.27,48A101.2,101.2,0,0,1,53.64,151.08Z" style="fill:#1e633b"/><path d="M44.62,150.68V76H36.84V151C39.43,150.82,42,150.69,44.62,150.68Z" style="fill:#184c2d"/><path d="M84.87,151.32V76H77.09V150.1A44.77,44.77,0,0,1,84.87,151.32Z" style="fill:#184c2d"/><path d="M52,151V67.75h-2v83.07Z" style="fill:#184c2d"/><path d="M71.94,150V67.75h-2v82.44C70.57,150.12,71.26,150.07,71.94,150Z" style="fill:#184c2d"/><rect x="11.08" y="87.72" width="108.88" height="4.42" style="fill:#184c2d"/><rect x="11.08" y="103.74" width="108.88" height="4.42" style="fill:#184c2d"/><rect x="11.08" y="119.76" width="108.88" height="4.42" style="fill:#184c2d"/><path d="M64.75,151V76H57v75.5c1.38.16,2.71.36,4.06.55C62.24,151.62,63.49,151.29,64.75,151Z" style="fill:#184c2d"/></g><g style="opacity:0.32"><path d="M87.81,152.17c1-.16,2-.31,3-.45V106.38c-6,0-10.81,14.77-10.81,20.73v23.28A43.71,43.71,0,0,1,87.81,152.17Z" style="fill:#111"/></g><rect x="52.27" y="61.26" width="17.71" height="25.19" rx="6.36" transform="translate(2.76 -2.2) rotate(2.11)" style="fill:#e29764"/><polygon points="52.18 67.74 70.15 70.75 69.87 78.4 52.24 76.05 52.18 67.74" style="fill:#e27954"/><path d="M14.86,154.28l2.3-.44c1.37-44.65,22-61.08,33-61.88l-.92-12.53v-.22c-17.81,3.2-41.84,26-42.52,77.36A62.28,62.28,0,0,1,14.86,154.28Z" style="fill:#ff3636"/><path d="M14.86,154.28c1.66-.33,3.31-.64,5-.95,1.51-44.26,22-60.57,32.94-61.37l-.91-12.49v0l0-.54c-.85.07-1.73.18-2.63.33-17.82,3.19-41.85,26-42.53,77.36A62.28,62.28,0,0,1,14.86,154.28Z" style="fill:#1e633b"/><g style="clip-path:url(#clip-path-3)"><path d="M9.39,155.69l3-75L6,80.43,3,157.94C5.08,157.11,7.22,156.35,9.39,155.69Z" style="fill:#184c2d"/><path d="M25.94,152.31l2.82-71-6.34-.25-2.87,72.3C21.67,153,23.8,152.64,25.94,152.31Z" style="fill:#184c2d"/><path d="M-1.2,159.66,2.22,73.58.56,73.52-2.9,160.4Z" style="fill:#184c2d"/><path d="M14.86,154.28l.46-.09,3.18-80-1.67-.07-3.2,80.41C14,154.48,14.45,154.36,14.86,154.28Z" style="fill:#184c2d"/><rect x="-31.81" y="90.28" width="88.72" height="3.6" transform="translate(3.67 -0.43) rotate(2.28)" style="fill:#184c2d"/><rect x="-32.33" y="103.32" width="88.72" height="3.6" transform="translate(4.18 -0.39) rotate(2.28)" style="fill:#184c2d"/><rect x="-32.85" y="116.37" width="88.72" height="3.6" transform="translate(4.7 -0.36) rotate(2.28)" style="fill:#184c2d"/></g><path d="M80.7,98.77c9,8.22,17.91,24.52,19.34,52.05a98.87,98.87,0,0,1,13.11.18c-1.63-34.12-13.94-54.7-27.1-64.7-.76-.59-1.51-1.13-2.28-1.64a33.64,33.64,0,0,0-14.9-5.72l-.7-.06L67.22,92c3.1.22,7,1.7,11,4.7A31.66,31.66,0,0,1,80.7,98.77Z" style="fill:#1e633b"/><g style="clip-path:url(#clip-path-4)"><path d="M116.78,151.36,114,80.43l-6.33.25,2.78,70.14Q113.62,151,116.78,151.36Z" style="fill:#184c2d"/><path d="M100.35,150.8,97.58,81.08l-6.34.25,2.78,70C96.13,151.09,98.24,150.91,100.35,150.8Z" style="fill:#184c2d"/><path d="M122.57,152.25l-3.13-78.73-1.66.06L120.89,152C121.45,152.05,122,152.14,122.57,152.25Z" style="fill:#184c2d"/><path d="M106.21,150.7l-3-76.54-1.67.07,3,76.46C105.1,150.68,105.66,150.69,106.21,150.7Z" style="fill:#184c2d"/><rect x="63.09" y="90.28" width="88.72" height="3.6" transform="translate(218.47 179.82) rotate(177.72)" style="fill:#184c2d"/><rect x="63.61" y="103.32" width="88.72" height="3.6" transform="translate(220.03 205.88) rotate(177.72)" style="fill:#184c2d"/><rect x="64.13" y="116.37" width="88.72" height="3.6" transform="translate(221.58 231.94) rotate(177.72)" style="fill:#184c2d"/></g><g style="opacity:0.34"><path d="M9.3,155.71c.85-32.27,10.83-53.12,22.59-64.8.9-.92,1.85-1.78,2.79-2.59A47.53,47.53,0,0,1,39,85a35.9,35.9,0,0,1,11.18-5.16l0,0,1.31-.31s0,0,0,0l.3,0v0l0-.54c-.85.07-1.73.18-2.63.33-17.82,3.19-41.85,26-42.53,77.36C7.54,156.27,8.42,156,9.3,155.71Z" style="fill:#d8d8d8"/></g><g style="opacity:0.28"><path d="M74.41,82a0,0,0,0,1,0,0,45,45,0,0,1,11.72,8.51c11.16,11.08,20.69,30.53,22.14,60.23,1.62.05,3.24.15,4.85.28-2.37-49.26-27-70.3-44.26-72l-.07.87a31.59,31.59,0,0,1,5.47,2.08Z" style="fill:#111"/></g><path d="M89.52,42.89c.67,16.69-11.6,30.74-27.4,31.37S33,61.87,32.3,45.18,43.9,14.44,59.7,13.81,88.86,26.2,89.52,42.89Z" style="fill:#3a240d"/><path d="M41.58,51.19a5.51,5.51,0,1,1-4.34-6.47A5.51,5.51,0,0,1,41.58,51.19Z" style="fill:#ffb380"/><path d="M39.34,50.75A3.23,3.23,0,1,1,36.8,47,3.22,3.22,0,0,1,39.34,50.75Z" style="fill:#e27954"/><path d="M91.48,51.19a5.51,5.51,0,1,1-4.34-6.47A5.5,5.5,0,0,1,91.48,51.19Z" style="fill:#ffb380"/><path d="M89.24,50.75A3.23,3.23,0,1,1,86.7,47,3.22,3.22,0,0,1,89.24,50.75Z" style="fill:#e27954"/><path d="M86.94,49.41s0,0,0,0c-.1,1.18-.25,2.33-.45,3.46-.13.79-.29,1.57-.47,2.32a34.7,34.7,0,0,1-2.86,8s0,0,0,0A28.29,28.29,0,0,1,72.06,75.28c-.44.25-.9.49-1.37.7a21.07,21.07,0,0,1-8.43,2.11,20.38,20.38,0,0,1-4.82-.37,21.62,21.62,0,0,1-5.62-1.88c-.25-.11-.5-.25-.75-.38a27.76,27.76,0,0,1-9.48-8.54c-.46-.64-.88-1.29-1.3-2,0,0,0,0,0,0a35.83,35.83,0,0,1-4.45-11.25c-.18-.75-.33-1.53-.44-2.29a38.52,38.52,0,0,1-.46-4.71c0-.47,0-.95,0-1.42s0-1,0-1.53c0,0,0,0,0-.05,0-.24,0-.47,0-.7,0-1,.14-2,.28-3,1.31-10.34,6.59-19,13.92-23.52a0,0,0,0,1,0,0,22.29,22.29,0,0,1,7.35-2.86,18.31,18.31,0,0,1,3.16-.37,21.56,21.56,0,0,1,10.58,2.31h0C79.62,20.15,86.49,31.3,87,44.58v.15c0,.81,0,1.6,0,2.39S87,48.66,86.94,49.41Z" style="fill:#ea9b65"/><path d="M78.9,49.41s0,0,0,0c-.1,1.18-.25,2.33-.45,3.46-.13.79-.29,1.57-.47,2.32a34.7,34.7,0,0,1-2.86,8s0,0,0,0A28.29,28.29,0,0,1,64,75.28c-.44.25-.91.49-1.37.7a21.15,21.15,0,0,1-5.21,1.74,21.62,21.62,0,0,1-5.62-1.88c-.25-.11-.5-.25-.75-.38a27.76,27.76,0,0,1-9.48-8.54c-.46-.64-.88-1.29-1.3-2,0,0,0,0,0,0a35.83,35.83,0,0,1-4.45-11.25c-.18-.75-.33-1.53-.44-2.29a38.52,38.52,0,0,1-.46-4.71c0-.47,0-.95,0-1.42s0-1,0-1.53c0,0,0,0,0-.05,0-.24,0-.47,0-.7,0-1,.14-2,.28-3,1.31-10.34,6.59-19,13.92-23.52a0,0,0,0,1,0,0,22.29,22.29,0,0,1,7.35-2.86,21.75,21.75,0,0,1,5.69,1.94h0C71.58,20.15,78.45,31.3,79,44.58v.15c0,.81,0,1.6,0,2.39S79,48.66,78.9,49.41Z" style="fill:#ffb380"/><path d="M88.76,38.7v-.13l0,0a37,37,0,0,0-4.18-12.21C78,14.22,68.17,13.22,65.46,13.12c-2.32-.08-8.09-.65-11.23.16-1.94.5-9.34,1.35-15.62,11.68-8.31,13.67-5.81,17-3.77,17.88h0a12.85,12.85,0,0,0,4.38,9.21l.15.13.16-8.65a15.94,15.94,0,0,1,3.8-10l.15-.18a18.23,18.23,0,0,1,14.24-6.4l7.54.15a18.22,18.22,0,0,1,15.09,8.58l.11.18A23.68,23.68,0,0,1,84,47.88L84.1,52,86.33,50a6.48,6.48,0,0,0,2.2-4.64h0C89.16,44.15,89.45,42,88.76,38.7Z" style="fill:#3a240d"/><path d="M52.93,49.75a1.36,1.36,0,1,1-1.36-1.36A1.36,1.36,0,0,1,52.93,49.75Z" style="fill:#161616"/><path d="M72.14,49.75a1.36,1.36,0,1,1-1.36-1.36A1.36,1.36,0,0,1,72.14,49.75Z" style="fill:#161616"/><path d="M55.51,45.93H47.62a.76.76,0,0,1-.76-.76h0a.77.77,0,0,1,.76-.77h7.89a.78.78,0,0,1,.77.77h0A.77.77,0,0,1,55.51,45.93Z" style="fill:#3a240d"/><path d="M74.27,45.93H66.38a.77.77,0,0,1-.77-.76h0a.78.78,0,0,1,.77-.77h7.89a.77.77,0,0,1,.76.77h0A.76.76,0,0,1,74.27,45.93Z" style="fill:#3a240d"/><path d="M84,62.18V81.53a21.37,21.37,0,0,1-.21,3.13,22.65,22.65,0,0,1-20.29,19.4,21.26,21.26,0,0,1-2.13.1,22.51,22.51,0,0,1-16.07-6.7,21.14,21.14,0,0,1-1.76-2,22.36,22.36,0,0,1-4.75-12.35c-.05-.53-.06-1-.06-1.58V62.18a54.89,54.89,0,0,1,22.87-5.13A51.86,51.86,0,0,1,84,62.18Z" style="fill:#3a240d"/><g style="opacity:0.4"><path d="M86,86.3a22.65,22.65,0,0,1-20.4,20.29c-.68.06-1.4.1-2.12.1a22.59,22.59,0,0,1-18-8.88,22.5,22.5,0,0,0,13.67,6.37c.71.07,1.43.11,2.16.11a21,21,0,0,0,2.12-.11A22.61,22.61,0,0,0,83.78,84.67C84.55,85.17,85.3,85.72,86,86.3Z" style="fill:#231407"/></g><path d="M84,62.29V81.66c0,.25,0,.5,0,.74s0,.47,0,.71,0,.52-.06.79-.05.51-.09.77A22.61,22.61,0,0,1,63.5,104.18a21,21,0,0,1-2.12.11c-.73,0-1.45,0-2.16-.11.21,0,.43,0,.64-.07.51,0,1-.14,1.51-.23A22.66,22.66,0,0,0,79.72,81.66V62.29Z" style="fill:#231407"/><path d="M45.14,65.81,41.2,66.92c-.46-.64-.89-1.29-1.3-2,0,0,0,0,0,0a35.83,35.83,0,0,1-4.45-11.25c-.18-.75-.33-1.53-.44-2.29a38.52,38.52,0,0,1-.46-4.71c0-.47,0-.95,0-1.42s0-1,0-1.53c0,0,0,0,0-.05,0-.24,0-.47,0-.7,0-1,.14-2,.28-3,.31,0,5.67-.86,5,3.34C38.92,48.79,45.14,65.81,45.14,65.81Z" style="fill:#3a240d"/><path d="M77.34,65.81l1.66,4c.46-.64,3.16-4.21,3.58-4.89,0,0,0,0,0,0A35.83,35.83,0,0,0,87,53.66c.18-.75.33-1.53.44-2.29a38.52,38.52,0,0,0,.46-4.71c0-.47,0-.95,0-1.42s0-1,0-1.53c0,0,0,0,0-.05,0-.24,0-.47,0-.7,0-1-.14-2-.28-3-.31,0-5.14-2.16-4.48,2S77.34,65.81,77.34,65.81Z" style="fill:#3a240d"/><path d="M52.81,65.07H49.19a8.69,8.69,0,0,1,8.69-8.69H61.5A8.69,8.69,0,0,1,52.81,65.07Z" style="fill:#4c2c10"/><path d="M69.54,65.07h3.62a8.69,8.69,0,0,0-8.68-8.69H60.85A8.69,8.69,0,0,0,69.54,65.07Z" style="fill:#4c2c10"/><path d="M63.45,57.27H58.78a1.19,1.19,0,0,1-1.19-1.19h0a1.19,1.19,0,0,1,1.19-1.2h4.67a1.2,1.2,0,0,1,1.2,1.2h0A1.19,1.19,0,0,1,63.45,57.27Z" style="fill:#e27954"/><path d="M79.35,28.13S51.57,51.11,36.17,41c-7.3-4.82,9.69-14.08,9.69-14.08s17.36-8.69,21.52-7.3S79.35,28.13,79.35,28.13Z" style="fill:#3a240d"/><path d="M63.5,104.18a21,21,0,0,1-2.12.11c-.73,0-1.45,0-2.16-.11A22.71,22.71,0,0,1,40,88.94c-.08-.27-.17-.53-.25-.8s-.16-.55-.24-.83-.18-.72-.25-1.09a23,23,0,0,1-.46-4.56V62.29h.09a4.18,4.18,0,0,1,3.36,1.79h0A4.28,4.28,0,0,1,43,66.55V81.66a22.64,22.64,0,0,0,18.36,22.22c.49.09,1,.18,1.49.23C63.07,104.15,63.29,104.16,63.5,104.18Z" style="fill:#4c2e18"/><g style="opacity:0.22"><g style="opacity:0.54"><path d="M44,22.25a1.6,1.6,0,0,0,1.94,2.51,16,16,0,0,1,6.72-2.36c4.92-.4,5.21-3.14,4.45-4.34S48.88,16.75,44,22.25Z" style="fill:#fff"/></g><g style="opacity:0.81"><path d="M42.28,26.31c.63.21-.24,2.39-1.27,3.2-.52.41-1.77.87-2.2.36S40.15,25.6,42.28,26.31Z" style="fill:#fff"/></g></g></g></svg>