<svg id="Avatars" xmlns="http://www.w3.org/2000/svg" xmlns:xlink="http://www.w3.org/1999/xlink" viewBox="0 0 120 120"><defs><clipPath id="clip-path"><circle cx="60" cy="-74.67" r="60" style="fill:none"/></clipPath><clipPath id="clip-path-2"><circle cx="60" cy="60" r="60" transform="translate(-18.13 26.9) rotate(-22.04)" style="fill:none"/></clipPath></defs><title>avatar</title><g style="clip-path:url(#clip-path)"><path d="M22.61,2.8a77.29,77.29,0,0,1,8.6-18.37c1.93-3.15,3.88-6.05,5.62-8.84a43.67,43.67,0,0,0,2.46-4.54c3.78-7.91,5.26-15.55,9.9-16.92a13.9,13.9,0,0,1,3.17-.61l-.27-3.72L52-51.15l-.57-7.93,0-.47h-.06a8.11,8.11,0,0,0-.82.08c-.44,0-.9.11-1.34.18l-.53.1a8.46,8.46,0,0,0-.85.16s0,0,0,0A38.3,38.3,0,0,0,31-50.08C20.27-40.71,10.61-24,7.4,1.64A40.6,40.6,0,0,1,22.61,2.8Z" style="fill:#262626"/><path d="M88.84-28.95c.56,1-2.47,2.58-2,3.61a109.49,109.49,0,0,1,11,30.41c4.78.2,9.56.49,14.33.83-2.43-26.09-11.38-43.51-21.72-53.77a44.91,44.91,0,0,0-11.71-8.51h0a.42.42,0,0,0-.13-.07,31.9,31.9,0,0,0-5.47-2.08c-.22-.06-.41-.13-.62-.18a.82.82,0,0,0-.25-.06c-.69-.18-1.38-.33-2-.46a25.48,25.48,0,0,0-2.54-.31l-.42,5.8L67-48.84l-.16,2.36A16.75,16.75,0,0,1,72.34-45C77.6-42.69,83.71-37.61,88.84-28.95Z" style="fill:#262626"/><path d="M31.05-28.95l.16,13.38.26,20.7c1.6-.11,3.21-.22,4.86-.22,2,0,4,.12,6,.32A43.81,43.81,0,0,1,58.22,2.14,44.27,44.27,0,0,1,74.56,5.22a101.46,101.46,0,0,1,11.62-.5c1.44,0,2.88.08,4.32.11l0-25.12V-33.58c0-8.23-3.4-16.11-8.79-20.67a24.51,24.51,0,0,0-2.92-2.13h0a.42.42,0,0,0-.13-.07,28.73,28.73,0,0,0-6.34-3l-.85-.26c-.41-.13-.82-.25-1.23-.35l-.89-.23-.44-.09v0a37.25,37.25,0,0,0-8.22-.88,37.27,37.27,0,0,0-7.17.67l-.31,0c-.42.09-.85.19-1.28.31a2,2,0,0,0-.5.11c-.4.1-.77.2-1.15.33s-.75.21-1.11.33-.92.33-1.38.49c0,0,0,0,0,0a27.12,27.12,0,0,0-9.72,6.29A24.4,24.4,0,0,0,31-36.37c0,.51,0,1,0,1.53l0,2.6Z" style="fill:#262626"/><g style="opacity:0.34"><path d="M10.3,1.42c3-22.9,11.22-38.6,20.7-48.19.9-.94,1.83-1.81,2.77-2.63a48.57,48.57,0,0,1,4.29-3.32A36.43,36.43,0,0,1,49.19-58h0c.45-.12.89-.22,1.32-.32,0,0,0,0,0,0,.28-.07.57-.12.85-.17l0-.57,0-.47a1.81,1.81,0,0,1-.61-.1,4.28,4.28,0,0,0-.44-.2q-.57.15-1.11.33c-.48.16-.92.33-1.38.49,0,0,0,0,0,0A38.3,38.3,0,0,0,31-50.08C20.27-40.71,10.61-24,7.4,1.64,8.37,1.54,9.33,1.46,10.3,1.42Z" style="fill:#d8d8d8"/></g><path d="M73.5-57.46h0a45,45,0,0,1,11.72,8.51c10.43,10.35,19.43,28,21.77,54.47l5.59.39c-2.28-26.7-11.34-44.46-21.83-54.86a44.91,44.91,0,0,0-11.71-8.51h0a.42.42,0,0,0-.13-.07,32.65,32.65,0,0,0-6.09-2.26.86.86,0,0,0-.25-.07c-.69-.18-1.38-.32-2-.45-.87-.15-1.7-.25-2.54-.32l-.08,1a31.59,31.59,0,0,1,5.47,2.08A.42.42,0,0,1,73.5-57.46Z" style="fill:#111"/><g style="opacity:0.72"><path d="M86.18,4.72c1.44,0,2.88.08,4.32.11l0-25.12C86-14.83,84.43-7.87,84.43-.78l0,5.52C85,4.73,85.6,4.71,86.18,4.72Z" style="fill:#111"/></g></g><g style="clip-path:url(#clip-path-2)"><circle cx="60" cy="60" r="60" transform="translate(-18.13 26.9) rotate(-22.04)" style="fill:none"/><path d="M104.37,100.72s.79,5-3.84,10.18c-5.9,6.55-17.22,7.54-17.22,7.54L81.82,111l9.39-8.24Z" style="fill:#020202"/><path d="M15.65,100.56s-.79,5,3.85,10.18c5.9,6.54,17,7.54,17,7.54l1.22-9.54-8.86-6.17Z" style="fill:#020202"/><path d="M59.93,88.06Z" style="fill:#50891f"/><path d="M70.3,84.21s0,0,0,0l.78.54.07.06a44,44,0,0,1,7.89,7.39,54.33,54.33,0,0,1,4.12,5.58.47.47,0,0,1,.07.12,57.08,57.08,0,0,1,3.08,5.34,70.08,70.08,0,0,1,3.5,7.92c.64,1.72,1.25,3.55,1.8,5.48a109.59,109.59,0,0,1,4.1,26.91c3.47.27,6.94.46,10.42.49.6,0,1.18,0,1.77.07a117,117,0,0,0-6-34.81c-.64-1.86-1.32-3.63-2-5.33a74.82,74.82,0,0,0-13.6-21.72c-1-1.1-2-2.09-2.88-3l0,0,0-.06c-2-2-13-2-13-2l-.21.47,0,0-.9,2L67.8,82.75s0,0,0,0A23.08,23.08,0,0,1,70.3,84.21Z" style="fill:#ffb380"/><path d="M24.34,139.9a105.62,105.62,0,0,1,4-23.7c.56-1.93,1.19-3.76,1.85-5.48a66.59,66.59,0,0,1,3.25-7.35c1-2,2.08-3.81,3.14-5.46,0,0,.06-.09.07-.12a57.45,57.45,0,0,1,4.12-5.58,44.38,44.38,0,0,1,7.9-7.39h0l.06-.06.78-.54s0,0,0,0A22,22,0,0,1,52,82.78s0,0,0,0l-1.41-3.08-.9-2,0,0-.21-.47s-11,0-13,2l-.05.06,0,0c-1,.92-1.94,1.93-3,3a74.6,74.6,0,0,0-13.36,21.21c-.73,1.69-1.4,3.48-2.05,5.34a115.65,115.65,0,0,0-6,33.08C16.12,141.09,20.21,140.42,24.34,139.9Z" style="fill:#ffb380"/><path d="M51.6,84.78c.18.06.35.13.51.2l.26.08Z" style="fill:#af36b2"/><path d="M35.24,138.9q6.75-.37,13.58-.19c12,.35,24,2.28,35.93,3.72L83.5,119l-.19-3.58.85-5.27,2.36-14.55,0-3.81,0-1,0-3.37v-.29l-.07-4.3a1.71,1.71,0,0,0-.38-1s0-.06-.07-.07c-.3-.32-.57-.63-.87-.93l-.14-.13-.21-.21-1.21-1.22,0,0,0-.06a8.23,8.23,0,0,0-.84-.66A44.66,44.66,0,0,0,71.8,74c-1.1-.12-4.4-.33-4.4-.33l0,.21.28,1c0,3.68-3.32,6.71-7.41,6.76h-.1c-4.49,0-8.16-3.3-8.14-7.37v-.72s-4.15.35-4.5.47c-1.22.09-7.2,2.49-10,4.42-.3.21-.58.42-.8.61l-.21.17-.05.06,0,0c-.24.23-.48.45-.73.7h0c-.26.25-.48.49-.73.73l-.33.35L33.44,84l0,3.05-.07,4.76,0,3.81,3.23,19.84Z" style="fill:#262626"/><path d="M47.71,86.29h0Z" style="fill:#50891f"/><polygon points="86.52 95.58 33.27 95.58 33.32 91.77 86.47 91.77 86.52 95.58" style="fill:#f2f2f2"/><path d="M46.45,102.69l-10,12.73a71.93,71.93,0,0,0-6.34-4.52,35.21,35.21,0,0,1-5.38-3.43c-1.09-.83-3-2.28-4.79-3.62-.47-.36-.94-.71-1.38-1.06l-2.95-2.24L28,87.86l2.45-2.54,3.73-3.82.42-.44.33-.35c.25-.24.47-.48.73-.73l.73-.71,0,0,.05-.06.21-.17c.22-.19.5-.4.8-.61l0,.16,1.15,3.11,3.13,8.5.21.61,1.46,4Z" style="fill:#262626"/><path d="M104.38,100.72l-3,2.26-1.46,1.1c-1.75,1.34-3.61,2.73-4.71,3.56a35.86,35.86,0,0,1-5.44,3.48c-1.69.85-6.5,4.28-6.5,4.28l.59-5.46.69-6.36,1.86-12.77,0-3.37v-.29l-.07-4.3v-.59a5.52,5.52,0,0,0-.38-.43s0-.06-.07-.07l-.28-.32c-.12-.12-.22-.24-.35-.36L85,80.83a.83.83,0,0,0,.14.13c.19.19.38.36.54.55a4.71,4.71,0,0,1,.68.7l3.4,3.49,2.47,2.54Z" style="fill:#262626"/><path d="M86.78,111.92l-2.62-1.79-.26-.19-10.31-7.08,7.6-20.7,1.33-3.64a8.23,8.23,0,0,1,.84.66l0,.06,0,0c.33.31.76.75,1.21,1.22l.21.21.14.13a.83.83,0,0,0,.14.13l.1.12c.13.12.23.24.35.36a.22.22,0,0,0,.09.07c.38.42.66.7.66.7l.07,5.25Z" style="fill:#262626"/><polygon points="47.32 92.5 47.32 96.43 43.53 94.75 40.01 93.18 28.73 88.17 28.03 87.86 30.49 85.32 30.8 85.46 41.86 90.17 42.41 90.42 47.32 92.5" style="fill:#f2f2f2"/><polygon points="92.24 88.24 91.42 88.61 86.45 90.82 80.19 93.6 73.83 96.43 73.83 92.5 77.83 90.8 86.4 87.15 89.39 85.86 89.77 85.71 92.24 88.24" style="fill:#f2f2f2"/><path d="M30.23,110.72c-.66,1.72-1.29,3.55-1.85,5.48l-9.77-8.74a41,41,0,0,1,1.51-3.94Z" style="fill:#e27954"/><path d="M101.6,108.35l-10,8.3c-.55-1.93-1.16-3.76-1.8-5.48L99.93,104C100.64,105.68,101,106.49,101.6,108.35Z" style="fill:#e27954"/><path d="M84.75,142.43,83.5,119c-.12-.35-.19-3.58-.19-3.58A8,8,0,0,0,78.87,123l.86,18.81C81.4,142,83.07,142.23,84.75,142.43Z"/><g style="opacity:0.46"><path d="M52.08,73.52v.26a31.39,31.39,0,0,0-10.54,5.3c-.69.57-1.66,1.46-2.81,2.59C37.2,83.13,35.35,85,33.39,87c-6.78,7-14.78,15.78-14.78,15.78l-2.95-2.24L28,87.86l2.45-2.54,3.73-3.82.42-.44.33-.35c.25-.24.47-.48.73-.73h0c.25-.25.49-.47.73-.7l0,0,.05-.06.21-.17c.22-.19.5-.4.8-.61,2.85-1.93,8.83-4.33,10-4.42C47.93,73.86,52.08,73.52,52.08,73.52Z" style="fill:#fff"/></g><g style="opacity:0.43"><path d="M104.38,100.72l-3,2.26c-.21,0-8.31-8.57-15-15.52,0,0,0,0,0,0v0c-1.88-1.94-3.68-3.77-5.21-5.26-1.38-1.36-2.54-2.44-3.36-3.1a31.68,31.68,0,0,0-10.38-5.23l0-.21s3.3.21,4.4.33a44.66,44.66,0,0,1,10.72,4.57,8.23,8.23,0,0,1,.84.66l0,.06,0,0c.33.31.76.75,1.21,1.22l.21.21.14.13a.83.83,0,0,0,.14.13c.19.19.38.36.54.55a4.71,4.71,0,0,1,.68.7l3.4,3.49,2.47,2.54Z"/></g><path d="M69.52,77.22a4.07,4.07,0,0,0-1.36-2.88s-1.39-1.85-2.23-2.13a16.31,16.31,0,0,0-5.32-.85c-.22,0-.45,0-.68,0h0c-.23,0-.46,0-.68,0a16.26,16.26,0,0,0-5.32.85,8.36,8.36,0,0,0-2.25,2h0a4.33,4.33,0,0,0-1.34,3c0,3.09,4.23,5.65,9.59,5.84h0C65.28,82.87,69.52,80.31,69.52,77.22Z" style="fill:#ea9b65"/><rect x="38.85" y="46.22" width="8.47" height="35.62" style="fill:#fc2929"/><rect x="73.36" y="46.59" width="8.47" height="35.62" style="fill:#fc2929"/><path d="M85.09,37.13a26,26,0,0,1-6.72,17.55A23.83,23.83,0,0,1,75,57.79,23.48,23.48,0,0,1,60.74,62.6a23.91,23.91,0,0,1-19.19-9.79,26.14,26.14,0,0,1-5.17-15.68c0-.31,0-.6,0-.9,0-.64.06-1.25.13-1.87,0-.06,0-.14,0-.21C38,21.5,48.25,11.66,60.74,11.66a5,5,0,0,1,.67,0,24,24,0,0,1,19.18,10.7.14.14,0,0,1,.06.08,26,26,0,0,1,4.27,11.68,1.33,1.33,0,0,0,0,.21c.06.62.1,1.23.12,1.87C85.09,36.53,85.09,36.82,85.09,37.13Z" style="fill:#fc2929"/><path d="M44.82,48a4.17,4.17,0,1,1-4.17-4.18A4.17,4.17,0,0,1,44.82,48Z" style="fill:#ffb380"/><path d="M43.2,48a2.55,2.55,0,1,1-2.55-2.55A2.55,2.55,0,0,1,43.2,48Z" style="fill:#e27954"/><path d="M84.21,48.82a4.27,4.27,0,1,1-4.27-4.26A4.27,4.27,0,0,1,84.21,48.82Z" style="fill:#ffb380"/><path d="M82.8,48.82a2.61,2.61,0,1,1-2.61-2.6A2.61,2.61,0,0,1,82.8,48.82Z" style="fill:#e27954"/><path d="M41.15,65.89a7.73,7.73,0,1,1,7.72-7.73A7.74,7.74,0,0,1,41.15,65.89Zm0-13.75a6,6,0,1,0,6,6A6,6,0,0,0,41.15,52.14Z" style="fill:#fffa5a"/><path d="M77.59,66.61a7.73,7.73,0,1,1,7.73-7.73A7.74,7.74,0,0,1,77.59,66.61Zm0-13.75a6,6,0,1,0,6,6A6,6,0,0,0,77.59,52.86Z" style="fill:#fffa5a"/><path d="M48,85.5h0Z" style="fill:#50891f"/><path d="M67.18,51.85V74.91a7.09,7.09,0,0,1-7.24,6.92,7.7,7.7,0,0,1-7.87-7.53V51.84a7.09,7.09,0,0,1,7.24-6.92h.64A7.1,7.1,0,0,1,67.18,51.85Z" style="fill:#ea9b65"/><polygon points="67.18 64.14 67.16 71.35 52.06 68.36 52.06 63.33 67.18 64.14" style="fill:#e27954"/><path d="M80.62,43c0,14.12-9.09,25.57-20.31,25.57-.29,0-.58,0-.87,0h-.17C48.53,67.86,40,56.69,40,43s8.52-24.85,19.26-25.53a.48.48,0,0,1,.17,0,8.44,8.44,0,0,1,.87,0C71.53,17.44,80.62,28.89,80.62,43Z" style="fill:#ea9b65"/><path d="M78.72,43c0,13.68-8.54,24.85-19.28,25.53h-.17C48.53,67.86,40,56.69,40,43s8.52-24.85,19.26-25.53a.48.48,0,0,1,.17,0C70.18,18.16,78.72,29.33,78.72,43Z" style="fill:#ffb380"/><path d="M72.07,19.26c5.52,4,8.5,9.31,6.67,11.84s-7.8,1.32-13.31-2.7-8.51-9.31-6.67-11.83S66.55,15.25,72.07,19.26Z" style="fill:#f46f14"/><path d="M54.59,27.83C49.2,32,43.13,33.18,41,30.47S41.59,22.17,47,18s11.46-5.35,13.56-2.64S60,23.66,54.59,27.83Z" style="fill:#f46f14"/><path d="M61.87,52.43h-3.5a1,1,0,0,1-1-1h0a1,1,0,0,1,1-1h3.5a1,1,0,0,1,1,1h0A1,1,0,0,1,61.87,52.43Z" style="fill:#e27954"/><path d="M54.41,40.27,49,39.88a.78.78,0,0,1-.72-.84h0a.78.78,0,0,1,.84-.72l5.43.38a.78.78,0,0,1,.73.84h0A.79.79,0,0,1,54.41,40.27Z" style="fill:#fc2929"/><path d="M71.53,39.87l-5.44.41a.79.79,0,0,1-.84-.73h0a.79.79,0,0,1,.72-.84l5.44-.4a.78.78,0,0,1,.84.72h0A.78.78,0,0,1,71.53,39.87Z" style="fill:#fc2929"/><path d="M53.89,47.43a.55.55,0,0,1-.55-.55,1.28,1.28,0,0,0-2.56,0,.55.55,0,0,1-.55.55.55.55,0,0,1-.55-.55,2.38,2.38,0,0,1,4.76,0A.55.55,0,0,1,53.89,47.43Z"/><path d="M70.58,47.43a.55.55,0,0,1-.55-.55,1.28,1.28,0,0,0-2.56,0,.55.55,0,0,1-.55.55.55.55,0,0,1-.55-.55,2.38,2.38,0,0,1,4.76,0A.55.55,0,0,1,70.58,47.43Z"/><path d="M73.57,50.81c-3.36.11-5.38,3.88-5.76,4.29a12.67,12.67,0,0,1-3.18,2.76s6.9,2.69,7.18,2.71a4.91,4.91,0,0,0,1.76.33,5,5,0,1,0,0-10.09Z" style="fill:#fecccb"/><path d="M38.85,72.13h8.47a0,0,0,0,1,0,0v48.06a3,3,0,0,1-3,3H41.88a3,3,0,0,1-3-3V72.13a0,0,0,0,1,0,0Z" style="fill:#fc2929"/><path d="M73.34,72.13h8.47a0,0,0,0,1,0,0v48.06a3,3,0,0,1-3,3H76.37a3,3,0,0,1-3-3V72.13a0,0,0,0,1,0,0Z" style="fill:#fc2929"/><polygon points="50.23 47.44 46.47 47.44 50.13 45.65 50.23 47.44"/><polygon points="70.58 47.44 74.33 47.44 70.67 45.65 70.58 47.44"/><path d="M67.83,34.36H53.89V32.18a7,7,0,0,1,7-7h0a7,7,0,0,1,7,7Z" style="fill:#ffb380"/><path d="M65.13,60a.55.55,0,0,1-.55-.52A2.06,2.06,0,0,0,64,58a1.34,1.34,0,0,0-1-.17.55.55,0,0,1-.67-.39.54.54,0,0,1,.38-.67,2.44,2.44,0,0,1,1.95.33,2.94,2.94,0,0,1,1.05,2.37.55.55,0,0,1-.53.58Z" style="fill:#e27954"/><g style="opacity:0.5"><path d="M71.67,53.13c1.44,0,2-.59,4.16.7.56.32.06-1.64-1.63-2S71,53.16,71.67,53.13Z" style="fill:#fff"/></g><g style="opacity:0.19"><path d="M85.07,36.23H36.4c0-.7.07-1.4.15-2.08H84.92C85,34.83,85.05,35.53,85.07,36.23Z"/></g><path d="M85,32.69v1.67H36.55V32.69a21,21,0,0,1,21-21h6.91q.78,0,1.56.12A21,21,0,0,1,85,32.69Z" style="fill:#262626"/><path d="M83.3,32.69v1.67H36.53c0-.06,0-.14,0-.21V32.69a21,21,0,0,1,21-21h4.69A21,21,0,0,1,80.59,22.39a.14.14,0,0,1,.06.08A20.9,20.9,0,0,1,83.3,32.69Z" style="fill:#262626"/><path d="M50.23,30.51s-4-4.38.56-9.14c0,0,3.1,6.07,4.47,5.5a4.06,4.06,0,0,1,.94-4.95s1.58,2.78,3,2.94c1.76.21,5.24-.56,7.74,1.08a11.36,11.36,0,0,1,3.68,5Z" style="fill:#fc2929"/><path d="M69.93,34.36H50.23V30.51h19.7a1.93,1.93,0,0,1,1.93,1.92h0A1.93,1.93,0,0,1,69.93,34.36Z" style="fill:#fff"/><path d="M56.44,32.56a1.18,1.18,0,0,1-1.21,1.21,1.21,1.21,0,1,1,1.21-1.21Z" style="fill:#262626"/><path d="M61.53,32.56a1.22,1.22,0,1,1-1.22-1.21A1.22,1.22,0,0,1,61.53,32.56Z" style="fill:#262626"/><path d="M66.61,32.56a1.22,1.22,0,1,1-1.22-1.21A1.22,1.22,0,0,1,66.61,32.56Z" style="fill:#262626"/><g style="opacity:0.61"><path d="M42.73,71.59H38.85v-3h3.88a1.52,1.52,0,0,1,1.52,1.52h0A1.52,1.52,0,0,1,42.73,71.59Z" style="fill:#dd1f1f"/><path d="M42.73,93.29H38.85v-3h3.88a1.52,1.52,0,0,1,1.52,1.52h0A1.52,1.52,0,0,1,42.73,93.29Z" style="fill:#dd1f1f"/><path d="M43.44,83.35h3.88v-3H43.44a1.52,1.52,0,0,0-1.52,1.52h0A1.52,1.52,0,0,0,43.44,83.35Z" style="fill:#dd1f1f"/></g><path d="M42.73,115.13H38.85v-3h3.88a1.52,1.52,0,0,1,1.52,1.52h0A1.52,1.52,0,0,1,42.73,115.13Z" style="fill:#dd1f1f"/><path d="M43.44,105.2h3.88v-3H43.44a1.52,1.52,0,0,0-1.52,1.52h0A1.53,1.53,0,0,0,43.44,105.2Z" style="fill:#dd1f1f"/><g style="opacity:0.61"><path d="M78,71.59h3.87v-3H78a1.53,1.53,0,0,0-1.53,1.52h0A1.53,1.53,0,0,0,78,71.59Z" style="fill:#dd1f1f"/><path d="M78,93.29h3.87v-3H78a1.53,1.53,0,0,0-1.53,1.52h0A1.53,1.53,0,0,0,78,93.29Z" style="fill:#dd1f1f"/><path d="M77.23,83.35H73.36v-3h3.87a1.53,1.53,0,0,1,1.53,1.52h0A1.53,1.53,0,0,1,77.23,83.35Z" style="fill:#dd1f1f"/></g><path d="M77.93,115.09h3.88v-3H77.93a1.53,1.53,0,0,0-1.52,1.53h0A1.52,1.52,0,0,0,77.93,115.09Z" style="fill:#dd1f1f"/><path d="M77.22,105.15H73.34v-3h3.88a1.52,1.52,0,0,1,1.52,1.52h0A1.52,1.52,0,0,1,77.22,105.15Z" style="fill:#dd1f1f"/><g style="opacity:0.26"><path d="M85,32.93v1.43H79.19c.52-13.46-6.08-21.27-17.92-22.7h2.4A21.27,21.27,0,0,1,85,32.93Z"/></g><g style="opacity:0.2"><path d="M59.22,11.66a21,21,0,0,0-21,21v1.46a1.77,1.77,0,0,0,0,.21H36.55V32.69a21,21,0,0,1,21-21Z" style="fill:#fff"/></g><g style="opacity:0.5"><path d="M77.59,55.4a.82.82,0,0,1-.82.82A.82.82,0,0,1,76,55.4a.81.81,0,0,1,.81-.81A.82.82,0,0,1,77.59,55.4Z" style="fill:#fff"/></g></g></svg>