<svg id="Avatars" xmlns="http://www.w3.org/2000/svg" xmlns:xlink="http://www.w3.org/1999/xlink" viewBox="0 0 120 120"><defs><clipPath id="clip-path"><circle cx="60" cy="60" r="60" transform="translate(-24.85 60) rotate(-45)" style="fill:none"/></clipPath></defs><title>avatar</title><g style="clip-path:url(#clip-path)"><circle cx="60" cy="60" r="60" transform="translate(-24.85 60) rotate(-45)" style="fill:none"/><path d="M84.34,138.89A33.76,33.76,0,1,0,30,133.58,482.74,482.74,0,0,1,84.34,138.89Z" style="fill:#195e95"/><path d="M104.1,100.45s.79,5-3.84,10.18c-5.9,6.55-17,7.54-17,7.54l7.64-15.71Z" style="fill:#b5286f"/><path d="M15.38,100.28s-.79,5,3.85,10.19c5.9,6.54,17,7.54,17,7.54L28.55,102.3Z" style="fill:#b5286f"/><polygon points="84.81 86.87 34.53 86.87 35.69 36.67 84.45 32.85 84.81 86.87" style="fill:#ffdb27"/><rect x="40.35" y="39.05" width="39.79" height="44.66" style="fill:#d6b52b"/><path d="M59.66,87.79Z" style="fill:#50891f"/><path d="M70,83.94s0,0,0,0c.25.16.51.35.79.54,0,0,0,0,.06.06a44.29,44.29,0,0,1,7.9,7.38,56,56,0,0,1,4.12,5.59l.07.12c1,1.61,2.08,3.39,3.08,5.33a70.5,70.5,0,0,1,3.21,7.19c.65,1.7,1.27,3.51,1.84,5.42a106.19,106.19,0,0,1,4.21,25l4.41.74c2.64.45,5.26,1,7.88,1.49a116.46,116.46,0,0,0-6.1-34.31c-.64-1.86-1.34-3.62-2.05-5.3A75,75,0,0,0,86.06,82c-1-1.1-2-2.09-2.89-3l0,0,0,0c-2-2-13-2-13-2l-.21.47h0l-.9,2-1.41,3.08a.05.05,0,0,1,0,0A21,21,0,0,1,70,83.94Z" style="fill:#ffb380"/><path d="M24.6,133.42a99.68,99.68,0,0,1,3.56-17.65c.56-1.91,1.18-3.72,1.82-5.42a70.74,70.74,0,0,1,3.22-7.25c1-2,2.09-3.81,3.15-5.46l.07-.12a54.52,54.52,0,0,1,4.12-5.59,44.64,44.64,0,0,1,7.89-7.38h0l0-.06.78-.54s0,0,0,0a21.29,21.29,0,0,1,2.45-1.43l0,0L50.4,79.4l-.91-2h0l-.2-.47s-11,0-13,2l-.05,0,0,0c-1,.92-1.95,1.93-3,3a74.63,74.63,0,0,0-13.42,21.37c-.71,1.69-1.39,3.44-2,5.3a109.59,109.59,0,0,0-5.35,24.66Q18.5,133.28,24.6,133.42Z" style="fill:#ffb380"/><path d="M51.33,84.51l.51.19.26.09Z" style="fill:#af36b2"/><path d="M86.93,139.28l-.42-27.63-.45-29.07a1.47,1.47,0,0,0-.4-1c-.84-.93-1.67-1.78-2.49-2.56l0,0,0,0a7.07,7.07,0,0,0-.83-.66,45,45,0,0,0-10.73-4.57c-1.09-.12-4.4-.33-4.4-.33l.33,1.22c0,3.68-3.32,6.71-7.4,6.76h-.11c-4.48,0-8.15-3.3-8.14-7.37v-.72s-4.13.35-4.5.47c-1.22.09-7.2,2.49-10,4.42a10,10,0,0,0-1,.78l-.05,0,0,0c-.25.23-.49.45-.73.69s-.49.49-.73.75l-.33.35-1.19,2.9-.43,28-.34,22A496.58,496.58,0,0,1,86.93,139.28Z" style="fill:#f7468e"/><path d="M69.25,77a4.07,4.07,0,0,0-1.36-2.88s-1.39-1.85-2.23-2.13a16.26,16.26,0,0,0-5.32-.85c-.22,0-.45,0-.68,0h0c-.23,0-.46,0-.68,0a16.31,16.31,0,0,0-5.32.85,8.28,8.28,0,0,0-2.24,2s0,.07,0,.11A4.07,4.07,0,0,0,50.07,77c0,3.09,4.24,5.65,9.59,5.84h0C65,82.6,69.25,80,69.25,77Z" style="fill:#ea9b65"/><path d="M47.44,86Z" style="fill:#50891f"/><path d="M46.17,102.42l-13.42,9.25-.16.11s-3.08-.79-8.08-4.58l-9.13-6.92L34,81.23l.75-.78c.48-.51,1-1,1.46-1.45l0,0,.05-.06a10,10,0,0,1,1-.78Z" style="fill:#f7468e"/><path d="M104.1,100.46,95,107.38a58.44,58.44,0,0,1-10,6.05l1.55-1.78L86.05,82c-1-1.09-1.94-2.08-2.88-3l0,0,0-.06c-.22-.2,3.33,3.25,3,3Z" style="fill:#f7468e"/><path d="M86.51,111.65l-13.2-9.05,8.94-24.35a8.3,8.3,0,0,1,.83.66l0,.06,0,0c.94.91,2.91,2.93,2.91,2.93Z" style="fill:#f7468e"/><path d="M78.51,138V98.6a5.77,5.77,0,0,0-5.77-5.78h-26A5.78,5.78,0,0,0,41,98.6v35.53C53.52,134.93,66.05,136.29,78.51,138Z" style="fill:#262626"/><path d="M49.74,134.77v-42h-3.5V134.5Z" style="fill:#f2f3f4"/><path d="M61.49,135.91V92.82H58v42.73C59.16,135.66,60.33,135.78,61.49,135.91Z" style="fill:#f2f3f4"/><path d="M73.24,137.33V92.82H69.75v44.06C70.91,137,72.08,137.17,73.24,137.33Z" style="fill:#f2f3f4"/><path d="M30,110.35c-.64,1.7-1.26,3.51-1.82,5.42l-9.92-8.46c.65-1.86.83-2.21,1.54-3.9Z" style="fill:#e27954"/><path d="M101,107.22l-9.89,8.36c-.57-1.91-1.19-3.72-1.84-5.42l10.19-6.92C100.17,104.92,100.36,105.35,101,107.22Z" style="fill:#e27954"/><g style="opacity:0.46"><path d="M51.81,73.24v.27a31.39,31.39,0,0,0-10.54,5.3c-.69.57-1.67,1.46-2.82,2.59-1.53,1.46-3.37,3.32-5.33,5.34-6.78,7-14.78,15.78-14.78,15.78l-3-2.24L27.76,87.59l2.45-2.54L34,81.23l.42-.44.33-.35c.24-.24.47-.48.73-.73h0c.24-.25.49-.47.73-.7l0,0,.06,0,.2-.17c.23-.19.51-.4.8-.61,2.86-1.93,8.84-4.33,10-4.42C47.65,73.59,51.81,73.24,51.81,73.24Z" style="fill:#fff"/></g><g style="opacity:0.14"><path d="M104.13,100.45s-1.31,1-3,2.26c-.21,0-8.31-8.57-15-15.52,0,0,0,0,0,0v0c-1.88-2-3.68-3.77-5.21-5.27-1.38-1.35-2.54-2.43-3.36-3.09A31.68,31.68,0,0,0,67.2,73.56l0-.21s3.3.21,4.4.33a44.09,44.09,0,0,1,10.72,4.57,8.23,8.23,0,0,1,.84.66l0,0,0,0c.33.31.76.74,1.21,1.21l.21.21.14.14a.75.75,0,0,0,.14.12c.19.19.38.37.54.56a4.71,4.71,0,0,1,.68.7l3.4,3.49L92,88Z"/></g><path d="M68.89,76.77c0,3.07-4.38,5.56-9.77,5.56s-9.76-2.49-9.76-5.56,4.37-5.57,9.76-5.57S68.89,73.69,68.89,76.77Z" style="fill:#ea9b65"/><path d="M59.12,82.88c-5.78,0-10.32-2.68-10.32-6.11s4.54-6.12,10.32-6.12,10.32,2.69,10.32,6.12S64.91,82.88,59.12,82.88Zm0-11.12c-5,0-9.21,2.29-9.21,5s4.22,5,9.21,5,9.21-2.3,9.21-5S64.11,71.76,59.12,71.76Z" style="fill:#fff"/><path d="M66.75,51.86V63l0,6.95v4.37a7,7,0,0,1-7.3,6.75c-4.38,0-8-3.29-7.93-7.34V51.85a7,7,0,0,1,7.3-6.75h.64A7.06,7.06,0,0,1,66.75,51.86Z" style="fill:#ea9b65"/><polygon points="66.75 64.48 66.73 70.94 51.49 68.73 51.49 63.67 66.75 64.48" style="fill:#e27954"/><path d="M84.81,37.24c0,14.19-11.41,21-25,21s-24.14-6.79-24.14-21,11-25.68,24.56-25.68S84.81,23.06,84.81,37.24Z" style="fill:#ffdb27"/><path d="M44.2,48.23A4.21,4.21,0,1,1,40,44,4.21,4.21,0,0,1,44.2,48.23Z" style="fill:#ffb380"/><path d="M42.56,48.23A2.57,2.57,0,1,1,40,45.66,2.57,2.57,0,0,1,42.56,48.23Z" style="fill:#e27954"/><path d="M83.92,49a4.3,4.3,0,1,1-4.3-4.31A4.31,4.31,0,0,1,83.92,49Z" style="fill:#ffb380"/><path d="M82.5,49a2.63,2.63,0,1,1-2.63-2.63A2.62,2.62,0,0,1,82.5,49Z" style="fill:#e27954"/><path d="M80.3,43.17C80.3,57.42,71.13,69,59.82,69a11.59,11.59,0,0,1-1.46-.08c-10.63-.93-19-12.08-19-25.71s8.39-24.78,19-25.71a11.59,11.59,0,0,1,1.46-.08C71.13,17.38,80.3,28.93,80.3,43.17Z" style="fill:#ea9b65"/><path d="M77.37,43.17c0,13.63-5,24.66-19,25.71-10.63-.93-19-12.08-19-25.71s8.39-24.78,19-25.71C69,18.39,77.37,29.55,77.37,43.17Z" style="fill:#ffb380"/><path d="M52.5,45.54a1.2,1.2,0,1,1-1.19-1.2A1.19,1.19,0,0,1,52.5,45.54Z" style="fill:#363b4f"/><path d="M69.66,45.93a1.2,1.2,0,1,1-1.2-1.2A1.2,1.2,0,0,1,69.66,45.93Z" style="fill:#363b4f"/><path d="M60.79,51.32H58.46a.65.65,0,0,1-.64-.66h0a.66.66,0,0,1,.64-.66h2.33a.65.65,0,0,1,.63.66h0A.64.64,0,0,1,60.79,51.32Z" style="fill:#e27954"/><path d="M53.93,40.64h-5.5a.8.8,0,0,1-.79-.8h0a.8.8,0,0,1,.79-.79h5.5a.79.79,0,0,1,.79.79h0A.79.79,0,0,1,53.93,40.64Z" style="fill:#1c557c"/><path d="M72.17,40.36l-6.82.15a.91.91,0,0,1-1-.77h0a.89.89,0,0,1,1-.81l6.82-.15a.9.9,0,0,1,1,.76h0A.92.92,0,0,1,72.17,40.36Z" style="fill:#ffdb27"/><path d="M60.23,58.92h-.42a16.42,16.42,0,0,1-6.57-1.44.35.35,0,0,1-.15-.47.35.35,0,0,1,.47-.14,16.09,16.09,0,0,0,6.27,1.36,12.77,12.77,0,0,0,4.77-.9c.49-.16,1-.33,1.54-.49a.35.35,0,0,1,.43.23.34.34,0,0,1-.23.43c-.54.16-1,.33-1.53.49A13.84,13.84,0,0,1,60.23,58.92Z" style="fill:#e27954"/><path d="M59.75,60.51a5,5,0,0,1-2.7-.68.18.18,0,0,1,0-.24.19.19,0,0,1,.25-.05s2,1.32,5.18.1a.17.17,0,0,1,.22.1.16.16,0,0,1-.1.22A7.87,7.87,0,0,1,59.75,60.51Z" style="fill:#e27954"/><path d="M71.35,19.09a29.66,29.66,0,0,1-4.51,13.58c-5.56,8.81-26.49,31.56-26.49,31.56S35.78,40,35.78,39C35.78,32.46,51.71,9.31,71.35,19.09Z" style="fill:#ffdb27"/><path d="M69.28,41.83h0a.82.82,0,0,1-.82-.82V38.27a.82.82,0,0,1,.82-.81h0a.81.81,0,0,1,.81.81V41A.82.82,0,0,1,69.28,41.83Z" style="fill:#cecece"/><path d="M60.55,62.88a.84.84,0,1,1-.83-.83A.83.83,0,0,1,60.55,62.88Z" style="fill:#c1c1c1"/><polygon points="70.89 27.2 58.17 47.97 52.5 40.63 70.89 27.2" style="fill:#ffdb27"/><path d="M66.75,23.93s2.8,12.45,14.34,8.92L72.3,19.49l-5.71-1.73Z" style="fill:#ffdb27"/><g style="opacity:0.17"><path d="M50.83,19c2.83.95,1.94,9.94-3.74,11.37-.9.22-3.16.92-4.09-1.29S47.8,18,50.83,19Z" style="fill:#fff"/></g><g style="opacity:0.17"><path d="M46.24,36.3c-.35,1.25-1.37,2.06-2.28,1.8s-1.35-1.47-1-2.72,1.37-2.06,2.28-1.81S46.59,35.05,46.24,36.3Z" style="fill:#fff"/></g><path d="M80.91,52.44a.62.62,0,1,1-.61-.61A.61.61,0,0,1,80.91,52.44Z" style="fill:#c1c1c1"/><path d="M80.84,47.21h0a.8.8,0,0,1,.53-1l1.76-.55a.8.8,0,0,1,1,.53h0a.81.81,0,0,1-.53,1l-1.76.55A.8.8,0,0,1,80.84,47.21Z" style="fill:#cecece"/><g style="opacity:0.14"><path d="M86.93,139.28l-.41-26.62a9.43,9.43,0,0,0-5.61,8.63v17.09C82.92,138.67,84.92,139,86.93,139.28Z"/></g></g></svg>