<svg id="Avatars" xmlns="http://www.w3.org/2000/svg" xmlns:xlink="http://www.w3.org/1999/xlink" viewBox="0 0 120 120"><defs><clipPath id="clip-path"><circle cx="60" cy="60" r="60" style="fill:none"/></clipPath><clipPath id="clip-path-2"><circle cx="60" cy="-76" r="60" transform="translate(71.31 20.17) rotate(-45)" style="fill:none"/></clipPath></defs><title>avatar</title><g style="clip-path:url(#clip-path)"><circle cx="60" cy="60" r="60" style="fill:none"/><path d="M20.6,138.12c2-12.81,5.75-22.56,10.2-29.7A43.92,43.92,0,0,1,39.72,97.9a29.83,29.83,0,0,1,4-2.89,19.5,19.5,0,0,1,8.47-3l-.59-13.17v-.4c-.63,0-1.27.12-1.92.23a28.75,28.75,0,0,0-6,1.58,36.83,36.83,0,0,0-4,1.77C26.33,89,12.2,106.39,7.57,137Q14.13,137.37,20.6,138.12Z" style="fill:#1e633b"/><path d="M80.8,99.5a49,49,0,0,1,9.32,12.77s0,0,0,0c4.65,8.93,8.24,21.18,9.21,37.4,4.36-.14,8.72-.36,13.08-.57C110.2,112.24,95.33,91.6,80.8,83.28a34.93,34.93,0,0,0-4-2c-.21-.1-.43-.18-.64-.27,0,0,0,0,0,0A29.39,29.39,0,0,0,69,79.1c-.49-.08-1-.13-1.46-.16L66.57,92a21.18,21.18,0,0,1,10.26,4.18A35.87,35.87,0,0,1,80.8,99.5Z" style="fill:#1e633b"/><path d="M83.77,149.71c1.89.08,3.78.12,5.68.13l.69-37.54.11-6.28A29.3,29.3,0,0,0,76.19,81s0,0,0,0a28.49,28.49,0,0,0-7.37-3.2,28.93,28.93,0,0,0-7.78-1H60A29.26,29.26,0,0,0,30.74,106l.87,33.62C49.08,142.39,66.32,146.59,83.77,149.71Z" style="fill:#1e633b"/><path d="M43.69,141.75V80.25a37,37,0,0,0-4,1.77v59C41,141.25,42.37,141.5,43.69,141.75Z" style="fill:#fff"/><path d="M80.8,149.16V83.28a34.81,34.81,0,0,0-4-2v67.11Z" style="fill:#fff"/><path d="M66.06,146.26V83.81H54.93V144Z" style="fill:#184c2d"/><path d="M60.68,90.85l-5.53-2.78a4.21,4.21,0,0,0-6.09,3.76h0a4.21,4.21,0,0,0,5.87,3.86l5.75-2.48Z" style="fill:#ff3636"/><path d="M61.3,90.85l5.53-2.78a4.2,4.2,0,0,1,6.09,3.76h0a4.2,4.2,0,0,1-5.87,3.86L61.3,93.21Z" style="fill:#ff3636"/><circle cx="60.68" cy="91.93" r="3.84" style="fill:#c42626"/><path d="M61.85,100.89a1.3,1.3,0,1,1-1.3-1.3A1.3,1.3,0,0,1,61.85,100.89Z" style="fill:#ddd6d0"/><circle cx="60.55" cy="109.65" r="1.3" style="fill:#ddd6d0"/><circle cx="60.55" cy="118.4" r="1.3" style="fill:#ddd6d0"/><g style="opacity:0.34"><path d="M9.93,137.16c3.2-22,11.26-37.15,20.51-46.51.9-.93,1.84-1.8,2.77-2.62A50.25,50.25,0,0,1,37.5,84.7a36.5,36.5,0,0,1,11.13-5.27l0,0L50,79.1s0,0,0,0l1.54-.24v-.4c-.63,0-1.27.12-1.92.23a28.75,28.75,0,0,0-6,1.58,36.83,36.83,0,0,0-4,1.77C26.33,89,12.2,106.39,7.57,137Z" style="fill:#d8d8d8"/></g><g style="opacity:0.32"><path d="M73.34,80.84a.38.38,0,0,1,.13.06,0,0,0,0,1,0,0,44.33,44.33,0,0,1,11.32,8.13c.13.11.26.24.39.37,11.14,11,20.65,30.41,22.16,60l5.07-.24C110.2,112.24,95.33,91.6,80.8,83.28a34.93,34.93,0,0,0-4-2c-.21-.1-.43-.18-.64-.27,0,0,0,0,0,0a28.49,28.49,0,0,0-7.37-3.2L68,77.74l-.08,1c.37.09.73.21,1.11.34A30,30,0,0,1,73.34,80.84Z" style="fill:#111"/></g><rect x="51.64" y="61.31" width="17.71" height="25.19" rx="6.36" transform="translate(2.76 -2.17) rotate(2.11)" style="fill:#e29764"/><polygon points="51.55 67.79 69.6 70.85 69.19 78.47 51.61 76.1 51.55 67.79" style="fill:#e27954"/><path d="M61.8,70.38C47.4,71,35.23,59.09,34.63,43.87A28.19,28.19,0,0,1,41.24,24.4,25.32,25.32,0,0,1,59.6,15.29c11.91-.47,22.29,7.56,25.87,19a28.92,28.92,0,0,1,1.31,7.56C87.38,57,76.2,69.81,61.8,70.38Z" style="fill:#f9922d"/><path d="M42.63,49.36a5,5,0,1,1-4-5.89A5,5,0,0,1,42.63,49.36Z" style="fill:#ffb380"/><path d="M40.59,49a2.94,2.94,0,1,1-2.32-3.46A2.94,2.94,0,0,1,40.59,49Z" style="fill:#e27954"/><path d="M88.62,49.18a5,5,0,1,1-4-5.9A5,5,0,0,1,88.62,49.18Z" style="fill:#ffb380"/><path d="M86.58,48.77a2.94,2.94,0,1,1-2.32-3.45A2.93,2.93,0,0,1,86.58,48.77Z" style="fill:#e27954"/><path d="M84.42,47.74s0,0,0,0c-.09,1.07-.23,2.12-.4,3.16-.13.71-.27,1.42-.42,2.1A32.28,32.28,0,0,1,81,60.27s0,0,0,0a25.9,25.9,0,0,1-10.1,11c-.41.23-.83.43-1.26.62a19,19,0,0,1-7.67,1.94,16.17,16.17,0,0,1-2.09,0,20.2,20.2,0,0,1-7.43-2l-.69-.35a26.31,26.31,0,0,1-9.82-9.58s0,0,0,0a32.66,32.66,0,0,1-4-10.26c-.16-.68-.31-1.39-.41-2.09A35.81,35.81,0,0,1,37,45.23c0-.42,0-.87,0-1.29s0-.94,0-1.4a0,0,0,0,1,0,0c0-.21,0-.42,0-.63.54-10.63,5.63-19.71,12.94-24.2a0,0,0,0,1,0,0c2.75-1.65,6.17.26,9.42.05.17,0,.08-.35.27-.36,3.39-.14,6.54-2,9.53-.52,0,0,0,0,0,0C77.75,21.06,84,31.23,84.49,43.33v.14c0,.73,0,1.45,0,2.17S84.48,47.05,84.42,47.74Z" style="fill:#ea9b65"/><path d="M81.84,45.64q0,1.06-.09,2.1h0c-.09,1.07-.23,2.12-.4,3.16-.12.71-.26,1.42-.42,2.1a31.31,31.31,0,0,1-2.61,7.26s0,0,0,0c-2.41,4.78-10.16,14.08-18.45,13.54a20.2,20.2,0,0,1-7.43-2l-.69-.35a26.31,26.31,0,0,1-9.82-9.58s0,0,0,0a32.66,32.66,0,0,1-4-10.26c-.16-.68-.31-1.39-.41-2.09A35.81,35.81,0,0,1,37,45.23c0-.42,0-.87,0-1.29s0-.94,0-1.4a0,0,0,0,1,0,0c0-.21,0-.42,0-.63.54-10.63,5.63-19.71,12.94-24.2a0,0,0,0,1,0,0c2.75-1.65,6.8-.24,10-.45,2.64.18,4.16-1.56,6.51-.38,0,0,0,0,0,0,8.51,4.24,14.78,14.41,15.25,26.51v.14C81.85,44.2,81.85,44.92,81.84,45.64Z" style="fill:#ffb380"/><path d="M53.42,48.05a1.24,1.24,0,1,1-1.23-1.24A1.24,1.24,0,0,1,53.42,48.05Z" style="fill:#2d2012"/><path d="M70.93,48.05a1.24,1.24,0,1,1-1.24-1.24A1.24,1.24,0,0,1,70.93,48.05Z" style="fill:#2d2012"/><path d="M86.64,42.84c-3.1,2.52-6.28-4.06-7.92-7.48l-.11-.16a16.6,16.6,0,0,0-13.75-7.82L58,27.23C41.41,27,39.4,45.89,36.35,43.12c0,0-3.35-5.21,4.21-17.66.23-.37.45-.72.68-1.06A25.32,25.32,0,0,1,59.6,15.29c11.91-.47,22.29,7.56,25.87,19,.33,1.3.53,2.48.78,3.6l0,0V38A15.71,15.71,0,0,1,86.64,42.84Z" style="fill:#f9922d"/><path d="M50.11,28.25s12.08,9.19,29.29,3.56c9.18-3,7.88-20.07,6.71-17.64C82.83,21,68.76,21.29,68.76,21.29Z" style="fill:#f9922d"/><path d="M61.53,25.59s7.59,2.61,12.93-2.06a12.26,12.26,0,0,0,4.26-11.94l-14.5,5.95Z" style="fill:#f9922d"/><g style="opacity:0.17"><path d="M45.43,23a1.48,1.48,0,0,0,1.67,2.41,14.86,14.86,0,0,1,6.32-1.86c4.56-.14,5-2.66,4.31-3.8S50.2,18.1,45.43,23Z" style="fill:#fff"/></g><g style="opacity:0.17"><path d="M43.66,26.62c.57.22-.33,2.2-1.33,2.9-.49.35-1.67.71-2,.22S41.73,25.86,43.66,26.62Z" style="fill:#fff"/></g><rect x="47.48" y="40.62" width="8.88" height="2.78" rx="1.05" style="fill:#f9922d"/><rect x="65.26" y="40.62" width="8.88" height="2.78" rx="1.05" style="fill:#f9922d"/><path d="M61.15,61.51l5.27.05c0,3.77-2.39,6.86-5.27,6.86s-5.27-3.12-5.27-6.91Z" style="fill:#5e2526"/><path d="M55.88,61.46s0,.52,0,.67.07.53.07.53H66.34s.07-.45.08-.6,0-.55,0-.55Z" style="fill:#fff"/><path d="M57.52,66.5a17.13,17.13,0,0,1,7.26,0,6.72,6.72,0,0,1-1.71,1.44,4.2,4.2,0,0,1-2.34.46A4.7,4.7,0,0,1,57.52,66.5Z" style="fill:#ff3636"/><path d="M61.09,55.4a6,6,0,0,0-5.68,2.08,14.35,14.35,0,0,1-4.54,3.92,20.1,20.1,0,0,0,6.2.33C59.9,61.31,62.61,58.57,61.09,55.4Z" style="fill:#ff8c24"/><path d="M61,55.4a6,6,0,0,1,5.67,2.08,14.44,14.44,0,0,0,4.55,3.92,20.18,20.18,0,0,1-6.21.33C62.21,61.31,59.51,58.57,61,55.4Z" style="fill:#ff8c24"/><path d="M63.07,56.07H58.82A1.09,1.09,0,0,1,57.73,55h0a1.09,1.09,0,0,1,1.09-1.09h4.25A1.09,1.09,0,0,1,64.16,55h0A1.09,1.09,0,0,1,63.07,56.07Z" style="fill:#e27954"/><path d="M54.09,70.19H68a.13.13,0,0,1,.13.13v1.3a4,4,0,0,1-4,4H57.92a4,4,0,0,1-4-4v-1.3A.13.13,0,0,1,54.09,70.19Z" style="fill:#ff8c24"/></g><g style="clip-path:url(#clip-path-2)"><path d="M84.34,2.89A33.59,33.59,0,0,0,92.89-19.5,33.77,33.77,0,0,0,59.12-53.27,33.76,33.76,0,0,0,25.36-19.5,33.58,33.58,0,0,0,30-2.42,482.74,482.74,0,0,1,84.34,2.89Z" style="fill:#195e95"/><path d="M70-52.06s0,0,0,0c.25.16.51.35.79.54l.06.06a44.29,44.29,0,0,1,7.9,7.38,56,56,0,0,1,4.12,5.59l.07.12C84-36.75,85.06-35,86.06-33a70.5,70.5,0,0,1,3.21,7.19c.65,1.7,1.27,3.51,1.84,5.42a106.19,106.19,0,0,1,4.21,25l4.41.74c2.64.45,5.26,1,7.88,1.49a116.46,116.46,0,0,0-6.1-34.31c-.64-1.86-1.34-3.62-2.05-5.3A75,75,0,0,0,86.06-54c-1-1.1-2-2.09-2.89-3l0,0,0-.05c-2-2-13-2-13-2l-.21.47h0l-.9,2-1.41,3.08a.05.05,0,0,1,0,0A21,21,0,0,1,70-52.06Z" style="fill:#ffb380"/><path d="M86.93,3.28l-.42-27.63-.45-29.07a1.47,1.47,0,0,0-.4-1c-.84-.93-1.67-1.78-2.49-2.56l0,0,0-.05a7.07,7.07,0,0,0-.83-.66,45,45,0,0,0-10.73-4.57c-1.09-.12-4.4-.33-4.4-.33l.33,1.22c0,3.68-3.32,6.71-7.4,6.76h-.11c-4.48,0-8.15-3.3-8.14-7.37v-.72s-4.13.35-4.5.47c-1.22.09-7.2,2.49-10,4.42a10,10,0,0,0-1,.78l-.05.05,0,0c-.25.23-.49.45-.73.69s-.49.49-.73.75l-.33.35-1.19,2.9-.43,28-.34,22A496.58,496.58,0,0,1,86.93,3.28Z" style="fill:#f7468e"/><path d="M78.51,2V-37.4a5.77,5.77,0,0,0-5.77-5.78h-26A5.78,5.78,0,0,0,41-37.4V-1.87C53.52-1.07,66.05.29,78.51,2Z" style="fill:#262626"/><path d="M73.24,1.33V-43.18H69.75V.88C70.91,1,72.08,1.17,73.24,1.33Z" style="fill:#f2f3f4"/><g style="opacity:0.14"><path d="M86.93,3.28l-.41-26.62a9.43,9.43,0,0,0-5.61,8.63V2.38C82.92,2.67,84.92,3,86.93,3.28Z"/></g></g></svg>